<?xml version="1.0" standalone="no"?>
<!DOCTYPE svg PUBLIC "-//W3C//DTD SVG 1.1//EN" "http://www.w3.org/Graphics/SVG/1.1/DTD/svg11.dtd" >
<svg xmlns="http://www.w3.org/2000/svg">
<metadata></metadata>
<defs>
<font id="eb_garamond12_regular" horiz-adv-x="817" >
<font-face units-per-em="2048" ascent="1454" descent="-594" />
<missing-glyph horiz-adv-x="409" />
<glyph horiz-adv-x="2048" />
<glyph horiz-adv-x="2048" />
<glyph unicode="&#xd;" horiz-adv-x="2048" />
<glyph unicode=" "  horiz-adv-x="409" />
<glyph unicode="&#x09;" horiz-adv-x="409" />
<glyph unicode="&#xa0;" horiz-adv-x="409" />
<glyph unicode="!" horiz-adv-x="583" d="M205 94q0 51 36 87t87 36t87 -36t36 -87t-36 -87t-87 -36t-87 36t-36 87zM221 1174q0 65 27.5 110t81.5 45q50 0 77 -44.5t27 -106.5q0 -63 -8.5 -157t-16 -153t-26.5 -197t-23 -171q-11 -80 -36 -80q-29 0 -37 80q-6 60 -20 181.5t-22.5 198.5t-16 163t-7.5 131z" />
<glyph unicode="&#x22;" horiz-adv-x="632" d="M127 1270q0 37 39 71q28 23 46.5 33t41.5 10q29 0 29 -65q0 -71 -32 -177.5t-65 -180.5q-8 -19 -20 -35.5t-19 -16.5q-14 0 -14 47v117q0 21 -0.5 48.5t-1.5 52.5t-2 47t-1 35zM395 1270q0 37 39 71q28 23 46.5 33t41.5 10q29 0 29 -65q0 -71 -32 -178t-64 -180 q-8 -19 -20 -35.5t-19 -16.5t-11 15.5t-4 31.5v117q0 21 -0.5 48.5t-1.5 52.5t-2 47t-1 35z" />
<glyph unicode="#" horiz-adv-x="958" d="M35 436q0 11 2 24.5t6.5 31.5t15 30t25.5 13l137 6l70 282l-131 -6q-11 0 -20 7.5t-9 17.5t2 23.5t6.5 31.5t15 30t25.5 13l142 6l86 350q7 35 67 35q7 0 12 -7.5t5 -16.5q0 -2 -1.5 -5.5t-1.5 -5.5l-83 -346l231 13l88 356q7 35 68 35q16 0 16 -25q0 -2 -1 -5t-1 -5 l-86 -352l121 6q11 0 18.5 -6.5t7.5 -16.5q0 -25 -17 -62t-46 -38l-115 -6l-69 -283l124 6q11 0 19 -7t8 -17q0 -24 -17 -61t-46 -38l-119 -6l-88 -360q-7 -31 -62 -31q-9 0 -14.5 7.5t-5.5 17.5v6l88 356l-234 -12l-90 -367q-7 -30 -61 -30q-9 0 -15 7.5t-6 16.5v6l91 363 l-130 -6q-11 0 -19.5 7t-8.5 17zM305 545l234 12l67 283l-231 -13z" />
<glyph unicode="$" horiz-adv-x="937" d="M109 324q0 12 12 22t29 10q4 0 16 -24t30.5 -61.5t43 -78.5t61.5 -79.5t78 -59.5q1 0 4 -1t4 -1q8 0 8 6l68 551q0 17 -25 35q-60 41 -102.5 78t-83 83.5t-61.5 100.5t-21 113q0 47 22 100t64.5 104t115.5 86.5t163 41.5q20 3 20 12l8 53q5 35 60 35q10 0 18 -10t8 -21 q-1 -11 -4 -30t-4 -27q0 -12 12 -14q37 -3 68.5 -8.5t59.5 -12.5t34 -8q29 -5 37 -45q2 -9 9.5 -51t10 -60.5t6 -50.5t3.5 -57q0 -15 -7 -33t-14 -18q-10 0 -29 15t-24 36q-23 81 -73.5 146t-96.5 65q-8 0 -8 -11l-58 -464q-2 -13 2 -19t25 -20q6 -4 42 -29t51 -36t49 -39 t51.5 -47t43 -51t38 -60t22.5 -65t10 -75q0 -51 -14 -103.5t-46.5 -104.5t-80 -91.5t-120.5 -64.5t-161 -25q-16 0 -18 -12l-19 -156q-3 -31 -51 -31q-12 0 -22.5 9t-10.5 20q3 28 10.5 82.5t10.5 81.5q0 5 -4 9.5t-8 4.5q-43 7 -100.5 25.5t-69.5 21.5q-10 2 -16 5.5 t-7.5 5t-3.5 7.5t-2 7q-17 35 -38.5 131t-24.5 152zM328 1059q0 -107 145 -217q8 -4 10 -4q9 0 9 8l53 422q0 16 -15 16q-87 -7 -144.5 -75t-57.5 -150zM479 53q0 -20 17 -20q119 8 172 68.5t53 201.5q0 52 -66.5 142t-109.5 120q-1 1 -2 -1q0 -1 -1 -4q0 -4 -1 -7z" />
<glyph unicode="%" horiz-adv-x="1505" d="M100 918q0 90 34.5 174t104 141t158.5 57q120 0 188 -104.5t68 -245.5q0 -100 -31.5 -187t-100 -145.5t-161.5 -58.5q-84 0 -144.5 54t-88 135.5t-27.5 179.5zM244 948q0 -56 9 -116t25.5 -113t44 -87t60.5 -34q32 0 57.5 29t40 75.5t22 98.5t7.5 104q0 72 -15.5 146.5 t-47.5 129t-72 54.5q-56 0 -93.5 -92t-37.5 -195zM276 -29q0 3 3 6l843 1330q21 34 80 34q10 0 19.5 -8.5t9.5 -17.5q0 -6 -2 -8l-844 -1330q-18 -30 -74 -30q-12 0 -23.5 7.5t-11.5 16.5zM852 340q0 90 34.5 174.5t104 141.5t158.5 57q81 0 141 -52.5t87.5 -130.5 t27.5 -168q0 -100 -31.5 -187t-100 -145.5t-161.5 -58.5q-84 0 -144.5 54t-88 135.5t-27.5 179.5zM995 371q0 -77 15 -155.5t48.5 -137t76.5 -58.5q32 0 57.5 29.5t40 76t22 98.5t7.5 104q0 71 -16 145.5t-48 129t-72 54.5q-56 0 -93.5 -91.5t-37.5 -194.5z" />
<glyph unicode="&#x26;" horiz-adv-x="1613" d="M76 252q0 291 344 448l41 19l-31 33q-2 2 -22.5 25t-29 33.5t-26.5 36.5t-27 46.5t-16.5 49.5t-7.5 58q0 102 84.5 164t196.5 62q101 0 176.5 -59t75.5 -152q0 -96 -52.5 -169t-146.5 -108l-29 -10l19 -20q27 -31 122.5 -129.5t143.5 -167.5l24 -37l37 39 q75 79 150.5 181.5t75.5 125.5q0 14 -17 33.5t-41 23.5q-5 2 -14.5 10.5t-9.5 12.5q0 22 45 22q4 0 65.5 -5t79.5 -5q32 0 103 15.5t94 15.5q5 0 14.5 -6.5t9.5 -12.5q0 -11 -18 -24t-33 -15q-83 -5 -149 -63q-12 -10 -103.5 -106.5t-177.5 -187.5l-86 -91l35 -49 q73 -106 103 -138q84 -79 194 -81q9 0 16.5 0.5t13.5 1t13 3t11 3t11.5 4.5t10.5 5t11 6t10.5 7t12.5 8.5t13 8.5q17 10 35 10q20 0 20 -45q0 -10 -37.5 -36.5t-99.5 -51.5t-113 -25q-57 0 -98.5 12.5t-79 46.5t-65 71t-72.5 108l-27 43l-12 -12q-15 -16 -46.5 -51 t-46 -50.5t-43.5 -44t-47.5 -42t-48 -32.5t-55 -27.5t-58 -15t-67.5 -6.5q-92 0 -172.5 32t-133 98t-52.5 153zM240 322q0 -92 70 -156t165 -64q105 0 182.5 40.5t157.5 125.5l19 19l-25 39q-31 47 -72 94.5t-116.5 126t-104.5 110.5l-24 27l-43 -16q-55 -21 -94.5 -53 t-61 -65t-34 -76t-16 -76.5t-3.5 -75.5zM424 1051q0 -103 112 -240q4 -4 5 -6l30 -35l27 12q113 52 113 228q0 59 -41.5 109t-102.5 50q-57 0 -100 -33t-43 -85z" />
<glyph unicode="'" horiz-adv-x="364" d="M127 1270q0 37 39 71q28 23 46.5 33t41.5 10q29 0 29 -65q0 -71 -32 -177.5t-65 -180.5q-8 -19 -20 -35.5t-19 -16.5q-14 0 -14 47q2 43 2 117q0 21 -1 48.5t-2 52.5t-2 47t-2 35z" />
<glyph unicode="(" horiz-adv-x="645" d="M82 551q0 163 61.5 345.5t141 314.5t157.5 210q23 23 56 23q12 0 28.5 -10.5t16.5 -22.5q0 -3 -11.5 -19t-15.5 -20q-124 -124 -217.5 -340t-93.5 -457q0 -253 95 -534.5t208 -394.5q33 -33 33 -39q0 -21 -17 -33t-39 -12q-20 0 -34 14q-55 55 -119 165.5t-120 244.5 t-93 287.5t-37 277.5z" />
<glyph unicode=")" horiz-adv-x="647" d="M74 -399q0 8 20 28q117 117 222.5 394t105.5 524q0 242 -101 482t-223 362q-16 16 -16 24q0 12 17.5 19.5t37.5 7.5q28 0 49 -21q58 -58 118 -146t115.5 -199t90.5 -244t35 -257q0 -164 -64 -377t-150.5 -380.5t-160.5 -241.5q-12 -12 -35 -12q-22 0 -41.5 11t-19.5 26z " />
<glyph unicode="*" horiz-adv-x="696" d="M70 1182q0 28 34 28q11 0 17 -2q35 -15 94.5 -38t83.5 -33q-9 87 -12 190q0 45 35 45q13 0 22.5 -11.5t11.5 -25.5l27 -188q39 27 162 102q8 8 22 8t25.5 -7t11.5 -21q0 -17 -18 -35l-150 -119q110 -52 168 -86q10 -4 17.5 -15t7.5 -22q0 -28 -35 -28q-10 0 -16 2 q-35 15 -95 38t-84 33q10 -100 13 -190q0 -45 -35 -45q-13 0 -23 11.5t-12 25.5l-27 188q-45 -32 -161 -102q-8 -8 -23 -8q-14 0 -25.5 7t-11.5 21q0 16 19 35l149 119q-110 52 -168 86q-10 4 -17 15t-7 22z" />
<glyph unicode="+" horiz-adv-x="1208" d="M102 479q0 21 13 49.5t37 28.5h387q9 0 11.5 3.5t2.5 12.5v351q0 29 37 46t57 17q11 0 20 -8t9 -18v-392q0 -12 4 -12h420q11 0 18.5 -5.5t7.5 -14.5q0 -29 -18 -55.5t-45 -26.5h-379q-8 0 -8 -9v-413q0 -15 -12.5 -25.5t-30.5 -15t-31.5 -6.5t-23.5 -2q-9 0 -17 9t-8 19 v432q0 11 -8 11h-414q-11 0 -20 7.5t-9 16.5z" />
<glyph unicode="," horiz-adv-x="466" d="M37 -279q0 8 8 15t21 10q79 16 137.5 71t58.5 152q0 27 -24 57t-56 33q-44 4 -70 28t-26 58q0 40 34 67.5t79 27.5q74 0 122 -56.5t48 -142.5q0 -73 -31.5 -140t-77.5 -109.5t-96 -67.5t-90 -25q-37 0 -37 22z" />
<glyph unicode="-" horiz-adv-x="561" d="M59 360q0 37 9.5 73.5t23.5 37.5q295 40 393 51q17 0 17 -12q0 -106 -43 -111q-293 -43 -387 -51q-13 0 -13 12z" />
<glyph unicode="." horiz-adv-x="471" d="M123 84q0 46 33.5 79.5t79.5 33.5t79 -33.5t33 -79.5t-33 -79.5t-79 -33.5t-79.5 33.5t-33.5 79.5z" />
<glyph unicode="/" d="M59 -102q0 1 1 3t1 3l609 1423q16 35 80 35q11 0 19.5 -8.5t8.5 -18.5q0 -1 -1 -4t-1 -4l-608 -1423q-13 -31 -74 -31q-13 0 -24 7.5t-11 17.5z" />
<glyph unicode="0" horiz-adv-x="1038" d="M82 418q0 178 127.5 303t306.5 125q182 0 311 -125.5t129 -304.5q0 -120 -58 -223t-158.5 -163.5t-219.5 -60.5q-183 0 -310.5 132.5t-127.5 316.5zM242 418q0 -90 30 -172t92 -137.5t142 -55.5q133 0 212 89.5t79 273.5q0 88 -30 165.5t-92.5 129t-144.5 51.5 q-126 0 -207 -97t-81 -247z" />
<glyph unicode="1" horiz-adv-x="591" d="M51 23q0 22 23 22q24 2 37.5 3.5t38 7.5t38 15t24.5 26.5t11 41.5v543q0 18 -4 32t-8 23.5t-15 17.5l-16.5 12t-21 8t-20.5 5t-23 3.5t-21 2.5q-14 0 -14 23q0 22 14 22q67 0 117.5 -3t85.5 -3q34 0 84 3t115 3q16 0 16 -20q0 -22 -16 -25q-7 -2 -24.5 -4.5t-26 -5 t-22.5 -7t-21.5 -11t-15.5 -16.5t-11.5 -25t-3.5 -35v-543q0 -27 7.5 -44t28 -26.5t38.5 -13t55 -8.5q11 -1 16 -2q11 -1 18 -9t7 -18t-7 -17t-18 -7q-62 0 -121 5t-98 5q-41 0 -103 -5t-120 -5q-10 0 -16.5 9t-6.5 20z" />
<glyph unicode="2" horiz-adv-x="864" d="M45 10q0 11 14 25q81 81 125 117q26 21 47.5 40t68.5 66.5t79 89.5t58 97t26 102q0 72 -37 116t-96 44q-74 0 -131 -22t-107 -77q-14 -14 -26 -14q-15 0 -15 29q0 7 11.5 30t38.5 56t64 63.5t96.5 52t127.5 21.5q95 0 154 -75.5t59 -176.5q0 -48 -23 -103t-61 -100 q-40 -49 -133.5 -138t-114.5 -103q-12 -8 7 -15l12 -2h317q58 0 110 35t81 94q13 21 39 21q8 0 8 -13q0 -8 -2 -12q-24 -68 -46 -143t-22 -90q0 -13 -12.5 -23t-18.5 -10q-1 0 -134.5 4t-215.5 4q-58 0 -138.5 -1.5t-137.5 -3t-58 -1.5q-5 0 -9.5 5t-4.5 11z" />
<glyph unicode="3" horiz-adv-x="761" d="M74 639q0 17 25 50.5t63.5 69t96 61.5t112.5 26q100 0 160.5 -58t60.5 -155q0 -29 -8 -61.5t-27.5 -73t-60 -82.5t-97.5 -74q-4 -2 -5.5 -5t0.5 -5t7 -2q67 -1 118 -23t79 -56t41.5 -70t13.5 -72q0 -89 -28.5 -163t-80 -128.5t-105 -92t-122.5 -71.5q-35 -18 -78 -30.5 t-63 -12.5t-37.5 7.5t-17.5 21.5q0 19 18.5 40t36.5 21q98 0 137 20q45 24 73.5 45.5t56.5 57t41.5 88t13.5 123.5q0 23 -3.5 46t-15 50.5t-29.5 48.5t-51.5 35t-76.5 14q-28 0 -57.5 -10.5t-48.5 -20.5t-21 -10q-35 0 -35 19q0 13 21.5 35.5t41.5 33.5q82 49 144 105 q33 29 57.5 85.5t24.5 131.5q0 59 -36.5 97t-95.5 38q-63 0 -105 -25t-91 -77q-13 -17 -33 -17q-14 0 -14 25z" />
<glyph unicode="4" horiz-adv-x="1007" d="M43 98q0 9 8 17q60 72 148.5 171t226.5 251.5t211 234.5q11 12 30 36.5t31.5 38.5t18.5 15h2q5 0 6.5 -3t0.5 -11t-1 -10q0 -120 -4 -307.5t-4 -307.5q0 -12 10 -12q31 -2 82 -2q31 0 121 4q22 0 22 -14q0 -24 -16 -57t-27 -33q-15 0 -49 1t-51 1q-24 0 -64 -5 q-7 -1 -16.5 -5.5t-9.5 -6.5v-366q0 -33 -50.5 -66t-68.5 -33q-31 0 -31 27v428q0 8 -12.5 13t-17.5 5q-83 0 -222 -6.5t-247 -7.5q-27 0 -27 10zM238 213h307q8 0 16 5t8 11v346q0 5 -7.5 6t-12.5 -3q-37 -38 -68 -71t-64 -70t-53 -60t-62 -72t-64 -74q-12 -18 0 -18z" />
<glyph unicode="5" horiz-adv-x="735" d="M106 -362q0 23 68 34q295 52 295 328q0 96 -71 187t-177 155q-57 34 -79.5 60t-22.5 53q0 118 63 256q21 46 74 67q57 22 166 47t135 25q10 0 16.5 -9t6.5 -20q0 -41 -33 -91.5t-72 -57.5q-101 -19 -250 -39q-13 -2 -26 -21t-13 -47q0 -26 41 -49q157 -87 279 -209 q49 -49 88 -124t39 -148q0 -95 -42.5 -176.5t-109.5 -134t-147 -82t-158 -29.5q-27 0 -48.5 6.5t-21.5 18.5z" />
<glyph unicode="6" horiz-adv-x="1001" d="M84 395q0 87 18.5 170.5t42 141t61.5 118t59.5 88t53.5 64.5q85 98 233 192t322 140h11q18 0 18 -9q0 -7 -4.5 -13.5t-12 -11.5t-14 -8.5t-14 -6.5t-8.5 -3q-141 -61 -239.5 -137t-174.5 -186q-43 -62 -79.5 -131.5t-69.5 -184.5t-33 -229q0 -142 70 -227 q34 -42 93 -79.5t118 -37.5q82 0 135 43q38 29 63 81t25 122q0 96 -56.5 168.5t-136.5 72.5q-108 0 -164 -30q-18 -9 -21.5 0.5t7.5 21.5q24 27 55 49q30 22 90 45t111 23q107 0 181.5 -71.5t74.5 -180.5q0 -82 -26.5 -156t-77.5 -133t-133.5 -94t-186.5 -35 q-195 0 -293 115.5t-98 308.5z" />
<glyph unicode="7" horiz-adv-x="942" d="M49 592q0 5 8 45q25 105 25 172q0 22 20 22q2 0 23.5 -1.5t52.5 -3.5t53 -3q59 -2 220 -2q358 0 421 13q6 0 10.5 -10.5t4.5 -18.5q0 -15 -14 -41t-36.5 -59.5t-27.5 -42.5l-573 -1002q-29 -55 -39 -55q-24 0 -41 15t-17 38q0 5 43 84l523 899q6 7 3 13.5t-24 7.5 q-240 6 -422 6h-26q-87 0 -123 -47q-38 -46 -54 -46q-10 0 -10 17z" />
<glyph unicode="8" horiz-adv-x="925" d="M125 270q0 48 17.5 92t41 73.5t62 60t64.5 46t65 36.5q11 8 10 11.5t-12 11.5q-3 2 -4 3q-54 44 -86 74.5t-67.5 75t-52 94.5t-16.5 108q0 75 53 133.5t131.5 87.5t164.5 29q119 0 210 -71.5t91 -182.5q0 -61 -27.5 -104.5t-71.5 -81.5q-33 -29 -102 -80 q-24 -18 -25 -24.5t15 -16.5q62 -41 99 -69.5t72.5 -68t51.5 -84.5t16 -101q0 -96 -53.5 -177.5t-138 -126.5t-178.5 -45q-134 0 -232 84.5t-98 212.5zM268 301q0 -101 60.5 -176.5t154.5 -75.5q86 0 142.5 55.5t56.5 137.5q0 56 -35.5 111.5t-79.5 93.5t-110 83 q-24 17 -31 17q-8 0 -23 -12q-38 -31 -57 -48.5t-40 -46t-29.5 -61.5t-8.5 -78zM291 995q0 -36 8.5 -66.5t19.5 -51.5t36.5 -46.5t43.5 -40t57.5 -45.5t61.5 -49q12 -9 25 0q63 51 86.5 115t23.5 156q0 74 -49 132t-119 58q-76 0 -135 -47t-59 -115z" />
<glyph unicode="9" horiz-adv-x="954" d="M84 -371q0 19 29 27q85 27 229.5 141t210.5 203q70 93 113 201.5t43 263.5q0 129 -75.5 219t-187.5 90q-92 0 -144 -71t-52 -156q0 -96 60.5 -176t140.5 -80q30 0 55 5.5t37.5 11t36.5 18.5t34 18q7 3 12.5 -6.5t2.5 -15.5q-20 -39 -68 -72q-32 -24 -85 -46t-103 -22 q-107 0 -185.5 74.5t-78.5 183.5q0 70 29 142t80 131.5t129 97t167 37.5q151 0 254.5 -119t103.5 -299q0 -273 -258 -526q-90 -89 -245 -180t-256 -105h-11q-18 0 -18 10z" />
<glyph unicode=":" horiz-adv-x="507" d="M143 84q0 46 33.5 79.5t79.5 33.5t79.5 -33.5t33.5 -79.5t-33.5 -79.5t-79.5 -33.5t-79.5 33.5t-33.5 79.5zM143 651q0 46 33.5 79.5t79.5 33.5t79.5 -33.5t33.5 -79.5t-33.5 -79t-79.5 -33t-79.5 33t-33.5 79z" />
<glyph unicode=";" horiz-adv-x="466" d="M37 -279q0 8 8 15t21 10q79 16 137.5 71t58.5 152q0 27 -24 57t-56 33q-44 4 -70 28t-26 58q0 40 34 67.5t79 27.5q74 0 122 -56.5t48 -142.5q0 -73 -31.5 -140t-77.5 -109.5t-96 -67.5t-90 -25q-37 0 -37 22zM104 651q0 46 33.5 79.5t79.5 33.5t79.5 -33.5t33.5 -79.5 t-33.5 -79t-79.5 -33t-79.5 33t-33.5 79z" />
<glyph unicode="&#x3c;" horiz-adv-x="1208" d="M109 455q0 17 19.5 49.5t47.5 44.5l895 409q1 0 3 1.5t3 1.5q9 0 15 -6t6 -15q0 -23 -18 -57.5t-46 -46.5l-764 -357q-4 -2 -3.5 -5t5.5 -5l779 -356q25 -12 37 -44.5t12 -54.5q0 -8 -7 -17t-16 -9q-1 0 -3 1t-3 1l-878 409q-30 14 -57 31t-27 25z" />
<glyph unicode="=" horiz-adv-x="1208" d="M102 317q0 21 13 49.5t37 28.5h927q10 0 19.5 -6.5t9.5 -15.5q0 -1 -1 -3t-1 -3q-6 -18 -10 -27t-11.5 -22t-18 -19t-24.5 -6h-911q-11 0 -20 7.5t-9 16.5zM102 668q0 21 13 49t37 28h927q10 0 19.5 -6.5t9.5 -15.5q0 -1 -1 -3t-1 -3q-6 -18 -10 -27t-11.5 -22t-18 -19 t-24.5 -6h-911q-10 0 -19.5 8t-9.5 17z" />
<glyph unicode="&#x3e;" horiz-adv-x="1208" d="M109 934q0 8 7 17.5t15 9.5q1 0 3 -1.5t3 -1.5l879 -409q84 -38 84 -55t-20 -50t-48 -45l-895 -409q-1 0 -3 -1t-3 -1q-9 0 -14.5 6t-5.5 14q0 23 17.5 58t45.5 47l764 356q4 2 3.5 5t-5.5 5l-778 357q-25 12 -37 44t-12 54z" />
<glyph unicode="?" horiz-adv-x="792" d="M205 1280q0 28 27 51t55 23q53 0 112.5 -27t108.5 -76q83 -83 136.5 -198t53.5 -197q0 -124 -86 -172q-100 -54 -176 -104q-39 -25 -51 -63t-14 -99q0 -17 -8.5 -32t-22.5 -15q-11 0 -25 17.5t-20 41.5q-2 7 -10 32t-11.5 40t-7.5 44.5t-4 61.5q0 49 49 89t158 96 q49 25 87 64.5t38 80.5q0 105 -53 170t-154 66q-19 0 -48 -4.5t-48 -4.5q-32 0 -59 36.5t-27 78.5zM246 94q0 51 36 87t87 36t87 -36t36 -87t-36 -87t-87 -36t-87 36t-36 87z" />
<glyph unicode="@" horiz-adv-x="1533" d="M102 371q0 128 40 237t110 187.5t164.5 133.5t204 82t227.5 27q151 0 285.5 -75t216.5 -204t82 -278q0 -116 -61 -205.5t-156.5 -134.5t-206.5 -45q-37 0 -60 19t-33.5 38t-17.5 19q-5 0 -38.5 -19t-88 -38t-111.5 -19q-105 0 -173 59.5t-68 163.5q0 120 61.5 214.5 t159.5 144t211 49.5q83 0 133 -16q40 -13 47 -13q10 0 25.5 19.5t25.5 19.5q20 0 34 -10q5 -3 3 -6q-30 -82 -45 -164l-43 -270q-6 -54 -6 -56q0 -59 37 -59q112 0 193 78t81 201q0 139 -72.5 256t-193.5 183t-262 66q-163 0 -300.5 -68t-222.5 -198.5t-85 -298.5 q0 -159 83 -292.5t222.5 -209t300.5 -75.5q99 0 223 46t201 111q25 21 37 21q28 0 28 -27q0 -19 -50 -57.5t-122.5 -77.5t-167 -68.5t-172.5 -29.5q-182 0 -337 80t-249 227.5t-94 331.5zM563 358q0 -101 50.5 -146.5t119.5 -45.5q59 0 123 45q41 26 55 100l39 211q2 8 2 25 q0 56 -40 87.5t-107 31.5q-95 0 -168.5 -83t-73.5 -225z" />
<glyph unicode="A" horiz-adv-x="1400" d="M-4 16q0 26 67 47q59 17 102.5 52t74.5 106q196 444 383 963q14 38 20 67.5t6.5 40t1.5 11.5q54 17 74 30q12 8 21 26t13.5 32t8.5 14t7.5 -7.5t7.5 -22.5t5 -19q154 -488 365 -1094q39 -112 86.5 -152.5t120.5 -52.5q33 -6 50 -19t17 -28q0 -20 -59 -20q-24 0 -129.5 6 t-155.5 6q-44 0 -119 -1t-96 -1q-59 0 -59 25q0 27 68 38q124 19 124 93q0 68 -77 321q-4 14 -15.5 18.5t-40.5 4.5h-391q-22 0 -35 -37q-19 -57 -50.5 -162t-31.5 -123q0 -43 33.5 -73.5t85.5 -43.5q68 -17 68 -41q0 -22 -60 -22q-14 0 -78.5 2t-107.5 2q-48 0 -131.5 -6 t-114.5 -6q-59 0 -59 26zM494 602q0 -10 9.5 -12t33.5 -2h317h13t8.5 1t6 3t1.5 6t-4 20l-162 490q-12 37 -19 37q-4 0 -16 -35l-184 -492q-4 -12 -4 -16z" />
<glyph unicode="B" horiz-adv-x="1183" d="M39 12q0 26 67 37q81 14 120.5 49t39.5 105v921q0 74 -31.5 109t-105.5 41q-33 3 -50.5 14.5t-17.5 26.5q0 22 60 22q59 0 116.5 -1t96.5 -1q34 0 98 5.5t129 5.5q231 0 343 -71.5t112 -234.5q0 -63 -21.5 -116t-48.5 -80q-35 -33 -62 -51t-75 -37q-8 -3 -8.5 -10.5 t8.5 -10.5q39 -12 65 -22.5t64 -29.5t63.5 -43t50 -57.5t36.5 -81t12 -104.5q0 -64 -15 -117.5t-34.5 -85.5t-53.5 -61t-54.5 -41.5t-55.5 -30.5q-138 -69 -328 -69q-13 0 -80 4t-114 4q-51 0 -128.5 -5t-138.5 -5q-59 0 -59 22zM426 221q0 -82 39.5 -113.5t122.5 -31.5 q80 0 153 40.5t119.5 113t46.5 157.5q0 179 -151 264q-94 51 -213 51q-59 0 -88 -23.5t-29 -49.5v-408zM426 836q0 -76 94 -76q129 0 228 59q32 18 62 67.5t30 127.5q0 49 -12 92.5t-40.5 85.5t-86.5 67t-140 25q-80 0 -107.5 -21.5t-27.5 -70.5v-356z" />
<glyph unicode="C" horiz-adv-x="1310" d="M94 662q0 145 61 275.5t163 222t238.5 145t283.5 53.5q50 0 119.5 -8t97.5 -17q80 -26 155 -37q23 -3 27 -61q14 -109 16 -223q2 -17 -3.5 -32.5t-18.5 -14.5q-18 2 -32.5 21.5t-20.5 53.5q-12 94 -72 150q-12 12 -30.5 25.5t-55.5 33.5t-93.5 32.5t-121.5 12.5 q-110 0 -206 -49t-161.5 -129.5t-103 -186.5t-37.5 -218q0 -100 23 -198.5t68.5 -184.5t107.5 -152t145 -104.5t176 -38.5q81 0 147 23t111 63.5t72 77.5t51 84q5 10 15.5 17.5t21.5 13t14 7.5q3 3 4 3q6 0 10.5 -12.5t4.5 -26.5q0 -3 -1 -9t-1 -8q-7 -47 -27 -114t-41 -99 q-9 -15 -88 -39q-2 -1 -3.5 -1.5t-4 -1t-4.5 -1.5q-54 -17 -153 -29t-191 -12q-182 0 -335 95t-240 254t-87 344z" />
<glyph unicode="D" horiz-adv-x="1544" d="M59 12q0 25 68 37q77 14 107 47.5t30 106.5v921q0 73 -30 104.5t-107 45.5q-68 12 -68 41q0 22 60 22q59 0 116.5 -2t96.5 -2h14q48 0 187.5 8.5t162.5 8.5q162 0 293 -33.5t220.5 -92t149.5 -141t87 -178t27 -205.5q0 -193 -96 -357.5t-260.5 -260.5t-356.5 -96 q-5 0 -167.5 7t-258.5 7q-38 0 -97.5 -5t-117.5 -5q-60 0 -60 22zM428 248q0 -48 17.5 -83.5t45.5 -55.5t70 -32t82.5 -16t91.5 -4q239 0 391 171t152 438q0 142 -49.5 261.5t-131 196.5t-182.5 119.5t-208 42.5q-47 0 -72 -0.5t-60 -3t-53 -7t-39.5 -13.5t-31 -22.5 t-16.5 -33t-7 -45.5v-913z" />
<glyph unicode="E" horiz-adv-x="1095" d="M47 12q0 25 68 37q79 14 115 48.5t36 105.5v921q0 73 -30 104.5t-107 45.5q-68 12 -68 41q0 22 60 22q78 0 185 -3t177 -3q82 0 190.5 1.5t184.5 3t80 1.5q34 0 37 -18q31 -173 31 -211q0 -31 -29 -31q-17 0 -23 21q-29 95 -45 112q-51 56 -137 56h-268 q-21 0 -47.5 -19.5t-26.5 -46.5v-434q0 -19 11 -32t26 -13h197q43 0 76 22t48 58q3 8 16.5 21.5t20.5 13.5q9 0 18 -9.5t9 -23.5q0 -7 -3 -51t-3 -62q0 -24 2 -79t2 -60q0 -35 -19 -35q-18 0 -30.5 16t-16.5 31q-14 45 -40 68.5t-54 23.5h-190q-39 0 -54.5 -10t-15.5 -43 v-393q0 -76 32 -106.5t103 -30.5h213q48 0 80 5.5t45.5 12.5t30.5 19q42 33 86 129q11 23 29 20q26 -4 26 -22q0 -27 -12 -98.5t-23 -112.5q-8 -35 -28 -35q-138 0 -356.5 6t-313.5 6q-44 0 -111 -6t-125 -6q-59 0 -59 22z" />
<glyph unicode="F" horiz-adv-x="1048" d="M61 12q0 25 68 37q77 14 107 47.5t30 108.5v864q0 98 -26 145t-99 60q-67 11 -67 41q0 22 59 22q76 0 179.5 -3t172.5 -3l461 6q34 0 37 -18q10 -59 10 -205q0 -43 -18 -43q-24 0 -31 25q-23 73 -47 100q-50 55 -137 55h-260q-30 0 -46 -16t-19.5 -34.5t-4.5 -51.5 q-2 -51 -2 -193q0 -141 2 -190q0 -45 21 -45q48 0 132.5 3t104.5 3q43 0 76.5 22t48.5 58q3 8 16.5 21.5t20.5 13.5q9 0 18.5 -10.5t8.5 -22.5q-7 -82 -7 -113q0 -36 7 -139q0 -35 -19 -35q-18 0 -30.5 16t-16.5 31q-25 80 -96 80q-18 0 -52.5 1t-50.5 1q-47 0 -133 -4 q-49 -4 -49 -51q0 -254 6 -389q3 -70 32.5 -107.5t102.5 -50.5q68 -12 68 -37q0 -22 -59 -22q-60 0 -113 7t-88 7q-49 0 -125 -7t-133 -7q-60 0 -60 22z" />
<glyph unicode="G" horiz-adv-x="1492" d="M92 637q0 149 61 283.5t163 230t240.5 151.5t289.5 56q86 0 254.5 -29t171.5 -51q22 -158 22 -229q0 -15 -9 -28t-21 -13q-13 0 -23 9.5t-14.5 19t-9.5 26.5q-21 58 -64 108q-30 37 -114 73t-212 36q-154 0 -277 -86.5t-189 -227t-66 -302.5q0 -141 45.5 -259.5 t121 -195.5t171 -119.5t198.5 -42.5q174 0 250 76q62 62 62 158q0 17 2 58t2 60q0 49 -10 62q-23 30 -90 46.5t-111 16.5q-10 0 -25.5 11t-15.5 24t15.5 24t25.5 11q48 0 124 -4t134 -4q36 0 90.5 4t91.5 4q13 0 28 -7.5t15 -25.5q0 -12 -16 -23.5t-27 -13.5 q-43 -12 -61.5 -34.5t-24.5 -65.5q-10 -74 -10 -154v-55q0 -9 12 -33q3 -6 15 -18t12 -17q0 -34 -29 -38q-10 -1 -57 -23.5t-103.5 -47.5t-147 -46t-179.5 -21q-188 0 -351 86.5t-261.5 240.5t-98.5 339z" />
<glyph unicode="H" horiz-adv-x="1658" d="M76 12q0 26 67 37q74 13 98.5 45.5t24.5 108.5v925q0 77 -18 105t-90 41q-68 12 -68 41q0 22 60 22q59 0 116 -3t94 -3q39 0 99 3t119 3t59 -22q0 -29 -68 -41q-75 -13 -107 -48.5t-32 -97.5v-393q0 -18 29 -18h760q14 0 14 24v389q0 59 -31 95t-104 49q-68 12 -68 41 q0 22 60 22q58 0 125.5 -3t111.5 -3q32 0 79 3t107 3t60 -22q0 -29 -68 -41q-70 -12 -89 -44t-19 -100v-925q0 -81 19.5 -112t92.5 -44q68 -12 68 -37q0 -22 -59 -22t-116.5 5t-96.5 5q-40 0 -100.5 -5t-119.5 -5t-59 22q0 25 68 37q139 26 139 150v389v5q0 25 -10 25h-783 q-7 0 -8.5 -4t-1.5 -18v-379q0 -64 45.5 -110t116.5 -58q67 -11 67 -37q0 -22 -59 -22q-58 0 -126.5 5t-113.5 5q-41 0 -104 -5t-121 -5q-59 0 -59 22z" />
<glyph unicode="I" horiz-adv-x="696" d="M39 12q0 26 67 37q81 14 120.5 48.5t39.5 103.5v925q0 71 -30 102.5t-107 45.5q-68 12 -68 41q0 22 60 22q58 0 126 -3t113 -3q41 0 103.5 3t120.5 3q59 0 59 -22q0 -29 -68 -41q-79 -14 -112 -46t-33 -102v-925q0 -69 40.5 -103.5t121.5 -48.5q67 -11 67 -37 q0 -22 -59 -22q-58 0 -126.5 5t-113.5 5q-50 0 -127.5 -5t-134.5 -5q-59 0 -59 22z" />
<glyph unicode="J" horiz-adv-x="614" d="M-141 -324q0 42 22.5 77.5t50.5 35.5q39 0 61.5 -12t41.5 -41q40 -60 96 -60q135 0 135 324v1128q0 69 -30 100.5t-105 45.5q-68 12 -68 41q0 22 60 22q58 0 126 -3t113 -3q34 0 83.5 3t109.5 3q59 0 59 -22q0 -30 -67 -41q-74 -13 -95.5 -42.5t-21.5 -103.5v-837 q0 -125 -7 -217.5t-13.5 -142t-26 -96.5t-27 -59t-34.5 -50q-94 -136 -252 -136q-95 0 -153 26t-58 60z" />
<glyph unicode="K" horiz-adv-x="1394" d="M63 12q0 25 68 37q77 14 107 48t30 110v921q0 70 -30 101t-107 45q-68 12 -68 41q0 22 60 22q58 0 122.5 -2t106.5 -2q35 0 87 2t112 2q59 0 59 -22q0 -30 -67 -41q-71 -12 -91 -45t-20 -101v-383q0 -38 10 -38t27.5 11.5t28.5 24.5l409 418q31 31 31 62q0 38 -39 47 q-35 9 -49 18t-14 23q0 22 59 22h111q70 0 199.5 4t131.5 4q45 0 45 -22q0 -30 -67 -41q-192 -34 -311 -135q-206 -175 -394 -383q-13 -13 11 -37l495 -528q71 -80 106.5 -104t118.5 -42q68 -14 68 -37q0 -22 -59 -22q-62 0 -146 5t-139 5q-20 0 -67.5 -1t-98.5 -1 q-59 0 -59 22q0 24 55 35q57 14 57 41q0 17 -30 51l-435 480q-35 35 -47 35q-8 0 -8 -44q0 -120 10 -393q3 -74 31.5 -118.5t99.5 -57.5q68 -12 68 -37q0 -22 -59 -22q-60 0 -113 7t-88 7q-49 0 -125 -7t-133 -7q-60 0 -60 22z" />
<glyph unicode="L" horiz-adv-x="1196" d="M55 14q0 24 45 35q84 16 125 49.5t41 98.5v950q0 71 -22.5 92t-102.5 35q-67 11 -67 41q0 22 59 22q58 0 122.5 -3t106.5 -3q49 0 125.5 3t133.5 3q59 0 59 -22q0 -29 -68 -41q-39 -7 -59 -11t-48 -13t-41.5 -20t-23.5 -28.5t-10 -40.5v-964q0 -68 31 -96.5t127 -28.5 h299q12 0 51 15.5t63 37.5q41 36 61 63.5t46 81.5q7 20 20 41t25 21q11 0 18 -12t7 -25q0 -2 -1 -5.5t-1 -4.5q-48 -176 -56 -260q-4 -35 -28 -35q-146 0 -377.5 5t-325.5 5q-45 0 -114 -2.5t-115 -5.5l-47 -2q-58 0 -58 24z" />
<glyph unicode="M" horiz-adv-x="1845" d="M39 12q0 26 67 37q35 6 61.5 27.5t39.5 50.5t18 47t8 35q84 633 84 893q0 11 -1 26.5t-1 20.5q0 30 -30 65q-12 13 -27.5 23.5t-37 18t-35 11.5t-39.5 10t-31 7q-29 10 -29 35q0 22 47 22q41 0 178.5 -8t161.5 -8q16 0 29.5 -33t26 -87t18.5 -70l323 -822q12 -30 25 -30 q11 0 23 24l403 840q12 26 20.5 73.5t16 77t20.5 29.5h74q50 0 131 8t96 8h7q43 0 43 -20q0 -15 -19.5 -28.5t-34.5 -18.5q-31 -9 -45.5 -13.5t-43.5 -16t-43 -21.5t-26 -26.5t-12 -35.5q0 -171 7 -331t20 -354.5t18 -282.5q3 -63 40 -97.5t114 -48.5q68 -12 68 -37 q0 -22 -60 -22q-58 0 -126 5t-113 5q-39 0 -98 -5t-118 -5t-59 22q0 28 68 37q59 7 81.5 40.5t22.5 107.5q0 105 -2.5 212t-4.5 163.5t-8.5 193t-8.5 184.5q0 33 -11 33q-5 0 -22 -33l-455 -921q-22 -49 -35 -49q-11 0 -28 53q-73 220 -153 421t-214 511q-9 22 -16.5 22.5 t-10.5 -22.5q-25 -186 -35.5 -272t-20 -219t-9.5 -265q0 -30 11.5 -61t43.5 -61t78 -38q68 -12 68 -37q0 -22 -60 -22t-109 5t-83 5q-32 0 -79.5 -5t-107.5 -5q-59 0 -59 22z" />
<glyph unicode="N" horiz-adv-x="1576" d="M4 1319q0 29 47 29q67 -2 151 -6.5t165 -4.5q12 0 22 -6t13 -10t14 -18q27 -37 385 -488.5t395 -495.5q33 -40 51 -40t21 43q4 132 4 655v178q-1 37 -41.5 71.5t-77.5 41.5q-68 12 -68 41q0 22 60 22h117q46 0 107.5 3t127.5 3q59 0 59 -22q0 -30 -67 -41 q-75 -13 -101 -36t-28 -75q-4 -98 -4 -1147q0 -51 -43 -51q-24 0 -72.5 34t-93.5 95q-24 33 -337.5 417.5t-391.5 479.5q-26 33 -43 33q-19 0 -19 -43q-10 -508 -10 -768q0 -141 131 -164q68 -12 68 -37q0 -22 -60 -22t-109 5t-83 5q-32 0 -79.5 -5t-107.5 -5q-59 0 -59 22 q0 13 15.5 21t52.5 18q105 27 118 168q37 356 37 819q0 101 -49.5 150t-152.5 82q-10 3 -22.5 8.5t-27 17.5t-14.5 23z" />
<glyph unicode="O" horiz-adv-x="1562" d="M92 655q0 112 29 215.5t88 193t142.5 155.5t198.5 103.5t249 37.5q133 0 255 -49.5t214 -136t147 -214t55 -274.5q0 -140 -45.5 -267.5t-129.5 -228t-217 -160t-296 -59.5q-134 0 -260 53t-221 142.5t-152 218t-57 270.5zM291 717q0 -175 65.5 -327t185.5 -245.5 t267 -93.5q226 0 344.5 153t118.5 421q0 196 -57 342.5t-171.5 229.5t-275.5 83q-88 0 -165.5 -31t-133.5 -84.5t-97 -125t-61 -154t-20 -168.5z" />
<glyph unicode="P" horiz-adv-x="1130" d="M49 12q0 25 68 37q79 14 114 48.5t35 107.5v864q0 98 -26 145t-99 60q-67 11 -67 41q0 22 59 22t110.5 -1t90.5 -1q44 0 123 6.5t104 6.5q232 0 379 -98.5t147 -262.5q0 -96 -29.5 -179.5t-85.5 -148t-146.5 -102t-204.5 -37.5q-41 0 -67 12.5t-26 26.5q0 7 11 15t22 8 q1 0 31 -5.5t63 -5.5q248 0 248 367q0 180 -92 266t-250 86q-131 0 -131 -86v-977q0 -77 31.5 -121t105.5 -57q68 -12 68 -37q0 -22 -60 -22t-112.5 7t-87.5 7q-51 0 -130.5 -7t-135.5 -7q-60 0 -60 22z" />
<glyph unicode="Q" horiz-adv-x="1650" d="M92 629q0 201 93 367t261 263t377 97q109 0 214 -26t199.5 -79.5t166.5 -128.5t114 -179.5t42 -225.5q0 -101 -19.5 -191t-52 -158t-77.5 -127t-93.5 -100t-103 -73.5t-101.5 -52t-94 -31.5q-29 -7 -29 -19q0 -10 8 -18q57 -61 110 -106t136 -105q102 -73 190 -101 t209 -28q84 0 115 14q24 8 39 8q23 0 23 -16q0 -19 -7 -29.5t-30 -23.5q-118 -68 -240 -68q-138 0 -241 38t-211 116q-167 120 -324 243q-31 25 -121 75t-115 56q-49 13 -105.5 46t-116 88.5t-107.5 124.5t-78.5 161t-30.5 189zM285 725q0 -132 46 -258.5t124 -224 t190 -157.5t236 -60q90 0 169 39t135.5 103.5t97.5 147.5t61 172.5t20 176.5q0 117 -44 229t-120 198t-185 138.5t-231 52.5q-110 0 -204.5 -47t-158.5 -124.5t-100 -178t-36 -207.5z" />
<glyph unicode="R" horiz-adv-x="1411" d="M49 12q0 25 68 37q79 14 114 48.5t35 107.5v864q0 98 -26 145t-99 60q-67 11 -67 41q0 22 59 22t110.5 -1t90.5 -1q34 0 102 5.5t133 5.5q226 0 343.5 -85t117.5 -251q0 -222 -242 -344q-14 -6 0 -27q138 -209 200 -289q97 -124 216 -231q50 -43 101 -55.5t135 -12.5 q30 0 30 -22q0 -21 -18 -36t-46 -22.5t-53 -10.5t-48 -3q-95 0 -163.5 24.5t-119.5 86.5q-12 14 -55 66.5t-59.5 74t-52.5 69t-69.5 99t-74.5 117.5q-32 52 -88 79q-72 35 -162 45q-31 3 -31 -40v-353q0 -152 137 -176q68 -12 68 -37q0 -22 -60 -22t-112.5 7t-87.5 7 q-51 0 -130.5 -7t-135.5 -7q-60 0 -60 22zM430 745q0 -47 24.5 -59t84.5 -12q136 0 221.5 90t85.5 213q0 54 -6.5 96t-24.5 83t-48.5 68t-80.5 43.5t-117 16.5q-77 0 -103 -28t-28 -82q-8 -200 -8 -429z" />
<glyph unicode="S" horiz-adv-x="952" d="M84 287q0 16 13.5 37.5t29.5 21.5q20 0 61 -135q28 -89 100.5 -132.5t168.5 -43.5q114 0 174.5 63t60.5 172q0 172 -311 381q-124 83 -192 168.5t-68 198.5q0 138 116 240t295 102q58 0 114 -10t90.5 -20.5t39.5 -10.5q12 0 21.5 -14.5t13.5 -32.5q1 -4 5.5 -32t8.5 -70 t4 -70q0 -51 -14 -51q-28 0 -47.5 16.5t-24.5 40.5q-15 87 -78 136.5t-151 49.5q-99 0 -167 -60.5t-68 -160.5q0 -44 24.5 -88t67.5 -82.5t81 -66t86 -58.5l4.5 -3t4 -2.5t4.5 -2.5q41 -27 78 -55t82 -72.5t77 -89.5t54 -104t22 -119q0 -65 -24.5 -126.5t-73 -115 t-133.5 -86.5t-195 -33q-167 0 -274 49q-35 16 -43 35q-16 33 -26.5 104.5t-10.5 131.5z" />
<glyph unicode="T" horiz-adv-x="1372" d="M55 1106q0 19 11 41q44 94 63 227q6 47 35 47q7 0 24 -22.5t27 -42.5q11 -20 53 -30.5t90 -10.5h781q78 0 118 28q15 10 36.5 30.5t37 32t29.5 11.5q6 0 10 -15.5t4 -31.5q0 -3 -1 -9.5t-1 -8.5q-33 -139 -33 -203v-25q0 -22 -9 -43.5t-23 -21.5t-22.5 20t-16.5 64 q-16 94 -189 94h-194q-78 0 -96.5 -15.5t-18.5 -78.5v-934q0 -71 41 -108.5t121 -51.5q67 -11 67 -37q0 -22 -59 -22q-58 0 -126.5 5t-113.5 5q-50 0 -127.5 -5t-134.5 -5q-59 0 -59 22q0 26 67 37q80 14 120 51.5t40 108.5v932q0 81 -37 88q-39 8 -151 8h-96 q-53 0 -100 -21t-68 -59q-12 -24 -37.5 -51t-46.5 -27q-15 0 -15 27z" />
<glyph unicode="U" horiz-adv-x="1511" d="M49 1315q0 22 60 22q29 0 92.5 -3t103.5 -3q34 0 89.5 2t74.5 2q59 0 59 -22q0 -13 -15 -21t-52 -20q-29 -9 -57.5 -50.5t-28.5 -97.5v-575q0 -237 117 -356t313 -119q204 0 305.5 142t101.5 390q0 125 -8 441q-2 85 -23 148.5t-61 74.5q-67 18 -67 41q0 22 59 22 q31 0 78 -1t76 -1q35 0 90 3t76 3q59 0 59 -22q0 -27 -68 -41q-95 -19 -102 -154q-6 -106 -10 -208t-6.5 -224.5t-4.5 -175.5q-5 -156 -76 -280t-192 -192.5t-270 -68.5q-269 0 -410 140t-141 381v628q0 67 -27 103t-67 47q-68 17 -68 45z" />
<glyph unicode="V" horiz-adv-x="1376" d="M0 1315q0 22 59 22q28 0 113.5 -3t136.5 -3q46 0 120 2t89 2q60 0 60 -22q0 -29 -68 -41q-49 -10 -89 -34t-40 -50q0 -12 6.5 -47t11.5 -49l260 -689q20 -57 37 -57q14 0 37 57l289 717q3 6 9.5 33t6.5 33q0 22 -45 46.5t-92 37.5q-67 18 -67 41q0 22 59 22q23 0 92 -1 t111 -1q43 0 126.5 3t106.5 3q60 0 60 -22q0 -27 -68 -41q-70 -16 -122.5 -66.5t-78.5 -111.5l-385 -934q-1 -4 -9.5 -30t-17.5 -50.5t-20 -51.5t-22 -44t-19 -17q-10 0 -61 146l-375 1005q-47 122 -143 150q-68 21 -68 45z" />
<glyph unicode="W" horiz-adv-x="1875" d="M0 1315q0 22 59 22q31 0 89 -3t94 -3q42 0 108 2t82 2q60 0 60 -22q0 -24 -68 -41q-41 -10 -41 -68q0 -19 4 -41t8 -35l4 -12q159 -406 336 -805q18 -40 31 -2l160 396q12 30 12 47q0 16 -16 59l-117 291q-25 62 -81 106.5t-114 61.5q-67 21 -67 45q0 22 59 22 q30 0 92.5 -3t100.5 -3q33 0 86 2t71 2q60 0 60 -22q0 -12 -13 -22t-29 -16.5t-29 -19t-13 -28.5q0 -5 4 -17q6 -20 42.5 -111.5t49.5 -119.5q12 -27 18 -27q7 0 19 27q45 100 82 231q2 6 2 15q0 16 -12 29t-26 20t-26 17t-12 22q0 22 59 22q32 0 61 -2t46 -2q23 0 59.5 3 t61.5 3q59 0 59 -22q0 -27 -67 -41q-62 -14 -86.5 -32.5t-53.5 -65.5q-37 -63 -108 -252q-15 -38 -15 -64q0 -10 2 -14l211 -543q9 -20 23 12q76 202 250 793q12 37 12 74q0 72 -61 88q-68 19 -68 41t59 22q27 0 74.5 -1t73.5 -1q36 0 98.5 3t85.5 3q60 0 60 -22 q0 -27 -68 -41q-107 -25 -168 -180l-330 -975q-51 -144 -65 -144q-7 0 -18 12.5t-17 26.5q-48 108 -88 208t-85 220t-79 205q-8 17 -14 7l-8 -19q-119 -281 -234 -604q-9 -25 -21.5 -44.5t-23.5 -19.5q-8 0 -29 58l-442 1110q-51 107 -147 135q-68 21 -68 45z" />
<glyph unicode="X" horiz-adv-x="1447" d="M-10 12q0 24 67 45q63 18 148.5 71.5t144.5 125.5l256 319q37 50 37 76q0 13 -4 17l-297 417q-69 97 -121.5 135t-116.5 56q-67 21 -67 45q0 22 59 22q30 0 134 -5t159 -5q47 0 118.5 2t84.5 2q59 0 59 -22q0 -13 -14.5 -21.5t-52.5 -19.5q-42 -12 -59.5 -18.5t-31.5 -18 t-14 -27.5q0 -32 68 -127l186 -262q22 -31 33 -31q10 0 29 25l219 289q53 66 53 104q0 47 -92 64q-25 5 -46.5 17t-21.5 24q0 22 60 22q23 0 78.5 -1t87.5 -1q43 0 126 6t107 6q59 0 59 -22q0 -24 -67 -41q-52 -13 -116 -74t-150 -162l-236 -278q-37 -43 -37 -61q0 -5 8 -21 l318 -457q46 -68 103.5 -113.5t115.5 -60.5q68 -17 68 -41q0 -22 -60 -22q-24 0 -132 6t-161 6q-46 0 -118.5 -1t-92.5 -1q-59 0 -59 23q0 21 68 40q35 10 62.5 36t27.5 61q0 32 -25 67l-213 310q-14 21 -24.5 22.5t-20.5 -12.5l-276 -357q-19 -25 -19 -47q0 -29 25 -51 t67 -31q68 -17 68 -41q0 -22 -60 -22q-14 0 -77 2t-105 2q-49 0 -138 -6t-120 -6q-59 0 -59 22z" />
<glyph unicode="Y" horiz-adv-x="1183" d="M0 1315q0 22 59 22q26 0 107.5 -3t132.5 -3q34 0 89.5 2t74.5 2q59 0 59 -22q0 -26 -67 -41q-34 -9 -50 -19.5t-16 -31.5q0 -25 27 -74l188 -338q26 -45 38 -61.5t20 -16.5q11 0 23.5 15.5t43.5 62.5q74 113 172 285q37 62 37 104q0 59 -84 72q-23 3 -45.5 15.5 t-22.5 25.5q0 22 60 22q31 0 77.5 -1t75.5 -1q47 0 120.5 3t92.5 3q60 0 60 -22q0 -20 -109 -51q-26 -7 -46.5 -19.5t-44.5 -41.5t-38.5 -50t-50.5 -76q-121 -185 -227 -368q-36 -63 -43.5 -92t-7.5 -93v-303q0 -69 42 -113.5t119 -58.5q68 -12 68 -37q0 -22 -60 -22 q-58 0 -126 5t-113 5q-50 0 -127.5 -5t-134.5 -5q-60 0 -60 22q0 25 68 37q160 28 160 172v303q0 58 -52 152l-239 393q-115 182 -182 201q-68 21 -68 45z" />
<glyph unicode="Z" horiz-adv-x="1234" d="M57 23q0 14 39 74.5t80 115.5q33 44 111 150.5t107 146.5t91 125.5t97 136t88.5 127t102.5 149.5t104 156q8 12 8 17q0 13 -39 16q-148 4 -299 4q-158 0 -209 -4q-57 -3 -109.5 -37.5t-78.5 -103.5q-26 -66 -58 -66q-18 0 -18 23q0 18 14 55q47 146 55 227q2 35 31 35 q15 0 51 -29q21 -16 150 -16q106 -2 297 -2q245 0 473 6q9 0 18.5 -15t3.5 -22l-125 -166q-173 -233 -256.5 -347t-198.5 -280.5t-237 -355.5q-6 -9 -6 -24q0 -13 6.5 -23.5t16.5 -11.5q98 -10 231 -10q129 0 289 10q78 6 145.5 58t108.5 149q5 15 18 29t27 14q18 0 18 -27 q0 -19 -30 -133.5t-46 -148.5q-15 -29 -27 -34q-4 -1 -9 -1q-123 0 -328.5 3t-290.5 3q-41 0 -123 -1t-121 -1h-157q-5 0 -9 7t-5 15z" />
<glyph unicode="[" horiz-adv-x="763" d="M229 -358v1726q0 50 12.5 60t65.5 10l338 -2q37 0 37 -27t-53 -31l-221 -12q-24 0 -52 -30t-28 -58v-1493q0 -40 21 -68.5t50 -31.5l230 -27q53 -8 53 -37q0 -31 -53 -31h-336q-38 0 -51 8.5t-13 43.5z" />
<glyph unicode="\" d="M57 1335q0 10 9 18.5t20 8.5q64 0 80 -35l608 -1423q0 -1 1 -3t1 -3q0 -10 -11 -17.5t-24 -7.5q-60 0 -73 31l-609 1423q0 1 -1 4t-1 4z" />
<glyph unicode="]" horiz-adv-x="763" d="M74 -379q0 29 53 37l229 27q29 3 50.5 31.5t21.5 68.5v1493q0 28 -28 58t-52 30l-221 12q-53 4 -53 31t37 27l338 2q52 0 64.5 -10t12.5 -60v-1726q0 -35 -12.5 -43.5t-50.5 -8.5h-336q-53 0 -53 31z" />
<glyph unicode="^" horiz-adv-x="1024" d="M98 604q0 12 6 21q52 87 200 306t208 304q315 -452 408 -610q6 -9 6 -21q0 -9 -5.5 -15.5t-13.5 -6.5h-4q-57 14 -76 36q-26 28 -73 92.5t-83 117.5t-90 134t-61 91q-8 9 -11 9t-9 -9q-8 -11 -63 -94t-93 -138t-83 -118.5t-64 -84.5q-23 -23 -76 -36h-4q-8 0 -13.5 6.5 t-5.5 15.5z" />
<glyph unicode="_" horiz-adv-x="1024" d="M0 -348q0 22 12.5 50t36.5 28h948q10 0 19.5 -7t9.5 -16q0 -1 -1 -3t-1 -3q-9 -25 -13.5 -36.5t-18 -24.5t-31.5 -13h-932q-10 0 -19.5 8t-9.5 17z" />
<glyph unicode="`" horiz-adv-x="571" d="M82 1303q0 22 22 39.5t50 17.5q68 0 102 -55q46 -75 118 -207t72 -152q0 -26 -26 -26q-23 0 -55 45q-69 96 -142.5 175t-107 113t-33.5 50z" />
<glyph unicode="a" d="M72 133q0 123 149 184l209 86q39 17 47 28.5t10 53.5l5 131v6q0 50 -32 87q-34 39 -89 39q-35 0 -73.5 -21.5t-51.5 -44.5q-8 -13 -8 -39q0 -5 1 -14.5t1 -14.5q0 -20 -58.5 -45.5t-83.5 -25.5q-16 0 -16 18q0 69 82 141q59 54 145 100t160 46q72 0 121 -54 q47 -51 47 -122v-6l-10 -443q0 -157 73 -157q50 0 82 28q9 9 21 1.5t12 -19.5q0 -9 -24 -34t-64.5 -48t-75.5 -23q-33 0 -59 11t-40.5 26.5t-24.5 31.5t-16.5 27t-10.5 11q-8 0 -28 -16.5t-45 -36.5t-73.5 -36.5t-105.5 -17.5q-63 0 -119.5 51t-56.5 111zM236 178 q0 -53 32.5 -82.5t67.5 -29.5q60 0 123 55q22 18 24 82l4 100v10q0 33 -18 33q-14 0 -29 -6q-109 -37 -156.5 -79.5t-47.5 -82.5z" />
<glyph unicode="b" horiz-adv-x="1054" d="M41 1335q0 21 14 25q47 11 86 24.5t85.5 33t60.5 24.5q1 0 2 1t2 1q4 0 8 -4.5t4 -9.5q0 -1 -1.5 -32t-3 -82t-1.5 -102v-419q0 -20 0.5 -29t2 -19.5t5 -14.5t10.5 -5q70 59 154.5 90t144.5 31q158 0 263.5 -118t105.5 -286q0 -92 -28 -175.5t-82 -150.5t-142.5 -107 t-200.5 -40q-56 0 -124 15t-117 30t-58 15q-14 0 -35 -18.5t-24 -18.5q-12 0 -22.5 7.5t-10.5 16.5q0 1 1.5 11.5t3.5 28.5t4.5 41t4 54.5t1.5 61.5v944q0 58 -24 99t-73 51q-16 3 -16 26zM297 270q0 -103 84.5 -169t196.5 -66q115 0 183 102.5t68 261.5q0 62 -18 124.5 t-51.5 117t-90 89t-126.5 34.5q-50 0 -111 -19t-92 -53q-23 -25 -33 -61t-10 -113v-248z" />
<glyph unicode="c" horiz-adv-x="772" d="M72 369q0 126 54.5 235t155 175.5t222.5 66.5q167 0 246 -98q10 -13 10 -25q0 -24 -30 -47t-48 -23q-30 0 -51 21q-55 60 -88 78t-105 18q-71 0 -124 -46.5t-77 -114.5t-24 -146q0 -99 39.5 -186.5t115.5 -143t171 -55.5q62 0 100 23t80 79q10 10 18 10q9 0 17 -9t8 -19 q0 -38 -47 -82.5t-128 -76.5t-165 -32q-101 0 -182 55.5t-124.5 146t-43.5 196.5z" />
<glyph unicode="d" horiz-adv-x="1036" d="M72 389q0 90 32 172.5t90 146.5t146 102t192 38q40 0 95 -16t65 -27q15 -19 21 -19q8 0 8 50v323q0 79 -24 109t-81 41q-16 3 -16 26q0 22 14 25q64 15 121.5 36t87.5 33.5t41 12.5q12 0 15 -12q0 -6 -3.5 -38.5t-7.5 -96t-4 -144.5v-926q0 -68 9.5 -100.5t33.5 -32.5 q64 0 94 6q10 2 20.5 -3.5t10.5 -22.5q0 -15 -9 -22t-19 -7q-109 -14 -240 -70q-24 -12 -49 -12q-5 0 -5.5 1t-0.5 4v3q0 13 5 65t5 70v13q-38 -58 -107 -102t-161 -44q-112 0 -200.5 62t-133.5 156.5t-45 199.5zM223 436q0 -64 12 -118t32 -91.5t47 -67t55 -47t58 -29 t54 -16t45 -4.5q84 0 139.5 54t55.5 129v276q0 44 -17.5 88.5t-48.5 81.5t-79.5 60.5t-106.5 23.5q-27 0 -56.5 -8.5t-64.5 -32.5t-62 -60.5t-45 -98.5t-18 -140z" />
<glyph unicode="e" horiz-adv-x="794" d="M61 416q0 114 53 213.5t147.5 159t207.5 59.5q123 0 193.5 -51.5t70.5 -134.5q0 -92 -43 -113q-48 -23 -115 -23h-335q-28 0 -40 -13.5t-12 -61.5q0 -143 88 -250t222 -107q48 0 102 21.5t90 68.5q15 15 23 15q10 0 13 -14.5t-1 -26.5q-8 -29 -32.5 -60t-63 -60 t-97.5 -48t-126 -19q-144 0 -244.5 123t-100.5 322zM227 621q0 -31 39 -31h168q96 0 150 10q20 3 20 57q0 58 -51.5 92.5t-116.5 34.5q-79 0 -144 -58.5t-65 -104.5z" />
<glyph unicode="f" horiz-adv-x="651" d="M49 12q0 21 47 37q88 26 88 90v578q-63 0 -106 4q-7 2 -18 14.5t-11 22.5q0 5 14 12q28 7 46.5 15t41.5 20.5t33 17.5q0 136 30 246t77 178.5t108.5 115t120 65t115.5 18.5q225 0 225 -123q0 -34 -20.5 -58t-48.5 -24q-17 0 -39 19t-43 41.5t-63.5 41.5t-96.5 19 q-101 0 -161 -95.5t-60 -293.5v-109q0 -45 51 -45h246q8 0 8 -22q0 -24 -8.5 -50t-18.5 -26h-196q-51 0 -66.5 -8.5t-15.5 -26.5v-547q0 -64 88 -90q47 -16 47 -37q0 -18 -41 -18q-42 0 -84.5 5t-77.5 5t-81.5 -5t-88.5 -5q-41 0 -41 18z" />
<glyph unicode="g" horiz-adv-x="890" d="M23 -360q0 64 32 110t68 66q39 25 57.5 38t45 36.5t40.5 46.5q-30 6 -59 17t-58.5 28.5t-48 45.5t-18.5 62q0 39 47 76q12 9 39.5 25t47.5 32t34 37q-12 3 -38 23.5t-56.5 54t-53 85.5t-22.5 105q0 139 106 231.5t250 92.5q53 0 121.5 -24.5t97.5 -30.5q47 -9 109 -9 q18 0 59 3.5t49 3.5q19 0 19 -45q0 -35 -19 -35q-40 0 -65 -2t-32 -5t-14.5 -6t-15.5 -4q-8 -23 -8 -94q0 -158 -98.5 -272.5t-235.5 -114.5q-20 0 -54.5 6.5t-55.5 18.5q-90 -69 -90 -101q0 -20 20.5 -36t53.5 -25.5t62.5 -14.5t59.5 -8q221 -21 299 -44q132 -38 153 -128 q5 -20 5 -43q0 -108 -71 -211t-177 -164t-209 -61q-55 0 -105.5 7t-101 24t-87 43t-59.5 67t-23 93zM168 -274q0 -104 70.5 -171t189.5 -67q123 0 213 82t90 207q0 35 -28 64.5t-63 45t-73 23.5q-75 15 -200 20q-4 0 -15 1t-19.5 1t-13.5 -2q-22 -14 -102 -94 q-49 -57 -49 -110zM227 553q0 -101 56.5 -182.5t140.5 -81.5q75 0 127.5 76t52.5 178q0 97 -55.5 172.5t-138.5 75.5q-81 0 -132 -77.5t-51 -160.5z" />
<glyph unicode="h" horiz-adv-x="1054" d="M39 12q0 21 47 37q26 8 42 15t30.5 25t15.5 44v1026q0 132 -92 150q-16 3 -16 26q0 21 14 25q36 9 72.5 20.5t59 20t56.5 22t49 19.5l5 2q4 0 6 -1.5t5 -6.5l3 -6q0 -5 -5 -30.5t-9.5 -88.5t-4.5 -160v-356q0 -56 17 -76q173 129 309 129q100 0 167 -79.5t67 -199.5v-430 q0 -65 84 -90q47 -16 47 -37q0 -18 -41 -18q-42 0 -83.5 5t-76.5 5t-76.5 -5t-83.5 -5q-41 0 -41 18q0 21 47 37q80 23 80 90v418q0 74 -60.5 129t-129.5 55q-43 0 -93 -11.5t-77 -33.5q-33 -27 -44.5 -56t-11.5 -91v-416q1 -38 21 -55.5t57 -28.5q47 -16 47 -37 q0 -18 -41 -18q-42 0 -81 5t-74 5t-79.5 -5t-86.5 -5q-41 0 -41 18z" />
<glyph unicode="i" horiz-adv-x="501" d="M49 12q0 21 47 37q55 16 71 32q17 18 17 46v444q0 131 -96 150q-16 3 -16 27q0 20 14 24q60 14 118 43.5t90.5 51.5t37.5 22q14 0 14 -10q-18 -189 -18 -277v-475q0 -16 6 -28.5t12 -19t22 -14t22 -9t26 -7.5q47 -16 47 -37q0 -18 -41 -18q-40 0 -85.5 5t-80.5 5t-80 -5 t-86 -5t-41 18zM135 1157q0 44 30 74.5t73 30.5q44 0 74 -30.5t30 -74.5q0 -43 -30 -72.5t-74 -29.5q-43 0 -73 29.5t-30 72.5z" />
<glyph unicode="j" horiz-adv-x="434" d="M-72 -567q0 10 9 21t14 14q83 20 135 129q59 125 59 544v430q0 131 -94 150q-16 3 -16 27q0 20 14 24q60 14 118 43.5t90.5 51.5t37.5 22q14 0 14 -10q-14 -147 -14 -316v-377q0 -325 -62 -497q-38 -105 -119.5 -191t-142.5 -86q-13 0 -28 6t-15 15zM104 1155 q0 44 30 74.5t73 30.5q44 0 74 -30.5t30 -74.5q0 -43 -30 -72.5t-74 -29.5q-43 0 -73 29.5t-30 72.5z" />
<glyph unicode="k" horiz-adv-x="960" d="M39 12q0 21 47 37q26 8 42 15t31 25t15 44v1026q0 72 -21.5 105.5t-72.5 44.5q-17 3 -17 26q0 21 15 25q36 9 74 20.5t59 19.5t59 23t49 19q1 0 2.5 1t2.5 1q4 0 8 -6.5t4 -12.5q0 -8 -5 -41.5t-9.5 -94.5t-4.5 -138v-678q0 -10 3 -13t10 -1q29 6 71 43q79 68 147 136 t87 95q2 2 2 6q0 10 -15.5 20t-37.5 15q-25 8 -25 17q0 11 10.5 18t19 9t15.5 1h101q44 0 116 12t80 13q5 0 11 -4.5t6 -10.5q0 -12 -13.5 -26t-27.5 -17q-62 -12 -144 -63q-45 -27 -262 -217q-8 -6 -10 -17.5t4 -17.5q73 -89 168 -191.5t133 -136.5q32 -30 83 -59t85 -39 q47 -16 47 -37q0 -18 -41 -18q-50 0 -178 5t-195 5q-47 0 -47 18q0 14 14 24t31 14.5t31 14t14 23.5q0 12 -14 29l-258 297q-4 5 -12.5 2t-8.5 -14q-2 -39 -2 -132q0 -96 2 -143q0 -38 18 -56t54 -28q47 -16 47 -37q0 -18 -47 -18q-41 0 -74.5 5t-68.5 5t-77 -5t-83 -5 q-47 0 -47 18z" />
<glyph unicode="l" horiz-adv-x="491" d="M39 12q0 21 47 37q55 16 71 32q17 18 17 46v1032q0 131 -94 150q-17 3 -17 26q0 21 15 25q36 9 72.5 20.5t59 20t56.5 22t49 19.5q1 0 2 1t2 1q4 0 8.5 -4.5t4.5 -9.5q0 -6 -4 -38.5t-7.5 -96t-3.5 -144.5v-1024q0 -19 6 -32t22 -22t24 -12t31 -10q4 -1 6 -2 q47 -16 47 -37q0 -18 -41 -18t-86 5t-80 5t-80 -5t-86 -5t-41 18z" />
<glyph unicode="m" horiz-adv-x="1593" d="M49 12q0 21 47 37q55 16 71 32q17 18 17 46v440q0 65 -16 101.5t-64 46.5q-16 3 -16 26q0 21 14 25q26 6 50 14.5t40 15.5t38.5 20t32 19t35 23.5t32.5 22.5q5 0 9.5 -4.5t4.5 -10.5t-5 -57.5t-5 -73.5q0 -20 4 -24q145 137 324 137q73 0 118 -29.5t72 -93.5 q10 -22 20.5 -20.5t38.5 28.5q47 45 126 80t169 35q95 0 150 -85t55 -200v-436q0 -16 6 -28.5t12 -19t22 -14t22 -9t26 -7.5q47 -16 47 -37q0 -18 -41 -18q-42 0 -84.5 5t-77.5 5t-81 -5t-88 -5q-41 0 -41 18q0 21 47 37q55 16 71 32q17 18 17 46v430q0 75 -49.5 135 t-114.5 60q-108 0 -178 -56q-23 -16 -40.5 -53.5t-17.5 -93.5v-422q0 -24 14.5 -40t30 -22.5t40.5 -13.5q5 -1 8 -2q47 -16 47 -37q0 -18 -41 -18q-42 0 -87.5 5t-80.5 5t-81.5 -5t-88.5 -5q-41 0 -41 18q0 21 47 37q56 16 72 32q18 18 18 46v430q0 75 -49.5 135t-114.5 60 q-108 0 -178 -56q-55 -40 -55 -147v-422q0 -16 6 -28.5t12 -19t22 -14t22 -9t26 -7.5q47 -16 47 -37q0 -18 -41 -18q-42 0 -86.5 5t-79.5 5t-79.5 -5t-86.5 -5q-41 0 -41 18z" />
<glyph unicode="n" horiz-adv-x="1081" d="M49 12q0 21 47 37q55 16 71 32q17 18 17 46v440q0 65 -16 101.5t-64 46.5q-16 3 -16 26q0 21 14 25q26 6 50 14.5t40 15.5t38.5 20t32 19t35 23.5t32.5 22.5q5 0 9.5 -4.5t4.5 -10.5t-5 -57.5t-5 -73.5q0 -20 4 -24q143 137 330 137q99 0 165 -82t66 -203v-436 q0 -16 6 -28.5t12 -19t22 -14t22 -9t26 -7.5q47 -16 47 -37q0 -18 -41 -18q-42 0 -85.5 5t-78.5 5t-80 -5t-87 -5q-41 0 -41 18q0 21 47 37q55 16 71 32q17 18 17 46v430q0 88 -50.5 139.5t-134.5 53.5q-121 0 -188 -54q-55 -40 -55 -147v-422q0 -16 6 -28.5t12 -19t22 -14 t22 -9t26 -7.5q47 -16 47 -37q0 -18 -41 -18q-42 0 -86.5 5t-79.5 5t-79.5 -5t-86.5 -5q-41 0 -41 18z" />
<glyph unicode="o" horiz-adv-x="1013" d="M72 383q0 113 58.5 220t163 176t226.5 69q87 0 166 -33.5t134.5 -89.5t88.5 -131.5t33 -157.5q0 -92 -30 -174.5t-86 -148t-146 -104t-201 -38.5q-173 0 -290 116.5t-117 295.5zM240 430q0 -102 35.5 -192.5t101.5 -147.5t145 -57q154 0 211 112q41 78 41 242 q0 99 -35 189t-102.5 149t-151.5 59q-59 0 -102 -18.5t-78 -63.5q-65 -83 -65 -272z" />
<glyph unicode="p" horiz-adv-x="1062" d="M39 -565q0 21 47 37q55 16 70 31q18 18 18 46v1039q0 19 -8.5 49t-31.5 62t-54 38q-7 1 -12 9.5t-5 17.5q0 20 15 24q89 21 237 82q1 0 2 1t2 1q4 0 8.5 -6t4.5 -12q0 -12 -5 -59t-5 -64q0 -16 2 -18q39 39 142 87t189 48q101 0 179.5 -57t117.5 -144t39 -186 q0 -122 -60.5 -234.5t-168 -184t-232.5 -71.5q-46 0 -110.5 20t-93.5 46q-4 0 -6.5 -42.5t-2.5 -62.5v-383q0 -16 7.5 -28t24 -20t27 -12t33.5 -10t27 -7q47 -16 47 -37q0 -19 -45 -19q-41 0 -99 5.5t-93 5.5t-79 -5.5t-85 -5.5q-43 0 -43 19zM317 420q0 -76 5 -184 q6 -109 49 -150q55 -51 190 -51q26 0 58.5 10.5t69.5 37.5t67.5 66.5t50.5 103.5t20 142q0 90 -21 158t-51 105.5t-70.5 60.5t-72.5 30t-63 7q-98 0 -176 -60q-49 -36 -54 -145q0 -16 -1 -60.5t-1 -70.5z" />
<glyph unicode="q" horiz-adv-x="1069" d="M72 365q0 216 140 349.5t366 133.5q62 0 124.5 -11t99.5 -22.5t38 -11.5q14 0 24 7t15.5 16t13.5 28q8 8 14 8q10 0 21.5 -6.5t11.5 -13.5q0 -2 -12.5 -85t-12.5 -153v-1055q0 -13 6 -24t12 -17.5t21 -13t21.5 -9t25 -7.5t21.5 -6q47 -16 47 -37q0 -19 -41 -19 q-42 0 -95 5.5t-89 5.5q-35 0 -79.5 -5.5t-86.5 -5.5q-41 0 -41 19q0 21 47 37q55 16 70 31q18 18 18 46v441q0 61 -12 61q-9 0 -19 -10q-30 -27 -100.5 -48.5t-159.5 -21.5q-109 0 -200.5 44.5t-150 136t-58.5 213.5zM240 420q0 -78 21.5 -142.5t55 -106t76 -70t84 -40.5 t80.5 -12q115 0 176 47q19 13 28.5 61t11 86.5t1.5 106.5q0 162 -2 213q-3 92 -74 155.5t-172 63.5q-118 0 -202 -96.5t-84 -265.5z" />
<glyph unicode="r" horiz-adv-x="684" d="M59 12q0 21 47 37q20 6 30 10t23 12.5t18.5 22t6.5 33.5v440q0 131 -84 148q-8 2 -14 9.5t-6 16.5t6 16t12 9q36 9 73 25t58 27.5t54.5 33.5t42.5 27q1 0 2 1t2 1q7 0 12 -15q0 -54 -6 -153q0 -4 2 -4q3 0 12 10t20.5 23t16.5 18q45 41 97 64.5t91 23.5q42 0 70.5 -19 t28.5 -47q0 -33 -25.5 -69.5t-54.5 -36.5q-17 0 -59.5 18.5t-63.5 18.5q-59 0 -101 -39.5t-42 -132.5v-404q1 -19 11.5 -34.5t30 -26t33.5 -16t35 -11.5q47 -16 47 -37q0 -18 -41 -18q-42 0 -92.5 5t-85.5 5t-79.5 -5t-86.5 -5q-41 0 -41 18z" />
<glyph unicode="s" horiz-adv-x="661" d="M61 170q0 18 35 18q28 0 31 -14q11 -54 69.5 -100.5t120.5 -46.5q71 0 107.5 39.5t36.5 103.5q0 50 -37 89.5t-119 96.5q-92 66 -144 124t-52 126q0 46 15 87.5t46 77t86 56.5t127 21q56 0 96 -14.5t58 -32.5q34 -42 34 -160q0 -8 -12 -8q-16 0 -43 15t-27 28 q-2 44 -40.5 81.5t-88.5 37.5q-58 0 -93.5 -37t-35.5 -99q0 -28 15 -54.5t43.5 -50.5t51 -39.5t55.5 -35.5q2 -1 3.5 -2l3 -2t3.5 -2q37 -24 58.5 -39.5t59 -50.5t57 -77t19.5 -89q0 -116 -67.5 -181t-227.5 -65q-77 0 -142 25.5t-75 48.5q-24 49 -27 125z" />
<glyph unicode="t" horiz-adv-x="643" d="M72 762q0 9 10 14q48 14 97.5 59.5t81 84t38.5 38.5q8 0 15 -1t14 -6t6 -13l-17 -90q-3 -13 13.5 -21t38.5 -8h233q8 0 14.5 -15.5t6.5 -33.5t-6.5 -33.5t-14.5 -15.5h-203q-55 0 -68.5 -8.5t-13.5 -48.5v-388q0 -104 40 -148t96 -44q102 0 153 39q8 6 14.5 -4t6.5 -23 t-32.5 -42t-91.5 -56t-116 -27q-99 0 -156 60.5t-57 183.5v475q0 19 -15.5 25t-62.5 6q-6 0 -15 15.5t-9 25.5z" />
<glyph unicode="u" horiz-adv-x="1079" d="M59 778q0 29 31 35q39 1 69.5 5t46 7t46 11t49.5 12q32 3 29 -29q-13 -102 -13 -157v-400q0 -73 53 -129.5t119 -56.5q63 0 100.5 7t72.5 34q92 68 92 153v375q0 29 -14.5 50.5t-37.5 32t-42.5 15t-38.5 5.5q-14 0 -31 7.5t-17 26.5q0 16 18 23.5t30 7.5q61 3 99 5.5 t63.5 6.5t35.5 6t31 8.5t35 10.5h4q14 0 22.5 -12.5t1.5 -24.5q-5 -10 -10.5 -63t-5.5 -82v-435q0 -72 7 -106.5t30 -34.5q64 0 94 6q10 2 20.5 -3.5t10.5 -22.5q0 -15 -9.5 -22t-19.5 -7q-107 -14 -239 -70q-24 -12 -50 -12q-5 0 -5.5 1t-0.5 4v3q0 13 5 65t5 70v13 q-78 -77 -159 -111.5t-178 -34.5q-104 0 -169 64t-65 180v416q0 44 -21 71t-67 46q-27 9 -27 30z" />
<glyph unicode="v" horiz-adv-x="897" d="M10 811q0 18 41 18t78 -5t72 -5t73.5 5t79.5 5t41 -18q0 -21 -47 -37q-41 -11 -41 -84q0 -34 8 -55l152 -408q5 -15 8.5 -20t7.5 -1t9 19l147 379q14 38 14 74q0 37 -14.5 63.5t-36.5 32.5q-47 16 -47 37q0 18 41 18q10 0 59 -5t90 -5q40 0 73 5t48 5q41 0 41 -18 q0 -21 -47 -37q-32 -9 -69 -48t-58 -89l-160 -385l-75 -205q-46 -92 -56 -92q-7 0 -20.5 29.5t-20.5 50.5l-249 639q-33 82 -95 100q-47 16 -47 37z" />
<glyph unicode="w" horiz-adv-x="1402" d="M10 811q0 18 41 18l150 -10q156 10 170 10q41 0 41 -18q0 -21 -47 -37q-43 -12 -43 -82q0 -26 10 -53l155 -401q14 -40 31 2l135 329q13 37 13 62q0 53 -33 93t-70 50q-47 12 -47 37q0 18 41 18q14 0 62.5 -5t91.5 -5q42 0 97.5 5t74.5 5q41 0 41 -18q0 -21 -47 -37 q-20 -7 -33 -13t-25 -22t-12 -39q0 -26 14 -61l154 -395q6 -15 11 -20t10.5 -1t11.5 19l155 362q15 34 15 64q0 41 -22.5 69t-49.5 37q-47 16 -47 37q0 18 41 18q28 0 71 -5t82 -5q42 0 71 5t48 5q41 0 41 -18q0 -21 -47 -37q-57 -17 -109 -135l-280 -672q-7 -14 -19 -14 q-9 0 -16 14l-213 529q-7 17 -12 17.5t-15 -19.5l-223 -527q-7 -14 -16 -14q-11 0 -14 14l-285 707q-14 38 -44 64t-63 36q-47 16 -47 37z" />
<glyph unicode="x" horiz-adv-x="880" d="M20 10q0 24 48 37q30 9 59.5 34t77.5 83l174 217q13 16 13 24.5t-9 22.5l-166 258q-26 41 -45 59t-49 27q-47 12 -47 37q0 18 47 18q37 0 73 -4t89 -4q25 0 53 2t51 2q47 0 47 -18q0 -12 -12.5 -19t-27.5 -10.5t-27.5 -12t-12.5 -22.5q0 -19 27 -65l82 -127 q11 -18 16 -10l101 153q16 22 16 45q0 25 -27 33q-47 16 -47 37q0 18 47 18q8 0 46.5 -3t56.5 -3q43 0 80 5t49 5q41 0 41 -18q0 -21 -47 -37q-98 -29 -146 -96l-133 -189q-8 -12 2 -26l199 -330q26 -41 45 -59t49 -27q47 -12 47 -37q0 -18 -41 -18q-40 0 -79.5 4t-92.5 4 q-25 0 -75.5 -1t-73.5 -1q-47 0 -47 18q0 16 18 26.5t39 15.5t39 17t18 31q0 16 -12 37l-111 189q-9 16 -16 6l-137 -201q-10 -15 -10 -39q0 -37 28 -45q47 -16 47 -37q0 -18 -47 -18q-10 0 -50 2t-58 2q-43 0 -83.5 -5t-54.5 -5q-41 0 -41 18z" />
<glyph unicode="y" horiz-adv-x="897" d="M10 811q0 18 41 18q42 0 78.5 -5t71.5 -5t74 5t81 5q15 0 28 -5.5t13 -16.5q0 -14 -19.5 -27t-39.5 -18q-41 -11 -41 -66q0 -20 16 -57l162 -401q17 -40 31 2l137 364q16 36 16 76q0 62 -41 78q-59 26 -59 49q0 11 13.5 16.5t27.5 5.5t58 -5t87 -5q42 0 72 5t49 5 q41 0 41 -18q0 -21 -47 -37q-31 -9 -66 -48.5t-55 -88.5l-278 -664q-2 -6 -33.5 -81.5t-79 -190.5t-84.5 -201q-38 -84 -133 -84q-39 0 -71.5 21t-32.5 53q0 61 55 61q16 0 43.5 -6t38.5 -6q25 0 39 23q36 62 90.5 178.5t95.5 226.5q6 18 6 47q0 39 -8 60l-237 600 q-34 83 -93 100q-47 16 -47 37z" />
<glyph unicode="z" horiz-adv-x="772" d="M51 25q0 16 76 118q151 218 381 582q15 20 -19 20h-239q-11 0 -21 -5.5t-21 -18t-19.5 -23t-22.5 -30t-23 -31.5q-1 -1 -9.5 -12.5t-14.5 -18t-15 -13.5t-16 -7q-13 0 -16 16.5t4 28.5q12 30 23.5 88.5t11.5 95.5q0 14 11.5 25.5t18.5 11.5q9 0 31 -18q16 -13 88 -13 q17 0 44 1t34 1q194 0 381 6q8 0 13 -9t1 -15q-35 -42 -78 -103l-395 -600q-7 -11 3.5 -20.5t21.5 -9.5h239q42 0 82 39.5t94 117.5q1 1 6 11.5t9.5 17.5t12.5 14t17 7q17 0 17 -48q0 -25 -57 -213q-2 -8 -11.5 -18t-17.5 -10q-9 0 -154.5 5t-277.5 5q-31 0 -90 -5t-74 -5 q-7 0 -18 13.5t-11 21.5z" />
<glyph unicode="{" horiz-adv-x="763" d="M51 578q0 5 3 7t10 3t10 2q89 33 141.5 92.5t52.5 144.5q0 61 -13 176t-13 189q0 69 37 123.5t98 85.5t131.5 47t146.5 16q14 0 25.5 -8.5t11.5 -21.5q0 -25 -53 -25q-51 0 -96.5 -11.5t-84 -35.5t-61 -65t-22.5 -95q0 -72 13 -184.5t13 -169.5q0 -63 -39 -121t-86 -92.5 t-96 -54.5q-9 -5 4 -9q64 -17 140.5 -98t76.5 -172q0 -57 -13 -169.5t-13 -184.5q0 -54 22.5 -95t61 -65t84 -35.5t96.5 -11.5q53 0 53 -25q0 -13 -11.5 -21.5t-25.5 -8.5q-76 0 -146.5 16t-131.5 47t-98 85.5t-37 123.5q0 73 13 188t13 177q0 85 -52.5 144.5t-141.5 92.5 q-23 9 -23 19z" />
<glyph unicode="|" horiz-adv-x="532" d="M205 -563v1947q0 29 37.5 46.5t56.5 17.5q11 0 20 -8.5t9 -18.5v-1964q0 -15 -12.5 -25.5t-31 -15t-32 -6.5t-23.5 -2q-9 0 -16.5 9t-7.5 20z" />
<glyph unicode="}" horiz-adv-x="763" d="M72 -285q0 25 53 25q51 0 96.5 11.5t84 35.5t61 65t22.5 95q0 72 -13.5 184.5t-13.5 169.5q0 91 77 172t141 98q10 5 4 9q-35 14 -71.5 38t-71.5 57.5t-57 79t-22 93.5q0 57 13.5 169.5t13.5 184.5q0 54 -22.5 95t-61 65t-84 35.5t-96.5 11.5q-53 0 -53 25 q0 13 11.5 21.5t25.5 8.5q76 0 146.5 -16t131.5 -47t98 -85.5t37 -123.5q0 -74 -13 -189t-13 -176q0 -85 52 -144.5t142 -92.5q3 -1 7.5 -2t7.5 -1t5.5 -2.5t2.5 -6.5q0 -10 -23 -19q-90 -33 -142 -92.5t-52 -144.5q0 -62 13 -177t13 -188q0 -69 -37 -123.5t-98 -85.5 t-131.5 -47t-146.5 -16q-14 0 -25.5 8.5t-11.5 21.5z" />
<glyph unicode="~" horiz-adv-x="1024" d="M102 571q0 8 27.5 41t65.5 70.5t84.5 67.5t78.5 30q38 0 93 -24.5t118.5 -49t120.5 -24.5q41 0 91 25t84 50t36 25q7 0 14 -15.5t7 -25.5q0 -11 -26.5 -45t-63.5 -70.5t-84 -65t-82 -28.5q-47 0 -166 49.5t-176 49.5q-41 0 -86 -24t-74 -48t-31 -24q-11 0 -21 12.5 t-10 23.5z" />
<glyph unicode="&#xa1;" horiz-adv-x="563" d="M133 889q0 51 36 87t87 36t87 -36t36 -87t-36 -87t-87 -36t-87 36t-36 87zM152 -217q0 45 5 124.5t10.5 147t16 186.5t15.5 179q3 47 19 83t38 36q14 0 28 -35.5t17 -71.5q4 -41 15 -138t16 -147.5t11.5 -125t9.5 -133t3 -109.5q0 -61 -25 -104.5t-73 -43.5 q-52 0 -79 43.5t-27 108.5z" />
<glyph unicode="&#xa2;" horiz-adv-x="843" d="M72 385q0 176 117.5 309t297.5 150l11 102q1 17 14 26t31 9q12 0 20 -11.5t6 -23.5l-10 -100q146 -7 219 -98q8 -11 8 -25q0 -27 -49 -61q-18 -9 -26 -9q-33 0 -43 21q-48 84 -117 102l-70 -682q10 -2 31 -2q51 0 89.5 5t80.5 25.5t66 57.5q7 10 18 10q10 0 18.5 -7.5 t8.5 -16.5q0 -6 -2 -8q-57 -95 -135 -139.5t-189 -47.5l-10 -104q-1 -13 -13 -22t-26 -9t-24 9t-9 22l12 108q-133 24 -229 142t-96 268zM209 455q0 -130 54.5 -220.5t146.5 -125.5l71 677h-4q-78 0 -141 -51t-95 -126t-32 -154z" />
<glyph unicode="&#xa3;" horiz-adv-x="1003" d="M-20 35q0 34 61.5 85.5t134.5 65.5q11 2 23 25q25 46 42.5 158.5t22.5 242.5l-172 -12q-10 0 -19.5 8t-9.5 17q0 15 15.5 33.5t34.5 19.5l153 10v10q0 107 28 209.5t81 188.5t140.5 139t195.5 53q207 0 207 -168q0 -38 -32 -76t-55 -38q-14 0 -19 6.5t-5 21.5q0 6 1 21 t1 24q-2 52 -46 101t-95 49q-101 0 -161 -141t-61 -388l273 19q10 0 18 -8.5t8 -16.5q0 -13 -21 -33t-42 -20l-240 -16q-14 -125 -68.5 -252.5t-97.5 -163.5q-5 -3 -3 -11t12 -8q82 0 151.5 -19.5t110 -42.5t100 -42.5t125.5 -19.5q46 0 81.5 33.5t35.5 78.5q0 20 -13 52.5 t-14 52.5q0 9 0.5 15t2 13t6 10.5t10.5 2.5q44 -4 70 -35t26 -74q0 -118 -94 -203.5t-219 -85.5q-94 0 -161 29t-167 98q-32 23 -73.5 41.5t-57.5 18.5q-10 0 -40 -32t-50 -69q-21 -41 -74 -41q-26 0 -43.5 18.5t-17.5 45.5z" />
<glyph unicode="&#xa4;" horiz-adv-x="989" d="M78 199q0 10 6 16l96 96q-80 107 -80 242q0 136 80 240l-96 96q-6 6 -6 14q0 20 21.5 42t41.5 22q11 0 17 -6l92 -93q112 84 244 84q136 0 241 -84l94 95q6 6 17 6q19 0 40 -20.5t21 -41.5q0 -12 -8 -20l-92 -92q80 -107 80 -242t-80 -242l96 -96q6 -6 6 -14 q0 -20 -21.5 -42t-41.5 -22q-11 0 -17 6l-94 95q-105 -84 -241 -84q-137 0 -242 84l-96 -95q-6 -6 -17 -6q-20 0 -40.5 21t-20.5 41zM203 553q0 -122 85 -209.5t206 -87.5t205.5 87.5t84.5 209.5t-84.5 209.5t-205.5 87.5t-206 -87.5t-85 -209.5z" />
<glyph unicode="&#xa5;" horiz-adv-x="1267" d="M10 1315q0 22 60 22q26 0 107 -3t132 -3q34 0 89.5 2t74.5 2q59 0 59 -22q0 -13 -15 -21t-52 -20q-57 -20 -57 -68q0 -27 18 -57l190 -338q26 -45 39 -62.5t23 -17.5q15 0 55 67q5 9 8 13q115 168 170 285q15 34 15 69q0 39 -16.5 69.5t-45.5 37.5q-67 18 -67 41 q0 22 59 22q31 0 78 -1t76 -1q42 0 109 3t87 3q60 0 60 -22q0 -27 -68 -41q-81 -16 -205 -197q-49 -75 -106.5 -167t-90.5 -146l-32 -55q-31 -49 -37 -64h250q11 0 19 -6.5t8 -15.5q0 -16 -21 -33t-43 -17h-223v-98h258q26 0 26 -22q0 -16 -20.5 -33t-42.5 -17h-221v-182 q0 -69 41.5 -113.5t118.5 -58.5q67 -11 67 -37q0 -22 -59 -22q-58 0 -126.5 5t-113.5 5q-50 0 -127.5 -5t-134.5 -5q-59 0 -59 22q0 26 67 37q160 28 160 172l2 182h-258q-10 0 -19.5 8t-9.5 17q0 15 15 31t34 16h238v49q0 21 -4 49h-254q-10 0 -19.5 8t-9.5 17q0 15 15 31 t34 16h217q-17 29 -18 31l-254 393q-81 120 -122 160q-34 33 -60 41q-68 21 -68 45z" />
<glyph unicode="&#xa6;" horiz-adv-x="532" d="M205 319q0 13 40.5 30.5t53.5 17.5q10 0 19.5 -15t9.5 -30v-867q0 -15 -12.5 -25.5t-31 -15t-32 -6.5t-23.5 -2q-9 0 -16.5 9t-7.5 20v884zM205 612v768q0 29 37.5 46.5t56.5 17.5q11 0 20 -8.5t9 -18.5v-809q0 -13 -40.5 -28t-58.5 -15q-9 0 -16.5 15.5t-7.5 31.5z" />
<glyph unicode="&#xa7;" horiz-adv-x="819" d="M49 674q0 126 34.5 211.5t100.5 165.5q26 99 105 179.5t180 80.5q38 0 82 -12t61 -27q25 -21 25 -37q0 -14 -25.5 -55t-52.5 -41q-15 0 -27 12q-78 70 -126 70q-58 0 -91.5 -38t-33.5 -91q0 -55 59 -136.5t154 -167.5q124 -111 169.5 -215.5t45.5 -246.5q0 -106 -23 -177 t-80 -172q-99 -171 -244 -258q-38 -22 -110 -22q-54 0 -90.5 18.5t-36.5 46.5q0 21 13 52.5t44 54.5q16 11 45 -12q26 -23 66 -36.5t76 -13.5q52 0 79 44t27 124q0 21 -6.5 43.5t-22 48t-28.5 45t-40.5 50t-42 46t-48.5 50.5t-45 47q-193 196 -193 369zM150 788 q0 -102 43.5 -186t140.5 -184q140 -143 189 -208q47 -62 63 -106q3 -7 10.5 -6.5t9.5 6.5q23 90 23 150q0 102 -44 186.5t-141 184.5q-72 73 -102.5 105t-82 98.5t-66.5 109.5q-3 7 -11 6.5t-10 -6.5q-22 -86 -22 -150z" />
<glyph unicode="&#xa8;" horiz-adv-x="649" d="M41 1073q0 38 32 70.5t70 32.5t70.5 -32.5t32.5 -70.5t-32.5 -70t-70.5 -32t-70 32t-32 70zM403 1073q0 38 32.5 70.5t70.5 32.5t70 -32.5t32 -70.5t-32 -70t-70 -32t-70.5 32t-32.5 70z" />
<glyph unicode="&#xa9;" horiz-adv-x="1361" d="M88 670q0 168 83.5 311t226.5 226t311 83q126 0 241 -49t198 -132t132 -198t49 -241q0 -168 -83.5 -311t-227 -226.5t-311.5 -83.5t-310.5 83.5t-225.5 226.5t-83 311zM170 670q0 -110 42 -212t114 -176t171.5 -118.5t209.5 -44.5q148 0 272.5 74.5t196 201.5t71.5 275 q0 146 -72 270t-196 196t-270 72t-270 -72t-196.5 -196t-72.5 -270zM385 672q0 98 56 177t145.5 121t191.5 42q51 0 109 -13q8 -3 39 -10t39 -10q16 -6 16 -94q0 -31 -2 -47q0 -7 -7 -15.5t-14 -7.5q-12 0 -24 31q-16 45 -61.5 74.5t-112.5 29.5q-102 0 -167 -78.5 t-65 -193.5q0 -122 64.5 -211.5t177.5 -89.5q134 0 176 84q7 14 17.5 22.5t17.5 8.5q10 0 10 -27q0 -19 -15 -55.5t-26 -49.5q-45 -45 -215 -45q-143 0 -246.5 109t-103.5 248z" />
<glyph unicode="&#xaa;" horiz-adv-x="552" d="M51 354q0 15 15 31t34 16h422q10 0 19.5 -6.5t9.5 -15.5q0 -1 -1 -3t-1 -3q-22 -43 -64 -43h-405q-11 0 -20 7.5t-9 16.5zM51 670q0 42 15.5 66t62.5 42l162 58q26 9 31.5 16.5t5.5 32.5v47q0 32 -20 53t-56 21q-26 0 -54.5 -8.5t-35.5 -20.5q-2 -4 -3 -12t-0.5 -14.5 t1 -14t0.5 -8.5q0 -10 -41.5 -24.5t-50.5 -14.5q-11 0 -11 10q0 14 15.5 41.5t38.5 46.5q36 31 96 58.5t108 27.5t86.5 -33t38.5 -75v-254q0 -18 0.5 -28t4 -24.5t12 -21t22.5 -6.5q16 0 28 5t17 10t6 5q5 0 12 -10.5t7 -22.5q0 -5 -14 -21t-39 -32t-47 -16q-26 0 -48 10 t-33.5 21.5t-20 21.5t-11.5 10q-5 0 -18 -10t-29.5 -21.5t-48 -21.5t-68.5 -10q-40 0 -80.5 42t-40.5 79zM164 700q0 -32 20.5 -50.5t44.5 -18.5q33 0 82 39q17 13 17 47v59q0 18 -7 23t-24 0q-70 -20 -101.5 -47t-31.5 -52z" />
<glyph unicode="&#xab;" horiz-adv-x="1384" d="M205 432q0 11 6 14q167 100 264.5 170t198.5 166q37 37 59 37q12 0 12 -18q0 -43 -101 -154t-220 -203q-12 -9 -12 -14t12 -14q110 -86 213.5 -201t103.5 -152q0 -9 -5.5 -16.5t-12.5 -7.5q-24 0 -61 37q-194 194 -420 297q-14 7 -25.5 26t-11.5 33zM639 432q0 11 6 14 q167 100 264.5 170t198.5 166q37 37 59 37q13 0 13 -18q0 -43 -101.5 -154t-220.5 -203q-12 -9 -12 -14t12 -14q111 -87 214.5 -201.5t103.5 -151.5q0 -9 -6 -16.5t-13 -7.5q-24 0 -61 37q-194 194 -420 297q-14 7 -25.5 26t-11.5 33z" />
<glyph unicode="&#xac;" horiz-adv-x="1228" d="M102 684q0 10 2 23.5t6.5 31.5t15.5 30.5t26 12.5h948q10 0 18 -8.5t8 -19.5v-617q0 -15 -12.5 -25.5t-30.5 -15t-31.5 -6.5t-23.5 -2q-9 0 -16.5 9t-7.5 20v506q0 36 -29 36h-844q-10 0 -19.5 8t-9.5 17z" />
<glyph unicode="&#xad;" horiz-adv-x="0" />
<glyph unicode="&#xae;" horiz-adv-x="1361" d="M88 670q0 168 83.5 311t226.5 226t311 83q126 0 241 -49t198 -132t132 -198t49 -241q0 -168 -83.5 -311t-227 -226.5t-311.5 -83.5t-310.5 83.5t-225.5 226.5t-83 311zM170 670q0 -110 42 -212t114 -176t171.5 -118.5t209.5 -44.5q148 0 272.5 74.5t196 201.5t71.5 275 q0 146 -72 270t-196 196t-270 72t-270 -72t-196.5 -196t-72.5 -270zM410 375q0 11 12 21.5t27 15.5q28 8 39.5 21t11.5 44v387q0 17 -0.5 28t-0.5 19.5t-3.5 14t-3.5 9t-6.5 6t-7.5 3.5t-11.5 3t-13.5 3q-39 11 -39 37q0 13 11 21t30 8h295q87 0 150 -42.5t63 -119.5 q0 -59 -30 -101t-71 -59q-3 -1 -5 -2.5t-3 -3.5t-1.5 -3.5t-0.5 -4t0.5 -4t2 -4t2 -4t2.5 -5t3 -4.5l135 -227q19 -35 64 -35q2 0 8.5 1t11 1t9 -2t4.5 -8q0 -26 -28.5 -40.5t-61.5 -14.5q-82 0 -119 61l-119 199q-38 61 -111 61q-13 0 -22.5 -6t-9.5 -16l2 -156 q0 -21 12 -35t23 -18.5t34 -11.5q15 -5 27 -15.5t12 -21.5q0 -8 -11.5 -15.5t-21.5 -7.5q-34 0 -70 4t-63 4t-59 -4t-66 -4q-10 0 -21 7.5t-11 15.5zM623 762q0 -18 8.5 -27.5t18.5 -11.5t28 -2q63 0 108 33.5t45 91.5q0 49 -38 79.5t-93 30.5q-43 0 -60 -15.5t-17 -45.5 v-133z" />
<glyph unicode="&#xaf;" horiz-adv-x="614" d="M61 1051q0 24 12.5 56t37.5 32h415q9 0 18 -8t9 -17q0 -36 -16.5 -62t-47.5 -26h-399q-10 0 -19.5 8t-9.5 17z" />
<glyph unicode="&#xb0;" horiz-adv-x="593" d="M51 1081q0 97 74 168.5t172 71.5t172 -71.5t74 -168.5q0 -99 -75 -178.5t-171 -79.5t-171 79.5t-75 178.5zM147 1071q0 -62 44.5 -106.5t105.5 -44.5t105 44.5t44 106.5q0 63 -43.5 107.5t-105.5 44.5t-106 -44.5t-44 -107.5z" />
<glyph unicode="&#xb1;" horiz-adv-x="1208" d="M102 102q0 21 13 49.5t37 28.5h927q10 0 19.5 -6.5t9.5 -15.5q0 -1 -1 -3t-1 -3q-6 -18 -10 -27t-11.5 -22t-18 -19t-24.5 -6h-911q-11 0 -20 7.5t-9 16.5zM102 743q0 21 13 49.5t37 28.5h387q14 0 14 17v350q0 25 29.5 44t44.5 19q11 0 19.5 -8t8.5 -18v-391 q0 -10 1.5 -11.5t7.5 -1.5h415q10 0 19.5 -6.5t9.5 -15.5q0 -1 -1 -3t-1 -3q-6 -18 -10 -27t-11.5 -22t-18 -19t-24.5 -6h-378q-9 0 -9 -8v-414q0 -24 -27.5 -36.5t-49.5 -12.5q-9 0 -17 9t-8 19v433q0 10 -8 10h-414q-11 0 -20 7.5t-9 16.5z" />
<glyph unicode="&#xb2;" horiz-adv-x="614" d="M47 909q0 11 10 21l80 82l35 32q35 32 61 60t60 69t53 84t19 80q0 56 -35 92.5t-82 36.5q-55 0 -87 -15.5t-75 -61.5q-8 -15 -20.5 -11t-12.5 21t18 45.5t48 58.5t77 52t97 22q78 0 132 -56.5t54 -134.5q0 -15 -1.5 -28t-6.5 -26.5t-8 -21.5t-11.5 -22.5t-12 -20t-15 -22 t-14.5 -20.5q-20 -30 -67 -77t-90 -86t-46 -42q-5 -5 5 -8.5t19 -3.5h142q45 0 86.5 28t64.5 74q3 8 12.5 12.5t18.5 3.5q8 0 8 -10q0 -1 -1 -4t-1 -4q-41 -112 -55 -186q-5 -27 -19 -27h-6q-104 6 -172 6q-148 0 -252 -4q-4 -1 -7 2.5t-3 9.5z" />
<glyph unicode="&#xb3;" horiz-adv-x="614" d="M94 956q0 14 12.5 36t24.5 22q17 0 27 -10q72 -46 133 -46q13 0 30.5 5.5t39.5 19t36.5 44t14.5 71.5q0 52 -39.5 84t-98.5 32q-21 0 -75 -14q-6 -2 -15 1.5t-14 10t0 11.5q14 14 31.5 23t39 16.5t29.5 11.5q62 33 87.5 58.5t25.5 72.5q0 30 -32.5 53t-63.5 23 q-86 0 -148 -62q-12 -12 -16 -12q-5 0 -12.5 8.5t-4.5 14.5q31 59 84 103t127 44q83 0 132 -35.5t49 -109.5q0 -76 -121 -136q-6 -3 -6 -9.5t6 -6.5q60 0 100.5 -45.5t40.5 -108.5q0 -59 -29.5 -106.5t-74.5 -75t-93.5 -41.5t-91.5 -14q-135 0 -135 67z" />
<glyph unicode="&#xb4;" horiz-adv-x="782" d="M293 946q0 21 69 150t111 198q16 25 38 31t64 6q72 0 72 -39q0 -16 -30.5 -47t-101.5 -107.5t-140 -172.5q-10 -15 -27 -30t-29 -15q-26 0 -26 26z" />
<glyph unicode="&#xb5;" horiz-adv-x="1044" d="M63 0q0 14 7.5 82.5t7.5 105.5q0 31 -7.5 237.5t-7.5 254.5q0 74 26 125t81 51q80 0 80 -154q0 -44 -32 -218t-32 -214q0 -47 49 -107.5t111 -60.5q146 0 225 148q37 71 55 146.5t20.5 127.5t2.5 156q0 67 26 118.5t75 51.5q79 0 79 -129q0 -34 -49 -182t-49 -207 q0 -70 33.5 -135.5t95.5 -65.5q33 0 67 23t56 46t27 23q8 0 15 -5.5t7 -12.5q0 -107 -63.5 -171.5t-137.5 -64.5q-50 0 -78 27t-59 102q-4 12 -13.5 59t-12.5 76q-8 -18 -30 -55.5t-55.5 -86t-75.5 -83.5t-77 -35q-67 0 -111.5 23t-117.5 82q-7 6 -20 19t-22.5 21.5 t-15.5 8.5q-20 0 -20 -70q0 -73 24 -217q12 -69 45.5 -151.5t61 -138.5t27.5 -70q0 -64 -58 -64q-87 0 -129 105q-13 34 -22 192t-9 287z" />
<glyph unicode="&#xb6;" horiz-adv-x="1200" d="M94 782q0 103 41 192t111 153t162 109.5t196 68t211 22.5q194 0 287 -12q14 -3 22.5 -15t8.5 -26q0 -16 -9 -39t-20 -23q-2 0 -35 8t-83.5 16.5t-96.5 8.5q-15 0 -26 -11.5t-11 -25.5v-1548q0 -48 -26 -104t-81 -100t-124 -44q-74 0 -127.5 47.5t-53.5 118.5 q0 58 42.5 96.5t101.5 38.5q43 0 76.5 -25t33.5 -65q0 -34 -21.5 -61t-49.5 -27q-23 0 -58 19.5t-41 19.5q-10 0 -10 -20q0 -38 28.5 -64.5t69.5 -26.5q70 0 115 48t45 120v562q0 51 -27 51q-124 0 -241 38.5t-208 106.5t-146.5 170.5t-55.5 222.5z" />
<glyph unicode="&#xb7;" horiz-adv-x="409" d="M92 420q0 46 33.5 79t79.5 33t79 -33t33 -79t-33 -79.5t-79 -33.5t-79.5 33.5t-33.5 79.5z" />
<glyph unicode="&#xb8;" horiz-adv-x="772" d="M227 -477q0 19 9.5 29t17.5 10l34 -12q33 -11 74 -11q39 0 59.5 25.5t20.5 66.5q0 55 -32.5 86t-87.5 31q-15 0 -32 -6t-22 -6q-12 0 -24.5 9t-12.5 22q0 5 11 20l180 229h63l-79 -104q-9 -9 -9 -16q0 -8 8 -15.5t15 -9.5q53 -23 89 -65t36 -91q0 -58 -29.5 -112 t-71 -88.5t-84 -55t-71.5 -20.5q-62 0 -62 84z" />
<glyph unicode="&#xb9;" horiz-adv-x="614" d="M119 928q0 22 22 22q26 2 41 5t33.5 11.5t27.5 28t9 49.5v314q0 58 -111 96q-22 8 -22 27q0 10 6 18t14 10q46 4 99.5 28.5t88.5 46.5t38 22q9 0 14.5 -8.5t3.5 -20.5q-8 -54 -8 -111q0 -50 -1 -143t-1 -117q0 -113 2 -162q3 -59 18 -72t84 -22q12 -1 18.5 -9t6.5 -17 q0 -10 -7 -17.5t-18 -7.5q-65 0 -103 5t-65 5t-67 -5t-101 -5q-10 0 -16 9t-6 20z" />
<glyph unicode="&#xba;" horiz-adv-x="632" d="M51 354q0 15 15 31t34 16h455q10 0 19.5 -6.5t9.5 -15.5q0 -1 -1 -3t-1 -3q-22 -43 -64 -43h-438q-11 0 -20 7.5t-9 16.5zM51 795q0 114 81.5 196t195.5 82q100 0 177 -73.5t77 -172.5q0 -115 -74 -196.5t-205 -81.5q-105 0 -178.5 69t-73.5 177zM176 823q0 -87 43 -149 t109 -62q64 0 96.5 53t32.5 132q0 83 -42.5 146t-109.5 63q-65 0 -97 -52.5t-32 -130.5z" />
<glyph unicode="&#xbb;" horiz-adv-x="1384" d="M205 801q0 18 12 18q22 0 59 -37q101 -96 198.5 -166t264.5 -170q6 -3 6 -14q0 -14 -11 -33t-25 -26q-225 -103 -420 -297q-37 -37 -62 -37q-7 0 -12.5 7.5t-5.5 16.5q0 37 103.5 152t213.5 201q12 9 12 14t-12 14q-119 92 -220 203t-101 154zM639 801q0 18 12 18 q23 0 60 -37q101 -96 198.5 -166t264.5 -170q6 -3 6 -14q0 -14 -11.5 -33t-25.5 -26q-225 -103 -420 -297q-37 -37 -61 -37q-7 0 -13 7.5t-6 16.5q0 37 103.5 151.5t214.5 201.5q12 9 12 14t-12 14q-119 92 -220.5 203t-101.5 154z" />
<glyph unicode="&#xbc;" horiz-adv-x="1312" d="M84 608q0 23 22 23q27 2 42 5t33.5 12t27 28t8.5 49v313q0 59 -111 97q-22 8 -22 26q0 10 6 18.5t14 10.5q46 4 91 23.5t82 43.5t38 25q12 4 15 4q9 0 14.5 -8.5t3.5 -20.5q-8 -58 -8 -143q0 -48 -1 -123.5t-1 -103.5q0 -32 1 -85.5t1 -76.5q1 -58 16.5 -71.5t85.5 -22.5 q11 -1 18 -9t7 -18t-7 -17t-18 -7q-65 0 -103 5t-65 5t-67 -5t-101 -5q-10 0 -16 8.5t-6 19.5zM248 -23l844 1330q21 34 79 34q12 0 22.5 -12t4.5 -22l-844 -1330q-18 -30 -73 -30q-15 0 -27.5 10t-5.5 20zM715 223q53 70 268 336q25 31 119 133q23 23 31 25q5 1 9.5 -5 t4.5 -12q0 -239 4 -391q0 -8 6 -8h37q51 0 84 2q14 0 14 -10q0 -13 -5.5 -31.5t-11.5 -30.5t-9 -12q-12 0 -36 1t-34 1q-45 0 -45 -10v-172q0 -20 -38 -39.5t-50 -19.5q-19 0 -19 16v209q0 10 -18 10q-53 0 -146.5 -3.5t-152.5 -4.5q-6 0 -10.5 6.5t-1.5 9.5zM842 303h186 q16 0 16 10v228q0 3 -4.5 4t-7.5 -2q-79 -88 -190 -230q-5 -10 0 -10z" />
<glyph unicode="&#xbd;" horiz-adv-x="1431" d="M84 608q0 23 22 23q27 2 42 5t33.5 12t27 28t8.5 49v313q0 59 -111 97q-22 8 -22 26q0 10 6 18.5t14 10.5q46 4 91 23.5t82 43.5t38 25q12 4 15 4q9 0 14.5 -8.5t3.5 -20.5q-8 -58 -8 -143q0 -48 -1 -123.5t-1 -103.5q0 -32 1 -85.5t1 -76.5q1 -58 16.5 -71.5t85.5 -22.5 q11 -1 18 -9t7 -18t-7 -17t-18 -7q-65 0 -103 5t-65 5t-67 -5t-101 -5q-10 0 -16 8.5t-6 19.5zM248 -23l844 1330q21 34 79 34q10 0 19.5 -8.5t9.5 -17.5q0 -6 -2 -8l-844 -1330q-18 -30 -73 -30q-15 0 -27.5 10t-5.5 20zM870 -7q-2 12 9 23l79 82q3 3 28 26t46.5 44 t51.5 55t51 65t36 67.5t15 68.5q0 56 -35 92.5t-82 36.5q-55 0 -86.5 -15.5t-75.5 -62.5q-7 -15 -20 -11t-13 21q0 42 72.5 110.5t167.5 68.5q78 0 132 -56.5t54 -134.5q0 -15 -1.5 -27.5t-6.5 -27t-7.5 -22t-12.5 -23.5t-11.5 -19t-15 -22t-14.5 -21q-20 -30 -67 -77 t-90 -86t-46 -42q-5 -5 5.5 -8.5t19.5 -3.5h141q45 0 87 28.5t65 74.5q3 8 12 12.5t18 3.5q8 0 8 -10q0 -1 -1 -4t-1 -4q-41 -111 -55 -187q-2 -13 -6.5 -20t-9 -6.5t-8.5 0.5q-104 6 -173 6q-147 0 -251 -4q-7 -1 -9 9z" />
<glyph unicode="&#xbe;" horiz-adv-x="1312" d="M109 629q0 14 12 35.5t24 21.5q17 0 27 -10q70 -45 137 -45q13 0 31 7t39.5 22.5t36 46.5t14.5 73q0 62 -40 109t-97 47q-22 0 -76 -14q-6 -2 -15 1.5t-14 9.5t0 11q18 18 55 31.5t46 19.5q10 6 29 18.5t27.5 18.5t21.5 17t19 20t10.5 23t4.5 30q0 30 -32.5 53t-63.5 23 q-74 0 -147 -61q-15 -15 -21 -13q-7 3 -11 10t-1 13q31 59 84 103t127 44q180 -3 180 -145q0 -37 -32 -73t-89 -64q-6 -3 -6 -7t6 -4q65 -3 103.5 -56t38.5 -124q0 -59 -29.5 -110t-74.5 -82.5t-94 -49.5t-91 -18q-139 0 -139 68zM246 -29q0 4 2 6l844 1330q21 34 79 34 q12 0 22.5 -12t4.5 -22l-844 -1330q-18 -30 -73 -30q-12 0 -23.5 7.5t-11.5 16.5zM713 221l2 2q53 70 268 336q25 31 119 133q23 23 31 25h2q4 0 8 -6t4 -11q0 -239 4 -391q0 -8 6 -8h37q51 0 84 2q14 0 14 -10q0 -13 -5.5 -31.5t-11.5 -30.5t-9 -12q-12 0 -36 1t-34 1 q-45 0 -45 -10v-172q0 -20 -38 -39.5t-50 -19.5q-19 0 -19 16v209q0 10 -18 10q-53 0 -146.5 -3.5t-152.5 -4.5q-5 0 -9.5 4.5t-4.5 9.5zM842 303h186q16 0 16 10v228q0 3 -4.5 4t-7.5 -2q-79 -88 -190 -230q-5 -10 0 -10z" />
<glyph unicode="&#xbf;" horiz-adv-x="757" d="M82 133q0 69 27.5 122t62.5 73q111 60 184 108q40 26 50 50t12 79q0 17 8.5 32t22.5 15q11 0 25 -17.5t20 -41.5q1 -5 9.5 -31.5t11.5 -40.5t7 -44t4 -62q0 -49 -49 -89t-158 -96q-49 -25 -86.5 -64.5t-37.5 -80.5q0 -105 52.5 -169.5t153.5 -65.5q19 0 48 4t49 4 q32 0 59 -36.5t27 -78.5q0 -28 -27 -51t-55 -23q-53 0 -112.5 27t-108.5 76q-84 84 -141.5 202.5t-57.5 198.5zM297 889q0 51 36 87t87 36t87 -36t36 -87t-36 -87t-87 -36t-87 36t-36 87z" />
<glyph unicode="&#xc0;" horiz-adv-x="1400" d="M-4 16q0 26 67 47q59 17 102.5 52t74.5 106q196 444 383 963q14 38 20 67.5t6.5 40t1.5 11.5q54 17 74 30q12 8 21 26t13.5 32t8.5 14t7.5 -7.5t7.5 -22.5t5 -19q154 -488 365 -1094q39 -112 86.5 -152.5t120.5 -52.5q33 -6 50 -19t17 -28q0 -20 -59 -20q-24 0 -129.5 6 t-155.5 6q-44 0 -119 -1t-96 -1q-59 0 -59 25q0 27 68 38q124 19 124 93q0 68 -77 321q-4 14 -15.5 18.5t-40.5 4.5h-391q-22 0 -35 -37q-19 -57 -50.5 -162t-31.5 -123q0 -43 33.5 -73.5t85.5 -43.5q68 -17 68 -41q0 -22 -60 -22q-14 0 -78.5 2t-107.5 2q-48 0 -131.5 -6 t-114.5 -6q-59 0 -59 26zM479 1669q0 19 44.5 33t74.5 14q37 0 55 -26q93 -136 158 -244q10 -17 10 -31q0 -12 -12 -12q-14 0 -37 18q-165 122 -266 209q-27 24 -27 39zM494 602q0 -10 9.5 -12t33.5 -2h317h13t8.5 1t6 3t1.5 6t-4 20l-162 490q-12 37 -19 37q-4 0 -16 -35 l-184 -492q-4 -12 -4 -16z" />
<glyph unicode="&#xc1;" horiz-adv-x="1400" d="M-4 16q0 26 67 47q59 17 102.5 52t74.5 106q196 444 383 963q14 38 20 67.5t6.5 40t1.5 11.5q54 17 74 30q12 8 21 26t13.5 32t8.5 14t7.5 -7.5t7.5 -22.5t5 -19q154 -488 365 -1094q39 -112 86.5 -152.5t120.5 -52.5q33 -6 50 -19t17 -28q0 -20 -59 -20q-24 0 -129.5 6 t-155.5 6q-44 0 -119 -1t-96 -1q-59 0 -59 25q0 27 68 38q124 19 124 93q0 68 -77 321q-4 14 -15.5 18.5t-40.5 4.5h-391q-22 0 -35 -37q-19 -57 -50.5 -162t-31.5 -123q0 -43 33.5 -73.5t85.5 -43.5q68 -17 68 -41q0 -22 -60 -22q-14 0 -78.5 2t-107.5 2q-48 0 -131.5 -6 t-114.5 -6q-59 0 -59 26zM494 602q0 -10 9.5 -12t33.5 -2h317h13t8.5 1t6 3t1.5 6t-4 20l-162 490q-12 37 -19 37q-4 0 -16 -35l-184 -492q-4 -12 -4 -16zM666 1415q0 14 10 31q65 108 158 244q18 26 55 26q30 0 74.5 -14t44.5 -33q0 -15 -27 -39q-101 -87 -266 -209 q-23 -18 -37 -18q-12 0 -12 12z" />
<glyph unicode="&#xc2;" horiz-adv-x="1400" d="M-4 16q0 26 67 47q59 17 102.5 52t74.5 106q196 444 383 963q14 38 20 67.5t6.5 40t1.5 11.5q54 17 74 30q12 8 21 26t13.5 32t8.5 14t7.5 -7.5t7.5 -22.5t5 -19q154 -488 365 -1094q39 -112 86.5 -152.5t120.5 -52.5q33 -6 50 -19t17 -28q0 -20 -59 -20q-24 0 -129.5 6 t-155.5 6q-44 0 -119 -1t-96 -1q-59 0 -59 25q0 27 68 38q124 19 124 93q0 68 -77 321q-4 14 -15.5 18.5t-40.5 4.5h-391q-22 0 -35 -37q-19 -57 -50.5 -162t-31.5 -123q0 -43 33.5 -73.5t85.5 -43.5q68 -17 68 -41q0 -22 -60 -22q-14 0 -78.5 2t-107.5 2q-48 0 -131.5 -6 t-114.5 -6q-59 0 -59 26zM444 1415q0 13 15 25l200 170q31 28 46.5 36.5t37.5 8.5t37.5 -8.5t46.5 -36.5l201 -170q12 -10 12 -25q0 -22 -28 -22q-18 0 -109.5 43t-138.5 71q-14 7 -20.5 7t-20.5 -7q-46 -27 -137.5 -69.5t-110.5 -42.5q-31 0 -31 20zM494 602q0 -10 9.5 -12 t33.5 -2h317h13t8.5 1t6 3t1.5 6t-4 20l-162 490q-12 37 -19 37q-4 0 -16 -35l-184 -492q-4 -12 -4 -16z" />
<glyph unicode="&#xc3;" horiz-adv-x="1400" d="M-4 16q0 26 67 47q59 17 102.5 52t74.5 106q196 444 383 963q14 38 20 67.5t6.5 40t1.5 11.5q54 17 74 30q12 8 21 26t13.5 32t8.5 14t7.5 -7.5t7.5 -22.5t5 -19q154 -488 365 -1094q39 -112 86.5 -152.5t120.5 -52.5q33 -6 50 -19t17 -28q0 -20 -59 -20q-24 0 -129.5 6 t-155.5 6q-44 0 -119 -1t-96 -1q-59 0 -59 25q0 27 68 38q124 19 124 93q0 68 -77 321q-4 14 -15.5 18.5t-40.5 4.5h-391q-22 0 -35 -37q-19 -57 -50.5 -162t-31.5 -123q0 -43 33.5 -73.5t85.5 -43.5q68 -17 68 -41q0 -22 -60 -22q-14 0 -78.5 2t-107.5 2q-48 0 -131.5 -6 t-114.5 -6q-59 0 -59 26zM461 1456q0 34 66.5 86.5t105.5 52.5q25 0 122 -9t122 -9q31 0 56 15.5t41 31.5t25 16q15 0 25 -9.5t10 -24.5q0 -31 -65 -86.5t-105 -55.5q-26 0 -127 10.5t-127 10.5q-23 0 -66 -32t-50 -32q-12 0 -22.5 10.5t-10.5 24.5zM494 602q0 -10 9.5 -12 t33.5 -2h317h13t8.5 1t6 3t1.5 6t-4 20l-162 490q-12 37 -19 37q-4 0 -16 -35l-184 -492q-4 -12 -4 -16z" />
<glyph unicode="&#xc4;" horiz-adv-x="1400" d="M-4 16q0 26 67 47q59 17 102.5 52t74.5 106q196 444 383 963q14 38 20 67.5t6.5 40t1.5 11.5q54 17 74 30q12 8 21 26t13.5 32t8.5 14t7.5 -7.5t7.5 -22.5t5 -19q154 -488 365 -1094q39 -112 86.5 -152.5t120.5 -52.5q33 -6 50 -19t17 -28q0 -20 -59 -20q-24 0 -129.5 6 t-155.5 6q-44 0 -119 -1t-96 -1q-59 0 -59 25q0 27 68 38q124 19 124 93q0 68 -77 321q-4 14 -15.5 18.5t-40.5 4.5h-391q-22 0 -35 -37q-19 -57 -50.5 -162t-31.5 -123q0 -43 33.5 -73.5t85.5 -43.5q68 -17 68 -41q0 -22 -60 -22q-14 0 -78.5 2t-107.5 2q-48 0 -131.5 -6 t-114.5 -6q-59 0 -59 26zM440 1526q0 43 30 72.5t73 29.5t72.5 -29.5t29.5 -72.5t-29.5 -73t-72.5 -30t-73 30t-30 73zM494 602q0 -10 9.5 -12t33.5 -2h317h13t8.5 1t6 3t1.5 6t-4 20l-162 490q-12 37 -19 37q-4 0 -16 -35l-184 -492q-4 -12 -4 -16zM840 1526 q0 43 29.5 72.5t72.5 29.5t72.5 -29.5t29.5 -72.5t-29.5 -73t-72.5 -30t-72.5 30t-29.5 73z" />
<glyph unicode="&#xc5;" horiz-adv-x="1400" d="M-4 16q0 26 67 47q59 17 102.5 52t74.5 106q196 444 383 963q14 38 20 67.5t6.5 40t1.5 11.5q54 17 74 30q12 8 21 26t13.5 32t8.5 14t7.5 -7.5t7.5 -22.5t5 -19q154 -488 365 -1094q39 -112 86.5 -152.5t120.5 -52.5q33 -6 50 -19t17 -28q0 -20 -59 -20q-24 0 -129.5 6 t-155.5 6q-44 0 -119 -1t-96 -1q-59 0 -59 25q0 27 68 38q124 19 124 93q0 68 -77 321q-4 14 -15.5 18.5t-40.5 4.5h-391q-22 0 -35 -37q-19 -57 -50.5 -162t-31.5 -123q0 -43 33.5 -73.5t85.5 -43.5q68 -17 68 -41q0 -22 -60 -22q-14 0 -78.5 2t-107.5 2q-48 0 -131.5 -6 t-114.5 -6q-59 0 -59 26zM494 602q0 -10 9.5 -12t33.5 -2h317h13t8.5 1t6 3t1.5 6t-4 20l-162 490q-12 37 -19 37q-4 0 -16 -35l-184 -492q-4 -12 -4 -16zM553 1575q0 68 56 111t130 43q68 0 119 -38t51 -100q0 -69 -55.5 -113t-130.5 -44q-69 0 -119.5 39t-50.5 102z M639 1581q0 -43 29.5 -72.5t72.5 -29.5q37 0 59.5 30.5t22.5 71.5t-28.5 70.5t-69.5 29.5q-38 0 -62 -29.5t-24 -70.5z" />
<glyph unicode="&#xc6;" horiz-adv-x="1773" d="M-10 12q0 24 67 45q52 15 111 71t102 130l559 959q7 12 -3.5 22t-30.5 12l-181 31q-20 9 -20 27q0 9 5.5 16.5t14.5 7.5q36 0 159.5 -3t199.5 -3q132 0 361 5t255 5h17q33 0 36 -18q23 -126 25 -211q0 -8 -9.5 -13t-19.5 -5t-14.5 4.5t-7.5 15.5q-23 73 -47 100 q-51 56 -137 56h-269q-22 0 -46.5 -14.5t-24.5 -39.5v-487q0 -18 9.5 -31.5t24.5 -13.5q99 0 197 4q64 3 90 27q24 21 35 49q3 8 16.5 21.5t20.5 13.5q9 0 18 -10.5t8 -22.5q-6 -70 -6 -121q0 -61 6 -149q0 -35 -18 -35t-30.5 16t-16.5 31q-24 76 -96 80q-86 4 -211 4 q-20 0 -33.5 -12t-13.5 -35v-314q0 -64 34 -109.5t99 -45.5h213q16 0 77 12t78 25q42 33 86 129q11 23 29 20q27 -4 27 -22q0 -73 -35 -211q-9 -35 -29 -35q-127 0 -329.5 6t-292.5 6h-41q-44 0 -111 -6t-125 -6q-59 0 -59 22q0 26 67 37q78 14 114 47t36 101v350 q0 18 -8.5 27.5t-36.5 9.5h-289q-37 0 -61 -47q-68 -115 -168 -308q-19 -36 -19 -61q0 -75 133 -107q68 -17 68 -41q0 -22 -60 -22q-14 0 -77 2t-105 2q-49 0 -138 -6t-120 -6q-59 0 -59 22zM610 682q0 -10 33 -10h254q24 0 28.5 3.5t4.5 26.5v486q0 37 -6 37q-9 0 -27 -35 l-279 -488q-8 -13 -8 -20z" />
<glyph unicode="&#xc7;" horiz-adv-x="1310" d="M94 662q0 145 61 275.5t163 222t238.5 145t283.5 53.5q50 0 119.5 -8t97.5 -17q80 -26 155 -37q23 -3 27 -61q14 -109 16 -223q2 -17 -3.5 -32.5t-18.5 -14.5q-18 2 -32.5 21.5t-20.5 53.5q-12 94 -72 150q-12 12 -30.5 25.5t-55.5 33.5t-93.5 32.5t-121.5 12.5 q-110 0 -206 -49t-161.5 -129.5t-103 -186.5t-37.5 -218q0 -100 23 -198.5t68.5 -184.5t107.5 -152t145 -104.5t176 -38.5q81 0 147 23t111 63.5t72 77.5t51 84q5 10 15.5 17.5t21.5 13t14 7.5q3 3 4 3q6 0 10.5 -12.5t4.5 -26.5q0 -3 -1 -9t-1 -8q-7 -47 -27 -114t-41 -99 q-9 -15 -88 -39q-2 -1 -3.5 -1.5t-4 -1t-4.5 -1.5q-54 -17 -153 -29t-191 -12q-182 0 -335 95t-240 254t-87 344zM623 -498q0 33 9.5 51.5t22.5 18.5q4 0 16 -7t40.5 -13.5t72.5 -6.5q32 0 59 20t27 60q0 44 -23.5 77.5t-72.5 33.5q-13 0 -29 -3t-24 -3q-24 0 -38.5 11.5 t-14.5 22.5q0 15 12 31l164 221h63l-84 -127q-7 -9 1.5 -18.5t19.5 -13.5q52 -23 93.5 -70.5t41.5 -112.5q0 -49 -28 -95t-69.5 -76t-86.5 -48t-80 -18q-49 0 -70.5 19t-21.5 46z" />
<glyph unicode="&#xc8;" horiz-adv-x="1095" d="M47 12q0 25 68 37q79 14 115 48.5t36 105.5v921q0 73 -30 104.5t-107 45.5q-68 12 -68 41q0 22 60 22q78 0 185 -3t177 -3q82 0 190.5 1.5t184.5 3t80 1.5q34 0 37 -18q31 -173 31 -211q0 -31 -29 -31q-17 0 -23 21q-29 95 -45 112q-51 56 -137 56h-268 q-21 0 -47.5 -19.5t-26.5 -46.5v-434q0 -19 11 -32t26 -13h197q43 0 76 22t48 58q3 8 16.5 21.5t20.5 13.5q9 0 18 -9.5t9 -23.5q0 -7 -3 -51t-3 -62q0 -24 2 -79t2 -60q0 -35 -19 -35q-18 0 -30.5 16t-16.5 31q-14 45 -40 68.5t-54 23.5h-190q-39 0 -54.5 -10t-15.5 -43 v-393q0 -76 32 -106.5t103 -30.5h213q48 0 80 5.5t45.5 12.5t30.5 19q42 33 86 129q11 23 29 20q26 -4 26 -22q0 -27 -12 -98.5t-23 -112.5q-8 -35 -28 -35q-138 0 -356.5 6t-313.5 6q-44 0 -111 -6t-125 -6q-59 0 -59 22zM324 1669q0 19 44 33t74 14q38 0 56 -26 q86 -124 157 -244q11 -18 11 -31q0 -12 -13 -12q-14 0 -37 18q-165 122 -266 209q-26 23 -26 39z" />
<glyph unicode="&#xc9;" horiz-adv-x="1095" d="M47 12q0 25 68 37q79 14 115 48.5t36 105.5v921q0 73 -30 104.5t-107 45.5q-68 12 -68 41q0 22 60 22q78 0 185 -3t177 -3q82 0 190.5 1.5t184.5 3t80 1.5q34 0 37 -18q31 -173 31 -211q0 -31 -29 -31q-17 0 -23 21q-29 95 -45 112q-51 56 -137 56h-268 q-21 0 -47.5 -19.5t-26.5 -46.5v-434q0 -19 11 -32t26 -13h197q43 0 76 22t48 58q3 8 16.5 21.5t20.5 13.5q9 0 18 -9.5t9 -23.5q0 -7 -3 -51t-3 -62q0 -24 2 -79t2 -60q0 -35 -19 -35q-18 0 -30.5 16t-16.5 31q-14 45 -40 68.5t-54 23.5h-190q-39 0 -54.5 -10t-15.5 -43 v-393q0 -76 32 -106.5t103 -30.5h213q48 0 80 5.5t45.5 12.5t30.5 19q42 33 86 129q11 23 29 20q26 -4 26 -22q0 -27 -12 -98.5t-23 -112.5q-8 -35 -28 -35q-138 0 -356.5 6t-313.5 6q-44 0 -111 -6t-125 -6q-59 0 -59 22zM510 1415q0 14 10 31q65 108 158 244q18 26 55 26 q30 0 74.5 -14t44.5 -33q0 -15 -27 -39q-101 -87 -266 -209q-23 -18 -37 -18q-12 0 -12 12z" />
<glyph unicode="&#xca;" horiz-adv-x="1095" d="M47 12q0 25 68 37q79 14 115 48.5t36 105.5v921q0 73 -30 104.5t-107 45.5q-68 12 -68 41q0 22 60 22q78 0 185 -3t177 -3q82 0 190.5 1.5t184.5 3t80 1.5q34 0 37 -18q31 -173 31 -211q0 -31 -29 -31q-17 0 -23 21q-29 95 -45 112q-51 56 -137 56h-268 q-21 0 -47.5 -19.5t-26.5 -46.5v-434q0 -19 11 -32t26 -13h197q43 0 76 22t48 58q3 8 16.5 21.5t20.5 13.5q9 0 18 -9.5t9 -23.5q0 -7 -3 -51t-3 -62q0 -24 2 -79t2 -60q0 -35 -19 -35q-18 0 -30.5 16t-16.5 31q-14 45 -40 68.5t-54 23.5h-190q-39 0 -54.5 -10t-15.5 -43 v-393q0 -76 32 -106.5t103 -30.5h213q48 0 80 5.5t45.5 12.5t30.5 19q42 33 86 129q11 23 29 20q26 -4 26 -22q0 -27 -12 -98.5t-23 -112.5q-8 -35 -28 -35q-138 0 -356.5 6t-313.5 6q-44 0 -111 -6t-125 -6q-59 0 -59 22zM289 1415q0 14 14 25l201 170q31 28 46.5 36.5 t37.5 8.5t37.5 -8.5t46.5 -36.5l200 -170q13 -10 13 -25q0 -9 -8 -15.5t-21 -6.5q-18 0 -109.5 43t-138.5 71q-13 7 -20.5 7t-20.5 -7q-46 -27 -137.5 -69.5t-110.5 -42.5q-30 0 -30 20z" />
<glyph unicode="&#xcb;" horiz-adv-x="1095" d="M47 12q0 25 68 37q79 14 115 48.5t36 105.5v921q0 73 -30 104.5t-107 45.5q-68 12 -68 41q0 22 60 22q78 0 185 -3t177 -3q82 0 190.5 1.5t184.5 3t80 1.5q34 0 37 -18q31 -173 31 -211q0 -31 -29 -31q-17 0 -23 21q-29 95 -45 112q-51 56 -137 56h-268 q-21 0 -47.5 -19.5t-26.5 -46.5v-434q0 -19 11 -32t26 -13h197q43 0 76 22t48 58q3 8 16.5 21.5t20.5 13.5q9 0 18 -9.5t9 -23.5q0 -7 -3 -51t-3 -62q0 -24 2 -79t2 -60q0 -35 -19 -35q-18 0 -30.5 16t-16.5 31q-14 45 -40 68.5t-54 23.5h-190q-39 0 -54.5 -10t-15.5 -43 v-393q0 -76 32 -106.5t103 -30.5h213q48 0 80 5.5t45.5 12.5t30.5 19q42 33 86 129q11 23 29 20q26 -4 26 -22q0 -27 -12 -98.5t-23 -112.5q-8 -35 -28 -35q-138 0 -356.5 6t-313.5 6q-44 0 -111 -6t-125 -6q-59 0 -59 22zM285 1526q0 43 29.5 72.5t72.5 29.5t72.5 -29.5 t29.5 -72.5t-29.5 -73t-72.5 -30t-72.5 30t-29.5 73zM684 1526q0 43 29.5 72.5t72.5 29.5t73 -29.5t30 -72.5t-30 -73t-73 -30t-72.5 30t-29.5 73z" />
<glyph unicode="&#xcc;" horiz-adv-x="696" d="M39 12q0 26 67 37q81 14 120.5 48.5t39.5 103.5v925q0 71 -30 102.5t-107 45.5q-68 12 -68 41q0 22 60 22q58 0 126 -3t113 -3q41 0 103.5 3t120.5 3q59 0 59 -22q0 -29 -68 -41q-79 -14 -112 -46t-33 -102v-925q0 -69 40.5 -103.5t121.5 -48.5q67 -11 67 -37 q0 -22 -59 -22q-58 0 -126.5 5t-113.5 5q-50 0 -127.5 -5t-134.5 -5q-59 0 -59 22zM106 1669q0 19 44.5 33t74.5 14q38 0 56 -26q86 -124 157 -244q11 -18 11 -31q0 -12 -13 -12q-14 0 -37 18q-165 122 -266 209q-27 24 -27 39z" />
<glyph unicode="&#xcd;" horiz-adv-x="696" d="M39 12q0 26 67 37q81 14 120.5 48.5t39.5 103.5v925q0 71 -30 102.5t-107 45.5q-68 12 -68 41q0 22 60 22q58 0 126 -3t113 -3q41 0 103.5 3t120.5 3q59 0 59 -22q0 -29 -68 -41q-79 -14 -112 -46t-33 -102v-925q0 -69 40.5 -103.5t121.5 -48.5q67 -11 67 -37 q0 -22 -59 -22q-58 0 -126.5 5t-113.5 5q-50 0 -127.5 -5t-134.5 -5q-59 0 -59 22zM293 1415q0 14 10 31q65 108 158 244q18 26 55 26q30 0 74.5 -14t44.5 -33q0 -15 -27 -39q-101 -87 -266 -209q-23 -18 -37 -18q-12 0 -12 12z" />
<glyph unicode="&#xce;" horiz-adv-x="696" d="M39 12q0 26 67 37q81 14 120.5 48.5t39.5 103.5v925q0 71 -30 102.5t-107 45.5q-68 12 -68 41q0 22 60 22q58 0 126 -3t113 -3q41 0 103.5 3t120.5 3q59 0 59 -22q0 -29 -68 -41q-79 -14 -112 -46t-33 -102v-925q0 -69 40.5 -103.5t121.5 -48.5q67 -11 67 -37 q0 -22 -59 -22q-58 0 -126.5 5t-113.5 5q-50 0 -127.5 -5t-134.5 -5q-59 0 -59 22zM57 1415q0 13 15 25l200 170q31 28 46.5 36.5t37.5 8.5t37.5 -8.5t46.5 -36.5l201 -170q12 -10 12 -25q0 -22 -28 -22q-18 0 -109.5 43t-138.5 71q-14 7 -20.5 7t-20.5 -7 q-46 -27 -137.5 -69.5t-110.5 -42.5q-31 0 -31 20z" />
<glyph unicode="&#xcf;" horiz-adv-x="696" d="M39 12q0 26 67 37q81 14 120.5 48.5t39.5 103.5v925q0 71 -30 102.5t-107 45.5q-68 12 -68 41q0 22 60 22q58 0 126 -3t113 -3q41 0 103.5 3t120.5 3q59 0 59 -22q0 -29 -68 -41q-79 -14 -112 -46t-33 -102v-925q0 -69 40.5 -103.5t121.5 -48.5q67 -11 67 -37 q0 -22 -59 -22q-58 0 -126.5 5t-113.5 5q-50 0 -127.5 -5t-134.5 -5q-59 0 -59 22zM45 1526q0 43 29.5 72.5t72.5 29.5t73 -29.5t30 -72.5t-30 -73t-73 -30t-72.5 30t-29.5 73zM444 1526q0 43 30 72.5t73 29.5t72.5 -29.5t29.5 -72.5t-29.5 -73t-72.5 -30t-73 30t-30 73z " />
<glyph unicode="&#xd0;" horiz-adv-x="1544" d="M59 12q0 25 68 37q77 14 107 47.5t30 106.5v446h-141q-12 0 -20.5 13t-8.5 24q0 14 15 25.5t34 11.5h121v401q0 73 -30 104.5t-107 45.5q-68 12 -68 41q0 22 60 22q59 0 116.5 -2t96.5 -2h14q48 0 187.5 8.5t162.5 8.5q164 0 290.5 -31t212 -87.5t140.5 -140t79 -183 t24 -222.5q0 -141 -52 -269.5t-142 -223.5t-217 -151t-271 -56q-5 0 -167.5 7t-258.5 7q-38 0 -97.5 -5t-117.5 -5q-60 0 -60 22zM430 248q0 -58 17 -87.5t55 -58.5q60 -45 147 -45q17 0 57 2t64 2q113 0 206 57t150.5 150t89 207t31.5 234q0 160 -67 291.5t-191 208.5 t-282 77q-47 0 -72 -0.5t-60 -3t-52.5 -7t-38.5 -13.5t-31 -22.5t-16.5 -33t-6.5 -45.5v-438h342q10 0 19.5 -7t9.5 -16q0 -1 -1 -3t-1 -3q-23 -45 -64 -45h-305v-401z" />
<glyph unicode="&#xd1;" horiz-adv-x="1576" d="M4 1319q0 29 47 29q67 -2 151 -6.5t165 -4.5q12 0 22 -6t13 -10t14 -18q27 -37 385 -488.5t395 -495.5q33 -40 51 -40t21 43q4 132 4 655v178q-1 37 -41.5 71.5t-77.5 41.5q-68 12 -68 41q0 22 60 22h117q46 0 107.5 3t127.5 3q59 0 59 -22q0 -30 -67 -41 q-75 -13 -101 -36t-28 -75q-4 -98 -4 -1147q0 -51 -43 -51q-24 0 -72.5 34t-93.5 95q-24 33 -337.5 417.5t-391.5 479.5q-26 33 -43 33q-19 0 -19 -43q-10 -508 -10 -768q0 -141 131 -164q68 -12 68 -37q0 -22 -60 -22t-109 5t-83 5q-32 0 -79.5 -5t-107.5 -5q-59 0 -59 22 q0 13 15.5 21t52.5 18q105 27 118 168q37 356 37 819q0 101 -49.5 150t-152.5 82q-10 3 -22.5 8.5t-27 17.5t-14.5 23zM559 1456q0 34 66.5 86.5t105.5 52.5q26 0 122.5 -9t121.5 -9q24 0 45.5 10t33.5 21.5t24 21.5t20 10q15 0 25 -9.5t10 -24.5q0 -31 -65 -86.5 t-105 -55.5q-25 0 -127 10.5t-127 10.5q-23 0 -66.5 -32t-50.5 -32q-12 0 -22.5 10.5t-10.5 24.5z" />
<glyph unicode="&#xd2;" horiz-adv-x="1562" d="M92 655q0 112 29 215.5t88 193t142.5 155.5t198.5 103.5t249 37.5q133 0 255 -49.5t214 -136t147 -214t55 -274.5q0 -140 -45.5 -267.5t-129.5 -228t-217 -160t-296 -59.5q-134 0 -260 53t-221 142.5t-152 218t-57 270.5zM291 717q0 -175 65.5 -327t185.5 -245.5 t267 -93.5q226 0 344.5 153t118.5 421q0 196 -57 342.5t-171.5 229.5t-275.5 83q-88 0 -165.5 -31t-133.5 -84.5t-97 -125t-61 -154t-20 -168.5zM520 1669q0 19 44.5 33t74.5 14q37 0 55 -26q93 -136 158 -244q10 -17 10 -31q0 -12 -12 -12q-14 0 -37 18q-165 122 -266 209 q-27 24 -27 39z" />
<glyph unicode="&#xd3;" horiz-adv-x="1562" d="M92 655q0 112 29 215.5t88 193t142.5 155.5t198.5 103.5t249 37.5q133 0 255 -49.5t214 -136t147 -214t55 -274.5q0 -140 -45.5 -267.5t-129.5 -228t-217 -160t-296 -59.5q-134 0 -260 53t-221 142.5t-152 218t-57 270.5zM291 717q0 -175 65.5 -327t185.5 -245.5 t267 -93.5q226 0 344.5 153t118.5 421q0 196 -57 342.5t-171.5 229.5t-275.5 83q-88 0 -165.5 -31t-133.5 -84.5t-97 -125t-61 -154t-20 -168.5zM707 1415q0 14 10 31q71 120 157 244q18 26 56 26q30 0 74.5 -14t44.5 -33q0 -15 -27 -39q-101 -87 -266 -209q-23 -18 -37 -18 q-12 0 -12 12z" />
<glyph unicode="&#xd4;" horiz-adv-x="1562" d="M92 655q0 112 29 215.5t88 193t142.5 155.5t198.5 103.5t249 37.5q133 0 255 -49.5t214 -136t147 -214t55 -274.5q0 -140 -45.5 -267.5t-129.5 -228t-217 -160t-296 -59.5q-134 0 -260 53t-221 142.5t-152 218t-57 270.5zM291 717q0 -175 65.5 -327t185.5 -245.5 t267 -93.5q226 0 344.5 153t118.5 421q0 196 -57 342.5t-171.5 229.5t-275.5 83q-88 0 -165.5 -31t-133.5 -84.5t-97 -125t-61 -154t-20 -168.5zM485 1415q0 13 15 25l200 170q31 28 46.5 36.5t37.5 8.5t37.5 -8.5t46.5 -36.5l201 -170q12 -10 12 -25q0 -22 -28 -22 q-18 0 -109.5 43t-138.5 71q-14 7 -21 7t-20 -7q-46 -27 -137.5 -69.5t-110.5 -42.5q-31 0 -31 20z" />
<glyph unicode="&#xd5;" horiz-adv-x="1562" d="M92 655q0 112 29 215.5t88 193t142.5 155.5t198.5 103.5t249 37.5q133 0 255 -49.5t214 -136t147 -214t55 -274.5q0 -140 -45.5 -267.5t-129.5 -228t-217 -160t-296 -59.5q-134 0 -260 53t-221 142.5t-152 218t-57 270.5zM291 717q0 -175 65.5 -327t185.5 -245.5 t267 -93.5q226 0 344.5 153t118.5 421q0 196 -57 342.5t-171.5 229.5t-275.5 83q-88 0 -165.5 -31t-133.5 -84.5t-97 -125t-61 -154t-20 -168.5zM502 1456q0 34 66.5 86.5t105.5 52.5q26 0 122 -9t122 -9q31 0 56 15.5t41 31.5t25 16q15 0 25 -9.5t10 -24.5q0 -31 -65 -86.5 t-105 -55.5q-25 0 -127 10.5t-127 10.5q-23 0 -66 -32t-50 -32q-13 0 -23 10.5t-10 24.5z" />
<glyph unicode="&#xd6;" horiz-adv-x="1562" d="M92 655q0 112 29 215.5t88 193t142.5 155.5t198.5 103.5t249 37.5q133 0 255 -49.5t214 -136t147 -214t55 -274.5q0 -140 -45.5 -267.5t-129.5 -228t-217 -160t-296 -59.5q-134 0 -260 53t-221 142.5t-152 218t-57 270.5zM291 717q0 -175 65.5 -327t185.5 -245.5 t267 -93.5q226 0 344.5 153t118.5 421q0 196 -57 342.5t-171.5 229.5t-275.5 83q-88 0 -165.5 -31t-133.5 -84.5t-97 -125t-61 -154t-20 -168.5zM481 1526q0 43 30 72.5t73 29.5t72.5 -29.5t29.5 -72.5t-29.5 -73t-72.5 -30t-73 30t-30 73zM881 1526q0 43 29.5 72.5 t72.5 29.5t72.5 -29.5t29.5 -72.5t-29.5 -73t-72.5 -30t-72.5 30t-29.5 73z" />
<glyph unicode="&#xd7;" horiz-adv-x="1228" d="M221 209q0 14 10 24l275 275q9 9 -2 20l-248 248q-10 10 -10 29q0 40 33 84q7 7 19 7t19 -7l277 -277q8 -8 12 -4l2 2l295 293q10 10 21 10t18 -10q3 -6 11 -20t12 -22t8 -19.5t4 -20.5q0 -16 -14 -30l-269 -269q-5 -5 0 -10l293 -293q10 -10 10 -24q0 -27 -21.5 -56.5 t-39.5 -29.5q-13 0 -21 8l-305 307q-7 7 -14 0l-293 -293q-7 -7 -19 -7.5t-18 5.5q-45 45 -45 80z" />
<glyph unicode="&#xd8;" horiz-adv-x="1583" d="M100 12q0 20 21 41l153 152q-172 193 -172 450q0 112 29 215.5t88 193t142.5 155.5t198.5 103.5t249 37.5q129 0 247.5 -45t211.5 -129l164 162q10 11 27.5 7.5t21.5 -16.5q6 -24 6 -30q0 -23 -14 -37l-148 -148q156 -184 156 -438q0 -140 -45.5 -267.5t-129.5 -228 t-217 -160t-296 -59.5q-124 0 -241 44.5t-212 125.5l-164 -164q-6 -6 -18 -6q-22 0 -40 13t-18 28zM301 717q0 -223 90 -387l772 753q-132 197 -385 197q-88 0 -165.5 -31t-133.5 -84.5t-97 -125t-61 -154t-20 -168.5zM442 252q71 -93 169 -147t208 -54q226 0 344.5 153 t118.5 421q0 228 -76 383z" />
<glyph unicode="&#xd9;" horiz-adv-x="1511" d="M49 1315q0 22 60 22q29 0 92.5 -3t103.5 -3q34 0 89.5 2t74.5 2q59 0 59 -22q0 -13 -15 -21t-52 -20q-29 -9 -57.5 -50.5t-28.5 -97.5v-575q0 -237 117 -356t313 -119q204 0 305.5 142t101.5 390q0 125 -8 441q-2 85 -23 148.5t-61 74.5q-67 18 -67 41q0 22 59 22 q31 0 78 -1t76 -1q35 0 90 3t76 3q59 0 59 -22q0 -27 -68 -41q-95 -19 -102 -154q-6 -106 -10 -208t-6.5 -224.5t-4.5 -175.5q-5 -156 -76 -280t-192 -192.5t-270 -68.5q-269 0 -410 140t-141 381v628q0 67 -27 103t-67 47q-68 17 -68 45zM535 1669q0 19 44 33t74 14 q38 0 56 -26q86 -124 157 -244q11 -18 11 -31q0 -12 -13 -12q-14 0 -37 18q-165 122 -266 209q-26 23 -26 39z" />
<glyph unicode="&#xda;" horiz-adv-x="1511" d="M49 1315q0 22 60 22q29 0 92.5 -3t103.5 -3q34 0 89.5 2t74.5 2q59 0 59 -22q0 -13 -15 -21t-52 -20q-29 -9 -57.5 -50.5t-28.5 -97.5v-575q0 -237 117 -356t313 -119q204 0 305.5 142t101.5 390q0 125 -8 441q-2 85 -23 148.5t-61 74.5q-67 18 -67 41q0 22 59 22 q31 0 78 -1t76 -1q35 0 90 3t76 3q59 0 59 -22q0 -27 -68 -41q-95 -19 -102 -154q-6 -106 -10 -208t-6.5 -224.5t-4.5 -175.5q-5 -156 -76 -280t-192 -192.5t-270 -68.5q-269 0 -410 140t-141 381v628q0 67 -27 103t-67 47q-68 17 -68 45zM721 1415q0 14 10 31 q65 108 158 244q18 26 55 26q30 0 74.5 -14t44.5 -33q0 -15 -27 -39q-101 -87 -266 -209q-23 -18 -37 -18q-12 0 -12 12z" />
<glyph unicode="&#xdb;" horiz-adv-x="1511" d="M49 1315q0 22 60 22q29 0 92.5 -3t103.5 -3q34 0 89.5 2t74.5 2q59 0 59 -22q0 -13 -15 -21t-52 -20q-29 -9 -57.5 -50.5t-28.5 -97.5v-575q0 -237 117 -356t313 -119q204 0 305.5 142t101.5 390q0 125 -8 441q-2 85 -23 148.5t-61 74.5q-67 18 -67 41q0 22 59 22 q31 0 78 -1t76 -1q35 0 90 3t76 3q59 0 59 -22q0 -27 -68 -41q-95 -19 -102 -154q-6 -106 -10 -208t-6.5 -224.5t-4.5 -175.5q-5 -156 -76 -280t-192 -192.5t-270 -68.5q-269 0 -410 140t-141 381v628q0 67 -27 103t-67 47q-68 17 -68 45zM500 1456q0 14 14 25l201 170 q31 28 46.5 36.5t37.5 8.5t37.5 -8.5t46.5 -36.5l200 -170q13 -10 13 -25q0 -9 -8 -15.5t-21 -6.5q-18 0 -109.5 43t-138.5 71q-13 8 -20.5 8t-20.5 -8q-46 -27 -137.5 -69.5t-110.5 -42.5q-30 0 -30 20z" />
<glyph unicode="&#xdc;" horiz-adv-x="1511" d="M49 1315q0 22 60 22q29 0 92.5 -3t103.5 -3q34 0 89.5 2t74.5 2q59 0 59 -22q0 -13 -15 -21t-52 -20q-29 -9 -57.5 -50.5t-28.5 -97.5v-575q0 -237 117 -356t313 -119q204 0 305.5 142t101.5 390q0 125 -8 441q-2 85 -23 148.5t-61 74.5q-67 18 -67 41q0 22 59 22 q31 0 78 -1t76 -1q35 0 90 3t76 3q59 0 59 -22q0 -27 -68 -41q-95 -19 -102 -154q-6 -106 -10 -208t-6.5 -224.5t-4.5 -175.5q-5 -156 -76 -280t-192 -192.5t-270 -68.5q-269 0 -410 140t-141 381v628q0 67 -27 103t-67 47q-68 17 -68 45zM496 1526q0 43 29.5 72.5 t72.5 29.5t72.5 -29.5t29.5 -72.5t-29.5 -73t-72.5 -30t-72.5 30t-29.5 73zM895 1526q0 43 29.5 72.5t72.5 29.5t73 -29.5t30 -72.5t-30 -73t-73 -30t-72.5 30t-29.5 73z" />
<glyph unicode="&#xdd;" horiz-adv-x="1183" d="M0 1315q0 22 59 22q26 0 107.5 -3t132.5 -3q34 0 89.5 2t74.5 2q59 0 59 -22q0 -26 -67 -41q-34 -9 -50 -19.5t-16 -31.5q0 -25 27 -74l188 -338q26 -45 38 -61.5t20 -16.5q11 0 23.5 15.5t43.5 62.5q74 113 172 285q37 62 37 104q0 59 -84 72q-23 3 -45.5 15.5 t-22.5 25.5q0 22 60 22q31 0 77.5 -1t75.5 -1q47 0 120.5 3t92.5 3q60 0 60 -22q0 -20 -109 -51q-26 -7 -46.5 -19.5t-44.5 -41.5t-38.5 -50t-50.5 -76q-121 -185 -227 -368q-36 -63 -43.5 -92t-7.5 -93v-303q0 -69 42 -113.5t119 -58.5q68 -12 68 -37q0 -22 -60 -22 q-58 0 -126 5t-113 5q-50 0 -127.5 -5t-134.5 -5q-60 0 -60 22q0 25 68 37q160 28 160 172v303q0 58 -52 152l-239 393q-115 182 -182 201q-68 21 -68 45zM578 1415q0 14 10 31q71 120 157 244q18 26 56 26q30 0 74.5 -14t44.5 -33q0 -15 -27 -39q-101 -87 -266 -209 q-23 -18 -37 -18q-12 0 -12 12z" />
<glyph unicode="&#xde;" horiz-adv-x="1144" d="M45 12q0 25 68 37q81 14 121 49t40 105v921q0 68 -22.5 102.5t-93.5 47.5q-68 12 -68 41q0 22 60 22q59 0 116 -3t96 -3q45 0 115.5 3t128.5 3q60 0 60 -22q0 -29 -68 -41q-82 -14 -121 -47t-39 -103v-34q0 -41 13 -41q3 0 25 5l22 5q55 14 147 14q115 0 207 -39 t150.5 -122.5t58.5 -200.5q0 -73 -48.5 -176.5t-113.5 -153.5q-66 -51 -174 -79t-201 -28q-16 0 -38.5 3.5t-30.5 3.5q-7 0 -12 -5.5t-5 -13.5v-65q0 -119 162 -148q68 -12 68 -37q0 -22 -60 -22q-58 0 -126 5t-113 5q-50 0 -129 -5t-136 -5q-59 0 -59 22zM438 387 q0 -24 35.5 -38.5t69.5 -14.5q128 0 198 53q72 54 101.5 128t29.5 171q0 125 -74 222.5t-186 97.5q-42 0 -79 -7t-66 -25.5t-29 -47.5v-539z" />
<glyph unicode="&#xdf;" horiz-adv-x="1034" d="M51 12q0 21 47 37q86 25 86 92v576q-63 0 -106 4q-6 2 -14.5 13.5t-8.5 21.5t8 14q18 5 32 9.5t27 10.5t20.5 10t21.5 12t20 11q0 136 29.5 246t76 178.5t107.5 115t119 65t115 18.5q128 0 214.5 -82t86.5 -193q0 -49 -16.5 -91.5t-33.5 -64t-44 -46.5l-68 -62 q-9 -9 -33.5 -31t-36 -35.5t-23 -39.5t-11.5 -56q0 -46 39 -83l190 -185q42 -43 60 -87t18 -103q0 -50 -23 -99t-58.5 -86t-67.5 -62.5t-60 -39.5q-34 -17 -61 -21t-89 -4q-30 0 -74 26t-44 58q0 33 17 73t42 40q6 0 18 -8q95 -74 177 -74q46 0 81 27.5t35 83.5q0 27 -7 49 t-30 50t-38.5 43.5t-59.5 57.5l-143 140q-43 39 -63.5 71.5t-20.5 75.5t30 80t93 88t92 82q37 38 60.5 92t23.5 107q0 40 -10 75t-34.5 71t-75.5 57.5t-124 21.5q-103 0 -167 -96.5t-64 -292.5v-832q0 -67 86 -92q47 -16 47 -37q0 -18 -47 -18q-41 0 -81 5t-75 5t-77 -5 t-83 -5q-47 0 -47 18z" />
<glyph unicode="&#xe0;" d="M72 133q0 123 149 184l209 86q39 17 47 28.5t10 53.5l5 131q2 54 -32.5 93t-88.5 39q-35 0 -73.5 -21.5t-51.5 -44.5q-8 -13 -8 -39q0 -5 1 -14.5t1 -14.5q0 -20 -58.5 -45.5t-83.5 -25.5q-16 0 -16 18q0 69 82 141q59 54 145 100t160 46q72 0 121 -53.5t47 -128.5 l-10 -443q0 -157 73 -157q50 0 82 28q9 9 21 1.5t12 -19.5q0 -9 -24 -34t-64.5 -48t-75.5 -23q-33 0 -59 11t-40.5 26.5t-24.5 31.5t-16.5 27t-10.5 11q-8 0 -28 -16.5t-45 -36.5t-73.5 -36.5t-105.5 -17.5q-63 0 -119.5 51t-56.5 111zM135 1282q0 23 29.5 35t71.5 12 q15 0 30.5 -11t24.5 -26q46 -80 106 -195.5t60 -135.5q0 -10 -1 -15t-5 -8.5t-13 -3.5q-21 0 -61 45q-67 73 -154.5 178.5t-87.5 124.5zM236 178q0 -53 32.5 -82.5t67.5 -29.5q60 0 123 55q22 18 24 82l4 100q3 43 -18 43q-14 0 -29 -6q-109 -37 -156.5 -79.5t-47.5 -82.5z " />
<glyph unicode="&#xe1;" d="M72 133q0 123 149 184l209 86q39 17 47 28.5t10 53.5l5 131q2 54 -32.5 93t-88.5 39q-35 0 -73.5 -21.5t-51.5 -44.5q-8 -13 -8 -39q0 -5 1 -14.5t1 -14.5q0 -20 -58.5 -45.5t-83.5 -25.5q-16 0 -16 18q0 69 82 141q59 54 145 100t160 46q72 0 121 -53.5t47 -128.5 l-10 -443q0 -157 73 -157q50 0 82 28q9 9 21 1.5t12 -19.5q0 -9 -24 -34t-64.5 -48t-75.5 -23q-33 0 -59 11t-40.5 26.5t-24.5 31.5t-16.5 27t-10.5 11q-8 0 -28 -16.5t-45 -36.5t-73.5 -36.5t-105.5 -17.5q-63 0 -119.5 51t-56.5 111zM236 178q0 -53 32.5 -82.5t67.5 -29.5 q60 0 123 55q22 18 24 82l4 100q3 43 -18 43q-14 0 -29 -6q-109 -37 -156.5 -79.5t-47.5 -82.5zM326 961q0 20 60 135.5t106 195.5q9 15 24.5 26t30.5 11q42 0 71 -12t29 -35q0 -19 -87.5 -125.5t-153.5 -177.5q-40 -45 -62 -45q-12 0 -15 5.5t-3 21.5z" />
<glyph unicode="&#xe2;" d="M72 133q0 123 149 184l209 86q39 17 47 28.5t10 53.5l5 131q2 54 -32.5 93t-88.5 39q-35 0 -73.5 -21.5t-51.5 -44.5q-8 -13 -8 -39q0 -5 1 -14.5t1 -14.5q0 -20 -58.5 -45.5t-83.5 -25.5q-16 0 -16 18q0 69 82 141q59 54 145 100t160 46q72 0 121 -53.5t47 -128.5 l-10 -443q0 -157 73 -157q50 0 82 28q9 9 21 1.5t12 -19.5q0 -9 -24 -34t-64.5 -48t-75.5 -23q-33 0 -59 11t-40.5 26.5t-24.5 31.5t-16.5 27t-10.5 11q-8 0 -28 -16.5t-45 -36.5t-73.5 -36.5t-105.5 -17.5q-63 0 -119.5 51t-56.5 111zM170 942q0 20 68 147.5t112 200.5 q21 37 41 37t41 -37q46 -76 114 -202t68 -146q0 -11 -0.5 -15.5t-4.5 -8t-13 -3.5q-11 0 -30.5 15t-30.5 31q-36 47 -136 172q-2 3 -3.5 4.5t-3.5 1.5t-3.5 -1.5t-3.5 -4.5q-50 -60 -135 -172q-12 -15 -31.5 -30.5t-30.5 -15.5q-12 0 -15 5.5t-3 21.5zM236 178 q0 -53 32.5 -82.5t67.5 -29.5q60 0 123 55q22 18 24 82l4 100q3 43 -18 43q-14 0 -29 -6q-109 -37 -156.5 -79.5t-47.5 -82.5z" />
<glyph unicode="&#xe3;" d="M72 133q0 123 149 184l209 86q39 17 47 28.5t10 53.5l5 131q2 54 -32.5 93t-88.5 39q-35 0 -73.5 -21.5t-51.5 -44.5q-8 -13 -8 -39q0 -5 1 -14.5t1 -14.5q0 -20 -58.5 -45.5t-83.5 -25.5q-16 0 -16 18q0 69 82 141q59 54 145 100t160 46q72 0 121 -53.5t47 -128.5 l-10 -443q0 -157 73 -157q50 0 82 28q9 9 21 1.5t12 -19.5q0 -9 -24 -34t-64.5 -48t-75.5 -23q-33 0 -59 11t-40.5 26.5t-24.5 31.5t-16.5 27t-10.5 11q-8 0 -28 -16.5t-45 -36.5t-73.5 -36.5t-105.5 -17.5q-63 0 -119.5 51t-56.5 111zM133 1004q0 19 73 95.5t107 76.5 q25 0 109 -8.5t110 -8.5q25 0 46.5 11t33.5 24t22 24t15 11q15 0 24 -10t9 -25q0 -19 -70 -94.5t-104 -75.5q-25 0 -114.5 7t-114.5 7q-22 0 -48 -19t-44.5 -37.5t-24.5 -18.5q-14 0 -21.5 12t-7.5 29zM236 178q0 -53 32.5 -82.5t67.5 -29.5q60 0 123 55q22 18 24 82l4 100 q3 43 -18 43q-14 0 -29 -6q-109 -37 -156.5 -79.5t-47.5 -82.5z" />
<glyph unicode="&#xe4;" d="M72 133q0 123 149 184l209 86q39 17 47 28.5t10 53.5l5 131q2 54 -32.5 93t-88.5 39q-35 0 -73.5 -21.5t-51.5 -44.5q-8 -13 -8 -39q0 -5 1 -14.5t1 -14.5q0 -20 -58.5 -45.5t-83.5 -25.5q-16 0 -16 18q0 69 82 141q59 54 145 100t160 46q72 0 121 -53.5t47 -128.5 l-10 -443q0 -157 73 -157q50 0 82 28q9 9 21 1.5t12 -19.5q0 -9 -24 -34t-64.5 -48t-75.5 -23q-33 0 -59 11t-40.5 26.5t-24.5 31.5t-16.5 27t-10.5 11q-8 0 -28 -16.5t-45 -36.5t-73.5 -36.5t-105.5 -17.5q-63 0 -119.5 51t-56.5 111zM117 1112q0 38 32 70t70 32t70.5 -32 t32.5 -70t-32.5 -70t-70.5 -32t-70 32t-32 70zM236 178q0 -53 32.5 -82.5t67.5 -29.5q60 0 123 55q22 18 24 82l4 100q3 43 -18 43q-14 0 -29 -6q-109 -37 -156.5 -79.5t-47.5 -82.5zM479 1112q0 38 32.5 70t70.5 32t70 -32t32 -70t-32 -70t-70 -32t-70.5 32t-32.5 70z" />
<glyph unicode="&#xe5;" d="M72 133q0 123 149 184l209 86q39 17 47 28.5t10 53.5l5 131q2 54 -32.5 93t-88.5 39q-35 0 -73.5 -21.5t-51.5 -44.5q-8 -13 -8 -39q0 -5 1 -14.5t1 -14.5q0 -20 -58.5 -45.5t-83.5 -25.5q-16 0 -16 18q0 69 82 141q59 54 145 100t160 46q72 0 121 -53.5t47 -128.5 l-10 -443q0 -157 73 -157q50 0 82 28q9 9 21 1.5t12 -19.5q0 -9 -24 -34t-64.5 -48t-75.5 -23q-33 0 -59 11t-40.5 26.5t-24.5 31.5t-16.5 27t-10.5 11q-8 0 -28 -16.5t-45 -36.5t-73.5 -36.5t-105.5 -17.5q-63 0 -119.5 51t-56.5 111zM221 1153q0 67 55 119.5t123 52.5 t117 -46.5t49 -113.5q0 -77 -54 -129.5t-124 -52.5q-67 0 -116.5 51t-49.5 119zM236 178q0 -53 32.5 -82.5t67.5 -29.5q60 0 123 55q22 18 24 82l4 100q3 43 -18 43q-14 0 -29 -6q-109 -37 -156.5 -79.5t-47.5 -82.5zM305 1163q0 -52 27 -89.5t69 -37.5q80 0 80 115 q0 45 -29.5 82t-70.5 37q-76 0 -76 -107z" />
<glyph unicode="&#xe6;" horiz-adv-x="1114" d="M72 133q0 63 36 106t113 78l213 97q41 19 50.5 29t9.5 34v135q0 56 -34 96t-89 40q-35 0 -73.5 -22.5t-51.5 -45.5q-8 -13 -8 -39q0 -5 1 -14.5t1 -14.5q0 -20 -58.5 -45.5t-83.5 -25.5q-16 0 -16 18q0 69 82 141q60 54 146 101t159 47q30 0 73.5 -23t55.5 -45 q7 -15 25 -2q37 27 103 47.5t116 20.5q90 0 164.5 -51.5t74.5 -143.5q0 -21 -7 -35t-15.5 -19.5t-26.5 -14.5q-12 -6 -88.5 -39.5t-171.5 -75t-117 -51.5q-8 -4 -15 -16.5t-7 -20.5v-115q0 -93 51 -131.5t129 -38.5q141 0 227 99q8 8 19 8q10 0 18 -7t8 -16q0 -6 -2 -8 q-71 -104 -146 -151.5t-187 -47.5q-127 0 -224 82q-25 25 -26 25q-9 0 -17 -8q-2 -1 -22.5 -18.5t-35.5 -27t-42.5 -24t-61.5 -21.5t-73 -8q-63 0 -119.5 51t-56.5 111zM236 178q0 -53 32.5 -82.5t67.5 -29.5q64 0 127 55q9 8 14 14t10 22t5 40v106q0 28 -3 38.5t-14 10.5 q-15 0 -51.5 -13t-78.5 -34t-75 -55.5t-34 -71.5zM635 520q0 -14 11 -19t20 -1q58 24 153 58.5t107 39.5q14 5 14 29q0 21 -8 45q-42 102 -144 102q-20 0 -54.5 -13.5t-66 -42t-32.5 -61.5v-137z" />
<glyph unicode="&#xe7;" horiz-adv-x="772" d="M72 369q0 126 54.5 235t155 175.5t222.5 66.5q167 0 246 -98q10 -13 10 -25q0 -24 -30 -47t-48 -23q-30 0 -51 21q-55 60 -88 78t-105 18q-71 0 -124 -46.5t-77 -114.5t-24 -146q0 -99 39.5 -186.5t115.5 -143t171 -55.5q62 0 100 23t80 79q10 10 18 10q9 0 17 -9t8 -19 q0 -51 -79 -108t-185 -77l-52 -65q-8 -8 -8 -16t8 -15.5t15 -9.5q53 -23 89 -65t36 -91q0 -58 -29.5 -112t-71 -88.5t-84 -55t-71.5 -20.5q-62 0 -62 84q0 19 9.5 29t17.5 10l33 -12q34 -11 75 -11q39 0 59.5 25.5t20.5 66.5q0 55 -33 86t-88 31q-15 0 -31.5 -6t-21.5 -6 q-12 0 -24.5 9t-12.5 22q0 5 11 20l145 184h-6q-101 0 -182 55.5t-124.5 146t-43.5 196.5z" />
<glyph unicode="&#xe8;" horiz-adv-x="794" d="M61 416q0 114 53 213.5t147.5 159t207.5 59.5q123 0 193.5 -51.5t70.5 -134.5q0 -92 -43 -113q-48 -23 -115 -23h-335q-28 0 -40 -13.5t-12 -61.5q0 -143 88 -250t222 -107q48 0 102 21.5t90 68.5q15 15 23 15q10 0 13 -14.5t-1 -26.5q-8 -29 -32.5 -60t-63 -60 t-97.5 -48t-126 -19q-144 0 -244.5 123t-100.5 322zM176 1282q0 23 29 35t71 12q15 0 31 -11t25 -26q46 -80 106 -195.5t60 -135.5q0 -15 -3 -21t-16 -6q-21 0 -61 45q-67 73 -154.5 178.5t-87.5 124.5zM227 621q0 -31 39 -31h168q96 0 150 10q20 3 20 57q0 58 -51.5 92.5 t-116.5 34.5q-79 0 -144 -58.5t-65 -104.5z" />
<glyph unicode="&#xe9;" horiz-adv-x="794" d="M61 416q0 114 53 213.5t147.5 159t207.5 59.5q123 0 193.5 -51.5t70.5 -134.5q0 -92 -43 -113q-48 -23 -115 -23h-335q-28 0 -40 -13.5t-12 -61.5q0 -143 88 -250t222 -107q48 0 102 21.5t90 68.5q15 15 23 15q10 0 13 -14.5t-1 -26.5q-8 -29 -32.5 -60t-63 -60 t-97.5 -48t-126 -19q-144 0 -244.5 123t-100.5 322zM227 621q0 -31 39 -31h168q96 0 150 10q20 3 20 57q0 58 -51.5 92.5t-116.5 34.5q-79 0 -144 -58.5t-65 -104.5zM367 961q0 20 60 136.5t105 194.5q9 15 25 26t31 11q42 0 71 -12t29 -35q0 -19 -87.5 -124.5 t-154.5 -178.5q-40 -45 -61 -45q-12 0 -15 5.5t-3 21.5z" />
<glyph unicode="&#xea;" horiz-adv-x="794" d="M61 416q0 114 53 213.5t147.5 159t207.5 59.5q123 0 193.5 -51.5t70.5 -134.5q0 -92 -43 -113q-48 -23 -115 -23h-335q-28 0 -40 -13.5t-12 -61.5q0 -143 88 -250t222 -107q48 0 102 21.5t90 68.5q15 15 23 15q10 0 13 -14.5t-1 -26.5q-8 -29 -32.5 -60t-63 -60 t-97.5 -48t-126 -19q-144 0 -244.5 123t-100.5 322zM211 942q0 20 68 147.5t112 200.5q21 37 41 37t41 -37q46 -76 114 -202t68 -146q0 -11 -0.5 -15.5t-4.5 -8t-13 -3.5q-12 0 -31.5 15t-30.5 31q-52 69 -135 172q-2 3 -3.5 4.5t-3.5 1.5t-3.5 -1.5t-3.5 -4.5 q-50 -60 -135 -172q-12 -15 -31.5 -30.5t-30.5 -15.5q-12 0 -15 5.5t-3 21.5zM227 621q0 -31 39 -31h168q96 0 150 10q20 3 20 57q0 58 -51.5 92.5t-116.5 34.5q-79 0 -144 -58.5t-65 -104.5z" />
<glyph unicode="&#xeb;" horiz-adv-x="794" d="M61 416q0 114 53 213.5t147.5 159t207.5 59.5q123 0 193.5 -51.5t70.5 -134.5q0 -92 -43 -113q-48 -23 -115 -23h-335q-28 0 -40 -13.5t-12 -61.5q0 -143 88 -250t222 -107q48 0 102 21.5t90 68.5q15 15 23 15q10 0 13 -14.5t-1 -26.5q-8 -29 -32.5 -60t-63 -60 t-97.5 -48t-126 -19q-144 0 -244.5 123t-100.5 322zM158 1112q0 38 32 70t70 32t70 -32t32 -70t-32 -70t-70 -32t-70 32t-32 70zM227 621q0 -31 39 -31h168q96 0 150 10q20 3 20 57q0 58 -51.5 92.5t-116.5 34.5q-79 0 -144 -58.5t-65 -104.5zM520 1112q0 38 32.5 70 t70.5 32t70 -32t32 -70t-32 -70t-70 -32t-70.5 32t-32.5 70z" />
<glyph unicode="&#xec;" horiz-adv-x="501" d="M-20 1282q0 23 29 35t71 12q15 0 30.5 -11t24.5 -26q46 -80 106 -195.5t60 -135.5q0 -11 -0.5 -15.5t-4.5 -8t-13 -3.5q-22 0 -62 45q-66 71 -153.5 177.5t-87.5 125.5zM49 12q0 21 47 37q55 16 71 32q17 18 17 46v444q0 131 -96 150q-16 3 -16 27q0 20 14 24 q60 14 118 43.5t90.5 51.5t37.5 22q14 0 14 -10q-18 -189 -18 -277v-475q0 -16 6 -28.5t12 -19t22 -14t22 -9t26 -7.5q47 -16 47 -37q0 -18 -41 -18q-40 0 -85.5 5t-80.5 5t-80 -5t-86 -5t-41 18z" />
<glyph unicode="&#xed;" horiz-adv-x="501" d="M49 12q0 21 47 37q55 16 71 32q17 18 17 46v444q0 131 -96 150q-16 3 -16 27q0 20 14 24q60 14 118 43.5t90.5 51.5t37.5 22q14 0 14 -10q-18 -189 -18 -277v-475q0 -16 6 -28.5t12 -19t22 -14t22 -9t26 -7.5q47 -16 47 -37q0 -18 -41 -18q-40 0 -85.5 5t-80.5 5t-80 -5 t-86 -5t-41 18zM170 961q0 20 60 135.5t106 195.5q9 15 24.5 26t30.5 11q42 0 71.5 -12t29.5 -35q0 -19 -87.5 -124.5t-154.5 -178.5q-40 -45 -62 -45q-12 0 -15 5.5t-3 21.5z" />
<glyph unicode="&#xee;" horiz-adv-x="501" d="M14 942q0 20 68 147t113 201q21 37 41 37q19 0 40 -37q47 -79 115 -203.5t68 -144.5q0 -10 -1 -15t-5 -8.5t-13 -3.5q-11 0 -30.5 15t-30.5 31q-52 69 -135 172q-8 10 -15 0q-50 -60 -135 -172q-12 -16 -31 -31t-30 -15q-9 0 -13 3.5t-5 8.5t-1 15zM49 12q0 21 47 37 q55 16 71 32q17 18 17 46v444q0 131 -96 150q-16 3 -16 27q0 20 14 24q60 14 118 43.5t90.5 51.5t37.5 22q14 0 14 -10q-18 -189 -18 -277v-475q0 -16 6 -28.5t12 -19t22 -14t22 -9t26 -7.5q47 -16 47 -37q0 -18 -41 -18q-40 0 -85.5 5t-80.5 5t-80 -5t-86 -5t-41 18z" />
<glyph unicode="&#xef;" horiz-adv-x="501" d="M-39 1112q0 38 32 70t70 32t70.5 -32t32.5 -70t-32.5 -70t-70.5 -32t-70 32t-32 70zM49 12q0 21 47 37q55 16 71 32q17 18 17 46v444q0 131 -96 150q-16 3 -16 27q0 20 14 24q60 14 118 43.5t90.5 51.5t37.5 22q14 0 14 -10q-18 -189 -18 -277v-475q0 -16 6 -28.5t12 -19 t22 -14t22 -9t26 -7.5q47 -16 47 -37q0 -18 -41 -18q-40 0 -85.5 5t-80.5 5t-80 -5t-86 -5t-41 18zM324 1112q0 38 32 70t70 32t70 -32t32 -70t-32 -70t-70 -32t-70 32t-32 70z" />
<glyph unicode="&#xf0;" horiz-adv-x="997" d="M51 381q0 125 62.5 232.5t169.5 171t231 63.5q102 0 188 -47q13 -6 16.5 -1.5t0.5 19.5q-58 213 -139 311l-318 -163q-11 -6 -20 0.5t-9 15.5q0 63 17 72l270 141q-80 75 -173 124.5t-175 68.5q-41 10 -41 30q0 25 53 25q95 0 216.5 -51t232.5 -140l207 109q9 5 20.5 8.5 t21 1t9.5 -11.5q0 -68 -37 -86l-154 -80q49 -52 87 -110t73 -140t54.5 -192t19.5 -240q0 -93 -29.5 -186.5t-85 -173.5t-146 -130.5t-200.5 -50.5q-176 0 -299 115t-123 295zM221 430q0 -101 39 -192t107.5 -148t148.5 -57q59 0 109 39t82 101t49.5 134t17.5 142 q0 154 -83 241.5t-212 87.5q-63 0 -113.5 -30t-81 -80.5t-47 -111.5t-16.5 -126z" />
<glyph unicode="&#xf1;" horiz-adv-x="1081" d="M49 12q0 21 47 37q55 16 71 32q17 18 17 46v440q0 65 -16 101.5t-64 46.5q-16 3 -16 26q0 21 14 25q26 6 50 14.5t40 15.5t38.5 20t32 19t35 23.5t32.5 22.5q5 0 9.5 -4.5t4.5 -10.5t-5 -57.5t-5 -73.5q0 -20 4 -24q143 137 330 137q99 0 165 -82t66 -203v-436 q0 -16 6 -28.5t12 -19t22 -14t22 -9t26 -7.5q47 -16 47 -37q0 -18 -41 -18q-42 0 -85.5 5t-78.5 5t-80 -5t-87 -5q-41 0 -41 18q0 21 47 37q55 16 71 32q17 18 17 46v430q0 88 -50.5 139.5t-134.5 53.5q-121 0 -188 -54q-55 -40 -55 -147v-422q0 -16 6 -28.5t12 -19t22 -14 t22 -9t26 -7.5q47 -16 47 -37q0 -18 -41 -18q-42 0 -86.5 5t-79.5 5t-79.5 -5t-86.5 -5q-41 0 -41 18zM270 1004q0 19 73.5 95.5t107.5 76.5q25 0 109 -8.5t110 -8.5q32 0 57 17.5t39.5 35t19.5 17.5q15 0 24 -10t9 -25q0 -19 -70 -94.5t-104 -75.5q-25 0 -114 7t-115 7 q-22 0 -48 -19t-44.5 -37.5t-24.5 -18.5q-14 0 -21.5 12t-7.5 29z" />
<glyph unicode="&#xf2;" horiz-adv-x="1013" d="M72 383q0 113 58.5 220t163 176t226.5 69q87 0 166 -33.5t134.5 -89.5t88.5 -131.5t33 -157.5q0 -92 -30 -174.5t-86 -148t-146 -104t-201 -38.5q-173 0 -290 116.5t-117 295.5zM240 430q0 -102 35.5 -192.5t101.5 -147.5t145 -57q154 0 211 112q41 78 41 242 q0 99 -35 189t-102.5 149t-151.5 59q-59 0 -102 -18.5t-78 -63.5q-65 -83 -65 -272zM248 1282q0 23 29 35t71 12q15 0 30.5 -11t24.5 -26q46 -80 106 -195.5t60 -135.5q0 -11 -0.5 -15.5t-4.5 -8t-13 -3.5q-22 0 -62 45q-66 71 -153.5 177.5t-87.5 125.5z" />
<glyph unicode="&#xf3;" horiz-adv-x="1013" d="M72 383q0 113 58.5 220t163 176t226.5 69q87 0 166 -33.5t134.5 -89.5t88.5 -131.5t33 -157.5q0 -92 -30 -174.5t-86 -148t-146 -104t-201 -38.5q-173 0 -290 116.5t-117 295.5zM240 430q0 -102 35.5 -192.5t101.5 -147.5t145 -57q154 0 211 112q41 78 41 242 q0 99 -35 189t-102.5 149t-151.5 59q-59 0 -102 -18.5t-78 -63.5q-65 -83 -65 -272zM438 961q0 20 60 135.5t106 195.5q9 15 24.5 26t30.5 11q42 0 71.5 -12t29.5 -35q0 -19 -87.5 -124.5t-154.5 -178.5q-40 -45 -61 -45q-13 0 -16 6t-3 21z" />
<glyph unicode="&#xf4;" horiz-adv-x="1013" d="M72 383q0 113 58.5 220t163 176t226.5 69q87 0 166 -33.5t134.5 -89.5t88.5 -131.5t33 -157.5q0 -92 -30 -174.5t-86 -148t-146 -104t-201 -38.5q-173 0 -290 116.5t-117 295.5zM240 430q0 -102 35.5 -192.5t101.5 -147.5t145 -57q154 0 211 112q41 78 41 242 q0 99 -35 189t-102.5 149t-151.5 59q-59 0 -102 -18.5t-78 -63.5q-65 -83 -65 -272zM283 942q0 20 68 147.5t112 200.5q21 37 41 37t41 -37q46 -76 114 -202t68 -146q0 -11 -0.5 -15.5t-4.5 -8t-13 -3.5q-12 0 -31.5 15t-30.5 31q-52 69 -135 172q-2 3 -3.5 4.5t-3.5 1.5 t-3.5 -1.5t-3.5 -4.5q-61 -73 -136 -172q-12 -16 -31 -31t-30 -15q-12 0 -15 5.5t-3 21.5z" />
<glyph unicode="&#xf5;" horiz-adv-x="1013" d="M72 383q0 113 58.5 220t163 176t226.5 69q87 0 166 -33.5t134.5 -89.5t88.5 -131.5t33 -157.5q0 -92 -30 -174.5t-86 -148t-146 -104t-201 -38.5q-173 0 -290 116.5t-117 295.5zM240 430q0 -102 35.5 -192.5t101.5 -147.5t145 -57q154 0 211 112q41 78 41 242 q0 99 -35 189t-102.5 149t-151.5 59q-59 0 -102 -18.5t-78 -63.5q-65 -83 -65 -272zM246 1004q0 19 73 95.5t107 76.5q26 0 110 -8.5t109 -8.5t46.5 11t33.5 24t22 24t15 11q15 0 24 -10t9 -25q0 -19 -70 -94.5t-104 -75.5q-25 0 -114.5 7t-115.5 7q-22 0 -48 -19 t-44.5 -37.5t-24.5 -18.5q-28 0 -28 41z" />
<glyph unicode="&#xf6;" horiz-adv-x="1013" d="M72 383q0 113 58.5 220t163 176t226.5 69q87 0 166 -33.5t134.5 -89.5t88.5 -131.5t33 -157.5q0 -92 -30 -174.5t-86 -148t-146 -104t-201 -38.5q-173 0 -290 116.5t-117 295.5zM229 1112q0 38 32.5 70t70.5 32t70 -32t32 -70t-32 -70t-70 -32t-70.5 32t-32.5 70z M240 430q0 -102 35.5 -192.5t101.5 -147.5t145 -57q154 0 211 112q41 78 41 242q0 99 -35 189t-102.5 149t-151.5 59q-59 0 -102 -18.5t-78 -63.5q-65 -83 -65 -272zM592 1112q0 38 32 70t70 32t70.5 -32t32.5 -70t-32.5 -70t-70.5 -32t-70 32t-32 70z" />
<glyph unicode="&#xf7;" horiz-adv-x="1208" d="M102 500q0 21 13 49.5t37 28.5h927q10 0 19.5 -7t9.5 -16q0 -1 -1 -3t-1 -3q-6 -18 -10 -27t-11.5 -22t-18 -19t-24.5 -6h-911q-10 0 -19.5 8t-9.5 17zM508 817q0 40 28 67t68 27q38 0 65 -28t27 -66t-28 -66t-66 -28t-66 28t-28 66zM510 236q0 38 28 66t66 28t66 -28 t28 -66t-28 -66.5t-66 -28.5t-66 28.5t-28 66.5z" />
<glyph unicode="&#xf8;" horiz-adv-x="993" d="M51 10q0 24 21 41l82 78q-93 121 -93 252q0 125 59.5 232.5t163.5 171t228 63.5q154 0 276 -109l107 103q8 8 23 8q28 0 28 -31q0 -34 -22 -53l-82 -80q90 -118 90 -250q0 -92 -29.5 -174.5t-85.5 -148t-145.5 -104t-200.5 -38.5q-139 0 -260 99l-96 -95q-6 -6 -15 -6 q-18 0 -33.5 13.5t-15.5 27.5zM231 430q0 -106 37 -190l424 407q-86 131 -215 131q-54 0 -101 -22t-77 -60q-68 -87 -68 -266zM307 162q38 -60 91.5 -94.5t115.5 -34.5q153 0 211 114q39 74 39 240q0 98 -35 188z" />
<glyph unicode="&#xf9;" horiz-adv-x="1079" d="M59 778q0 29 31 35q39 1 69.5 5t46 7t46 11t49.5 12q32 3 29 -29q-13 -102 -13 -157v-400q0 -73 53 -129.5t119 -56.5q63 0 100.5 7t72.5 34q92 68 92 153v375q0 29 -14.5 50.5t-37.5 32t-42.5 15t-38.5 5.5q-14 0 -31 7.5t-17 26.5q0 16 18 23.5t30 7.5q61 3 99 5.5 t63.5 6.5t35.5 6t31 8.5t35 10.5h4q14 0 22.5 -12.5t1.5 -24.5q-5 -10 -10.5 -63t-5.5 -82v-435q0 -72 7 -106.5t30 -34.5q64 0 94 6q10 2 20.5 -3.5t10.5 -22.5q0 -15 -9.5 -22t-19.5 -7q-107 -14 -239 -70q-24 -12 -50 -12q-5 0 -5.5 1t-0.5 4v3q0 13 5 65t5 70v13 q-78 -77 -159 -111.5t-178 -34.5q-104 0 -169 64t-65 180v416q0 44 -21 71t-67 46q-27 9 -27 30zM258 1282q0 23 29 35t71 12q15 0 31 -11t25 -26q46 -80 106 -195.5t60 -135.5q0 -15 -3 -21t-16 -6q-21 0 -61 45q-67 73 -154.5 178.5t-87.5 124.5z" />
<glyph unicode="&#xfa;" horiz-adv-x="1079" d="M59 778q0 29 31 35q39 1 69.5 5t46 7t46 11t49.5 12q32 3 29 -29q-13 -102 -13 -157v-400q0 -73 53 -129.5t119 -56.5q63 0 100.5 7t72.5 34q92 68 92 153v375q0 29 -14.5 50.5t-37.5 32t-42.5 15t-38.5 5.5q-14 0 -31 7.5t-17 26.5q0 16 18 23.5t30 7.5q61 3 99 5.5 t63.5 6.5t35.5 6t31 8.5t35 10.5h4q14 0 22.5 -12.5t1.5 -24.5q-5 -10 -10.5 -63t-5.5 -82v-435q0 -72 7 -106.5t30 -34.5q64 0 94 6q10 2 20.5 -3.5t10.5 -22.5q0 -15 -9.5 -22t-19.5 -7q-107 -14 -239 -70q-24 -12 -50 -12q-5 0 -5.5 1t-0.5 4v3q0 13 5 65t5 70v13 q-78 -77 -159 -111.5t-178 -34.5q-104 0 -169 64t-65 180v416q0 44 -21 71t-67 46q-27 9 -27 30zM449 961q0 20 60 136.5t105 194.5q9 15 25 26t31 11q42 0 71 -12t29 -35q0 -19 -87.5 -124.5t-154.5 -178.5q-40 -45 -61 -45q-12 0 -15 5.5t-3 21.5z" />
<glyph unicode="&#xfb;" horiz-adv-x="1079" d="M59 778q0 29 31 35q39 1 69.5 5t46 7t46 11t49.5 12q32 3 29 -29q-13 -102 -13 -157v-400q0 -73 53 -129.5t119 -56.5q63 0 100.5 7t72.5 34q92 68 92 153v375q0 29 -14.5 50.5t-37.5 32t-42.5 15t-38.5 5.5q-14 0 -31 7.5t-17 26.5q0 16 18 23.5t30 7.5q61 3 99 5.5 t63.5 6.5t35.5 6t31 8.5t35 10.5h4q14 0 22.5 -12.5t1.5 -24.5q-5 -10 -10.5 -63t-5.5 -82v-435q0 -72 7 -106.5t30 -34.5q64 0 94 6q10 2 20.5 -3.5t10.5 -22.5q0 -15 -9.5 -22t-19.5 -7q-107 -14 -239 -70q-24 -12 -50 -12q-5 0 -5.5 1t-0.5 4v3q0 13 5 65t5 70v13 q-78 -77 -159 -111.5t-178 -34.5q-104 0 -169 64t-65 180v416q0 44 -21 71t-67 46q-27 9 -27 30zM293 942q0 20 68 147.5t112 200.5q21 37 41 37t41 -37q46 -76 114 -202t68 -146q0 -11 -0.5 -15.5t-4.5 -8t-13 -3.5q-12 0 -31.5 15t-30.5 31q-52 69 -135 172q-4 6 -7 6 t-7 -6q-50 -60 -135 -172q-12 -15 -31.5 -30.5t-30.5 -15.5q-12 0 -15 5.5t-3 21.5z" />
<glyph unicode="&#xfc;" horiz-adv-x="1079" d="M59 778q0 29 31 35q39 1 69.5 5t46 7t46 11t49.5 12q32 3 29 -29q-13 -102 -13 -157v-400q0 -73 53 -129.5t119 -56.5q63 0 100.5 7t72.5 34q92 68 92 153v375q0 29 -14.5 50.5t-37.5 32t-42.5 15t-38.5 5.5q-14 0 -31 7.5t-17 26.5q0 16 18 23.5t30 7.5q61 3 99 5.5 t63.5 6.5t35.5 6t31 8.5t35 10.5h4q14 0 22.5 -12.5t1.5 -24.5q-5 -10 -10.5 -63t-5.5 -82v-435q0 -72 7 -106.5t30 -34.5q64 0 94 6q10 2 20.5 -3.5t10.5 -22.5q0 -15 -9.5 -22t-19.5 -7q-107 -14 -239 -70q-24 -12 -50 -12q-5 0 -5.5 1t-0.5 4v3q0 13 5 65t5 70v13 q-78 -77 -159 -111.5t-178 -34.5q-104 0 -169 64t-65 180v416q0 44 -21 71t-67 46q-27 9 -27 30zM240 1112q0 38 32 70t70 32t70 -32t32 -70t-32 -70t-70 -32t-70 32t-32 70zM602 1112q0 38 32.5 70t70.5 32t70 -32t32 -70t-32 -70t-70 -32t-70.5 32t-32.5 70z" />
<glyph unicode="&#xfd;" horiz-adv-x="897" d="M10 811q0 18 41 18q42 0 78.5 -5t71.5 -5t74 5t81 5q15 0 28 -5.5t13 -16.5q0 -14 -19.5 -27t-39.5 -18q-41 -11 -41 -66q0 -20 16 -57l162 -401q17 -40 31 2l137 364q16 36 16 76q0 62 -41 78q-59 26 -59 49q0 11 13.5 16.5t27.5 5.5t58 -5t87 -5q42 0 72 5t49 5 q41 0 41 -18q0 -21 -47 -37q-31 -9 -66 -48.5t-55 -88.5l-278 -664q-2 -6 -33.5 -81.5t-79 -190.5t-84.5 -201q-38 -84 -133 -84q-39 0 -71.5 21t-32.5 53q0 61 55 61q16 0 43.5 -6t38.5 -6q25 0 39 23q36 62 90.5 178.5t95.5 226.5q6 18 6 47q0 39 -8 60l-237 600 q-34 83 -93 100q-47 16 -47 37zM414 961q0 20 60 135.5t106 195.5q9 15 24.5 26t30.5 11q42 0 71 -12t29 -35q0 -19 -87.5 -125.5t-153.5 -177.5q-40 -45 -62 -45q-12 0 -15 5.5t-3 21.5z" />
<glyph unicode="&#xfe;" horiz-adv-x="1034" d="M33 -565q0 21 47 37q3 1 12.5 3.5t13 4t12.5 4.5t13 5l11 5.5t10.5 7.5t8.5 9t7.5 11t4 13.5t1.5 15.5v1608q0 56 -23 98t-71 52q-17 3 -17 26q0 21 15 25q36 9 72.5 20.5t59 20t56.5 22t49 19.5q1 0 2 1t2 1q4 0 8.5 -4.5t4.5 -9.5q0 -7 -3.5 -39t-7 -95.5t-4.5 -144.5 v-360q0 -73 5 -78q39 39 140 87t187 48q101 0 179.5 -57t117.5 -144t39 -186q0 -122 -60.5 -234.5t-168 -184t-232.5 -71.5q-45 0 -108 19.5t-92 46.5q-7 0 -7 -105v-381q0 -20 6 -34t21 -23t24 -12.5t31 -9.5q47 -16 47 -37q0 -19 -47 -19q-41 0 -82.5 5.5t-76.5 5.5 t-77 -5.5t-83 -5.5q-47 0 -47 19zM317 236q0 -104 48 -150q55 -51 190 -51q26 0 58.5 10.5t69.5 37.5t67.5 66.5t50.5 103.5t20 142q0 90 -21 158t-51 105.5t-70.5 60.5t-72.5 30t-63 7q-98 0 -176 -60q-50 -37 -50 -145v-315z" />
<glyph unicode="&#xff;" horiz-adv-x="897" d="M10 811q0 18 41 18q42 0 78.5 -5t71.5 -5t74 5t81 5q15 0 28 -5.5t13 -16.5q0 -14 -19.5 -27t-39.5 -18q-41 -11 -41 -66q0 -20 16 -57l162 -401q17 -40 31 2l137 364q16 36 16 76q0 62 -41 78q-59 26 -59 49q0 11 13.5 16.5t27.5 5.5t58 -5t87 -5q42 0 72 5t49 5 q41 0 41 -18q0 -21 -47 -37q-31 -9 -66 -48.5t-55 -88.5l-278 -664q-2 -6 -33.5 -81.5t-79 -190.5t-84.5 -201q-38 -84 -133 -84q-39 0 -71.5 21t-32.5 53q0 61 55 61q16 0 43.5 -6t38.5 -6q25 0 39 23q36 62 90.5 178.5t95.5 226.5q6 18 6 47q0 39 -8 60l-237 600 q-34 83 -93 100q-47 16 -47 37zM205 1112q0 38 32 70t70 32t70.5 -32t32.5 -70t-32.5 -70t-70.5 -32t-70 32t-32 70zM567 1112q0 38 32.5 70t70.5 32t70 -32t32 -70t-32 -70t-70 -32t-70.5 32t-32.5 70z" />
<glyph unicode="&#x152;" horiz-adv-x="1910" d="M92 655q0 112 29 215.5t88 193t142.5 155.5t198.5 103.5t249 37.5q84 0 186 -25q25 -6 170 -6q82 0 226 2t256 4t116 2q34 0 37 -18q31 -173 31 -211q0 -31 -29 -31q-17 0 -23 21q-29 95 -45 112q-51 56 -137 56h-268q-21 0 -47.5 -19.5t-26.5 -46.5v-434q0 -19 11 -32 t26 -13h197q43 0 76.5 22t48.5 58q3 8 16 21.5t20 13.5q9 0 18 -9.5t9 -23.5q0 -7 -3 -51t-3 -62q0 -24 2 -79t2 -60q0 -35 -18 -35t-31 16t-17 31q-14 45 -40 68.5t-54 23.5h-190q-39 0 -54.5 -10t-15.5 -43v-393q0 -76 32 -106.5t103 -30.5h213q48 0 80 5.5t45.5 12.5 t30.5 19q42 33 86 129q11 23 29 20q26 -4 26 -22q0 -27 -12 -98.5t-23 -112.5q-8 -35 -28 -35q-133 0 -345 6t-308 6q-27 0 -59 -1t-59 -3t-50 -4t-37 -3t-15 -1q-84 -19 -172 -19q-134 0 -260 53t-221 142.5t-152 218t-57 270.5zM291 717q0 -175 65.5 -327t185.5 -245.5 t267 -93.5q45 0 72 1t63 4t57 10.5t41.5 19.5t29.5 31.5t9 46.5v942q0 60 -44 100t-112 57t-157 17q-88 0 -165.5 -31t-133.5 -84.5t-97 -125t-61 -154t-20 -168.5z" />
<glyph unicode="&#x153;" horiz-adv-x="1546" d="M72 383q0 113 58.5 220t163 176t226.5 69q95 0 183 -42t147 -114q17 -23 29 -6q114 159 321 162q147 0 216 -52t69 -134q0 -92 -43 -113q-48 -23 -115 -23h-336q-28 0 -39.5 -13t-11.5 -62q0 -150 87 -251.5t222 -101.5q123 0 185 82q10 10 18 10q11 0 19.5 -10t5.5 -22 q-18 -65 -105 -126t-215 -61q-86 0 -166.5 43t-132.5 119q-8 11 -11 11t-11 -11q-60 -75 -150.5 -118.5t-206.5 -43.5q-173 0 -290 116.5t-117 295.5zM240 430q0 -102 35.5 -192.5t101.5 -147.5t145 -57q154 0 211 112q41 78 41 242q0 99 -35 189t-102.5 149t-151.5 59 q-59 0 -102 -18.5t-78 -63.5q-65 -83 -65 -272zM979 621q0 -31 39 -31h168q95 0 149 10q17 2 17 53v29q-4 49 -47 75.5t-117 26.5q-127 0 -201 -133q-8 -13 -8 -30z" />
<glyph unicode="&#x178;" horiz-adv-x="1183" d="M0 1315q0 22 59 22q26 0 107.5 -3t132.5 -3q34 0 89.5 2t74.5 2q59 0 59 -22q0 -26 -67 -41q-34 -9 -50 -19.5t-16 -31.5q0 -25 27 -74l188 -338q26 -45 38 -61.5t20 -16.5q11 0 23.5 15.5t43.5 62.5q74 113 172 285q37 62 37 104q0 59 -84 72q-23 3 -45.5 15.5 t-22.5 25.5q0 22 60 22q31 0 77.5 -1t75.5 -1q47 0 120.5 3t92.5 3q60 0 60 -22q0 -20 -109 -51q-26 -7 -46.5 -19.5t-44.5 -41.5t-38.5 -50t-50.5 -76q-121 -185 -227 -368q-36 -63 -43.5 -92t-7.5 -93v-303q0 -69 42 -113.5t119 -58.5q68 -12 68 -37q0 -22 -60 -22 q-58 0 -126 5t-113 5q-50 0 -127.5 -5t-134.5 -5q-60 0 -60 22q0 25 68 37q160 28 160 172v303q0 58 -52 152l-239 393q-115 182 -182 201q-68 21 -68 45zM352 1528q0 43 30 72.5t73 29.5t72.5 -29.5t29.5 -72.5t-29.5 -73t-72.5 -30t-73 30t-30 73zM752 1528 q0 43 29.5 72.5t72.5 29.5t72.5 -29.5t29.5 -72.5t-29.5 -73t-72.5 -30t-72.5 30t-29.5 73z" />
<glyph unicode="&#x2c6;" horiz-adv-x="567" d="M61 942q0 20 68 147t113 201q21 37 41 37t41 -37q46 -76 114 -202t68 -146q0 -15 -3 -21t-16 -6q-11 0 -30.5 15t-30.5 31q-52 69 -135 172q-7 10 -15 0q-50 -60 -135 -172q-12 -16 -31 -31t-30 -15q-9 0 -13 3.5t-5 8.5t-1 15z" />
<glyph unicode="&#x2dc;" horiz-adv-x="647" d="M49 969q0 19 73 95.5t107 76.5q25 0 109.5 -8.5t110.5 -8.5q32 0 57 17.5t39.5 35t19.5 17.5q15 0 24 -10t9 -25q0 -19 -70 -94.5t-104 -75.5q-26 0 -115 7.5t-114 7.5q-22 0 -48 -19t-44.5 -38t-24.5 -19q-14 0 -21.5 12t-7.5 29z" />
<glyph unicode="&#x2000;" horiz-adv-x="864" />
<glyph unicode="&#x2001;" horiz-adv-x="1729" />
<glyph unicode="&#x2002;" horiz-adv-x="864" />
<glyph unicode="&#x2003;" horiz-adv-x="1729" />
<glyph unicode="&#x2004;" horiz-adv-x="576" />
<glyph unicode="&#x2005;" horiz-adv-x="432" />
<glyph unicode="&#x2006;" horiz-adv-x="288" />
<glyph unicode="&#x2007;" horiz-adv-x="288" />
<glyph unicode="&#x2008;" horiz-adv-x="216" />
<glyph unicode="&#x2009;" horiz-adv-x="345" />
<glyph unicode="&#x200a;" horiz-adv-x="96" />
<glyph unicode="&#x2010;" horiz-adv-x="561" d="M59 360q0 37 9.5 73.5t23.5 37.5q295 40 393 51q17 0 17 -12q0 -106 -43 -111q-293 -43 -387 -51q-13 0 -13 12z" />
<glyph unicode="&#x2011;" horiz-adv-x="561" d="M59 360q0 37 9.5 73.5t23.5 37.5q295 40 393 51q17 0 17 -12q0 -106 -43 -111q-293 -43 -387 -51q-13 0 -13 12z" />
<glyph unicode="&#x2012;" horiz-adv-x="561" d="M59 360q0 37 9.5 73.5t23.5 37.5q295 40 393 51q17 0 17 -12q0 -106 -43 -111q-293 -43 -387 -51q-13 0 -13 12z" />
<glyph unicode="&#x2013;" horiz-adv-x="1126" d="M102 403q0 24 12.5 55t37.5 31h845q9 0 18 -7.5t9 -16.5q0 -31 -19.5 -58.5t-43.5 -27.5h-830q-11 0 -20 7.5t-9 16.5z" />
<glyph unicode="&#x2014;" horiz-adv-x="1945" d="M102 403q0 24 12.5 55t37.5 31h1665q9 0 17.5 -7.5t8.5 -16.5q0 -31 -19.5 -58.5t-43.5 -27.5h-1649q-11 0 -20 7.5t-9 16.5z" />
<glyph unicode="&#x2018;" horiz-adv-x="491" d="M82 1071q0 59 20 114t52.5 95t71.5 70t77 46t70 17h4q37 0 37 -22q0 -8 -8 -15t-21 -10q-36 -7 -68.5 -22.5t-62.5 -41.5t-48 -67t-18 -92q0 -27 24 -57t56 -33q44 -4 70.5 -28t26.5 -58q0 -40 -34 -67.5t-79 -27.5q-74 0 -122 56.5t-48 142.5z" />
<glyph unicode="&#x2019;" horiz-adv-x="491" d="M82 895q0 8 8 15t21 10q79 16 137.5 71t58.5 152q0 27 -24 57t-56 33q-44 4 -70 28t-26 58q0 40 33.5 67t79.5 27q74 0 122 -56.5t48 -142.5q0 -59 -20 -114t-52.5 -95t-71.5 -70t-77 -46t-70 -17h-4q-37 0 -37 23z" />
<glyph unicode="&#x201a;" horiz-adv-x="495" d="M82 -279q0 8 8 15t21 10q79 16 137.5 71t58.5 152q0 27 -24 57t-56 33q-44 4 -70 28t-26 58q0 40 34 67.5t79 27.5q74 0 122 -56.5t48 -142.5q0 -59 -20 -114t-52.5 -95t-71.5 -70t-77 -46t-70 -17h-4q-37 0 -37 22z" />
<glyph unicode="&#x201c;" horiz-adv-x="860" d="M82 1071q0 59 20 114t52.5 95t71.5 70t77 46t70 17h4q37 0 37 -22q0 -8 -8 -15t-21 -10q-36 -7 -68.5 -22.5t-62.5 -41.5t-48 -67t-18 -92q0 -27 24 -57t56 -33q44 -4 70.5 -28t26.5 -58q0 -40 -34 -67.5t-79 -27.5q-74 0 -122 56.5t-48 142.5zM446 1071q0 59 20 114 t52.5 95t71.5 70t77 46t70 17h4q37 0 37 -22q0 -19 -28 -25q-36 -7 -68.5 -22.5t-62.5 -41.5t-48 -67t-18 -92q0 -27 24 -57t56 -33q44 -4 70 -28t26 -58q0 -40 -34 -67.5t-79 -27.5q-74 0 -122 56.5t-48 142.5z" />
<glyph unicode="&#x201d;" horiz-adv-x="860" d="M82 895q0 8 8 15t21 10q79 16 137.5 71t58.5 152q0 27 -24 57t-56 33q-44 4 -70 28t-26 58q0 40 33.5 67t79.5 27q74 0 122 -56.5t48 -142.5q0 -59 -20 -114t-52.5 -95t-71.5 -70t-77 -46t-70 -17h-4q-37 0 -37 23zM446 895q0 8 8 15t21 10q36 7 68.5 22.5t62.5 41.5 t48 67t18 92q0 27 -24 57t-56 33q-44 4 -70 28t-26 58q0 40 33.5 67t78.5 27q74 0 122 -56.5t48 -142.5q0 -59 -20 -114t-52.5 -95t-71.5 -70t-77 -46t-70 -17h-4q-37 0 -37 23z" />
<glyph unicode="&#x201e;" horiz-adv-x="860" d="M82 -279q0 8 8 15t21 10q79 16 137.5 71t58.5 152q0 27 -24 57t-56 33q-44 4 -70 28t-26 58q0 40 34 67.5t79 27.5q74 0 122 -56.5t48 -142.5q0 -59 -20 -114t-52.5 -95t-71.5 -70t-77 -46t-70 -17h-4q-37 0 -37 22zM446 -279q0 8 8 15t21 10q36 7 68.5 22.5t62.5 41.5 t48 67t18 92q0 27 -24 57t-56 33q-44 4 -70 28t-26 58q0 40 33.5 67.5t78.5 27.5q74 0 122 -56.5t48 -142.5q0 -59 -20 -114t-52.5 -95t-71.5 -70t-77 -46t-70 -17h-4q-37 0 -37 22z" />
<glyph unicode="&#x2022;" horiz-adv-x="552" d="M92 737q0 77 54 131t130 54t130.5 -54t54.5 -131q0 -76 -54 -130t-131 -54q-76 0 -130 53.5t-54 130.5z" />
<glyph unicode="&#x2026;" horiz-adv-x="1400" d="M123 84q0 46 33.5 79.5t79.5 33.5t79 -33.5t33 -79.5t-33 -79.5t-79 -33.5t-79.5 33.5t-33.5 79.5zM590 84q0 46 33 79.5t79 33.5t79.5 -33.5t33.5 -79.5t-33.5 -79.5t-79.5 -33.5t-79 33.5t-33 79.5zM1057 84q0 46 33 79.5t79 33.5t79.5 -33.5t33.5 -79.5t-33.5 -79.5 t-79.5 -33.5t-79 33.5t-33 79.5z" />
<glyph unicode="&#x202f;" horiz-adv-x="345" />
<glyph unicode="&#x2039;" horiz-adv-x="950" d="M205 432q0 11 6 14q167 100 264.5 170t198.5 166q37 37 59 37q12 0 12 -18q0 -14 -10 -31q-41 -62 -82 -112.5t-85.5 -92t-70.5 -63.5t-73 -58q-12 -9 -12 -14t12 -14q86 -67 160 -142t151 -192q6 -9 6 -19q0 -9 -5.5 -16.5t-12.5 -7.5q-24 0 -61 37 q-101 98 -212.5 175.5t-207.5 121.5q-14 7 -25.5 26t-11.5 33z" />
<glyph unicode="&#x203a;" horiz-adv-x="950" d="M205 803q0 16 10 16q9 0 19.5 -5t16.5 -9.5t14.5 -13t10.5 -9.5q101 -96 198.5 -166t264.5 -170q6 -3 6 -14q0 -14 -11 -33t-25 -26q-96 -44 -207.5 -121.5t-212.5 -175.5q-1 -1 -10.5 -9.5t-15.5 -13t-16.5 -9.5t-19.5 -5q-7 0 -12.5 6.5t-5.5 15.5q0 12 6 21 q77 117 151 192t160 142q12 9 12 14t-12 14q-47 36 -73 58t-70.5 63.5t-85.5 92t-82 112.5q-10 12 -10 33z" />
<glyph unicode="&#x205f;" horiz-adv-x="432" />
<glyph unicode="&#x20ac;" horiz-adv-x="1361" d="M-55 535q0 16 14.5 34.5t34.5 18.5l110 2q0 8 -1 23t-1 22q0 38 7 92l-70 -2q-10 0 -19.5 8t-9.5 17q0 16 14.5 34.5t34.5 18.5l64 2q60 241 260.5 397t456.5 156q50 0 119.5 -8t97.5 -17q20 -7 80 -20t75 -17q23 -6 27 -61q14 -109 16 -223q2 -17 -3.5 -32.5 t-18.5 -14.5q-16 1 -22.5 13t-12.5 50q-11 89 -90 162q-14 14 -48 32t-109 37t-160 19q-125 0 -228 -65.5t-166 -170t-86 -233.5l721 20q11 0 21 -9t6 -19q-23 -62 -64 -62l-694 -10q0 -7 -1 -22.5t-1 -22.5q0 -44 6 -88l662 18q11 0 20.5 -9t5.5 -19q-11 -29 -25 -45.5 t-38 -16.5l-611 -8q45 -200 181 -332.5t325 -132.5q119 0 254 76q94 55 121 154q4 11 14 18.5t22 12.5t15 7q3 3 4 3q6 0 10.5 -12.5t4.5 -26.5q0 -3 -1 -9t-1 -8q-6 -38 -33.5 -107t-50.5 -104q-4 -6 -11.5 -11t-15 -8.5t-25.5 -11.5t-32 -14q-87 -41 -344 -41 q-239 0 -419 155t-222 388l-142 -2q-10 0 -19 8t-9 17z" />
<glyph unicode="&#x2122;" horiz-adv-x="2072" d="M2 1237q0 9 8 25q28 52 41 137q2 12 7 18.5t8 7t8 0.5t16 -7t16 -17q7 -12 36.5 -20.5t58.5 -8.5h444q29 0 58 9.5t38 21.5q4 5 8 8.5t8.5 4.5t7 1.5t7.5 0t6 -0.5q5 0 11 -6.5t6 -13.5q0 -24 -12 -73.5t-11 -72.5q0 -12 -5 -21.5t-15 -8.5q-7 1 -11.5 8t-8 17.5 t-5.5 13.5q0 1 -4.5 9.5t-6 10t-7 8t-11.5 8.5t-15.5 5.5t-23.5 4.5t-32 1q-108 0 -158 -4q-23 -3 -23 -54v-534q0 -81 107 -97q43 -6 43 -28q0 -17 -39 -17h-350q-39 0 -39 17q0 9 11.5 17t33.5 11q102 15 102 97v534q0 50 -22 54q-20 4 -49 4h-68q-87 0 -108 -39 q-8 -14 -25.5 -30.5t-30.5 -16.5q-10 0 -10 16zM897 590q0 9 11.5 17t33.5 11q43 6 62.5 33t19.5 47v527q0 27 -3.5 38t-19.5 29q-7 7 -14 12.5t-11.5 8.5t-14 6.5t-12.5 4.5t-15.5 3.5t-15.5 3.5q-6 1 -12.5 11t-6.5 18t11.5 13t19.5 5h209q7 0 15.5 -9t18 -27t16 -31 t15.5 -34t10 -24l211 -432q15 -35 31 -4l242 483q4 6 13 22.5t13 22.5t11 16t12.5 13.5t11.5 3.5h197q7 0 20 -4.5t13 -13.5t-13 -19t-22 -12q-6 -2 -19 -5t-19.5 -5t-17 -5.5t-16 -7t-11.5 -8.5t-8.5 -11.5t-2.5 -14.5v-582q0 -36 22.5 -50t77.5 -22q43 -6 43 -28 q0 -17 -39 -17h-309q-39 0 -39 17q0 9 11.5 17t33.5 11q40 5 54 19t14 55v504q0 13 -3 17t-8 -0.5t-10 -16.5l-305 -645q-6 12 -55 120t-118.5 257t-123.5 256q-9 17 -13 3l-1 -13v-474q0 -29 20.5 -52t65.5 -30q43 -6 43 -28q0 -17 -39 -17h-246q-39 0 -39 17z" />
<glyph unicode="&#xe000;" horiz-adv-x="829" d="M0 0v829h829v-829h-829z" />
<glyph unicode="&#xfb01;" horiz-adv-x="1073" d="M51 12q0 21 47 37q25 7 42 15.5t31.5 27.5t14.5 47v578q-63 0 -106 4q-6 1 -12.5 12.5t-7.5 22.5t6 14q27 7 47 16t39.5 20t33.5 17q0 141 35 253t88 179.5t122 112t131 61.5t120 17q67 0 123.5 -11t99.5 -42.5t43 -79.5q0 -11 -8 -43q-6 -17 -48.5 -34t-76.5 -17 q-31 0 -37 14q-11 24 -21 40.5t-31.5 40.5t-55.5 37t-78 13q-51 0 -96.5 -23t-83.5 -68.5t-60 -122.5t-22 -177v-113q0 -15 8 -24t17 -11.5t26 -5.5q133 -14 240 -14q119 0 151 14q23 14 63.5 39.5t45.5 28.5q7 3 15.5 1t8.5 -9q-16 -188 -16 -316v-424q0 -40 24 -59t64 -31 q47 -16 47 -37q0 -18 -41 -18q-42 0 -86.5 5t-79.5 5t-79.5 -5t-86.5 -5q-41 0 -41 18q0 21 47 37q25 7 42 15.5t31.5 27.5t14.5 47v432q0 130 -98 150q-6 2 -110 2q-88 0 -125 -2q-39 -2 -57 -7.5t-21.5 -12t-3.5 -21.5v-541q0 -40 24 -59t64 -31q47 -16 47 -37 q0 -18 -41 -18q-42 0 -86.5 5t-79.5 5t-79.5 -5t-86.5 -5q-41 0 -41 18z" />
<glyph unicode="&#xfb02;" horiz-adv-x="1048" d="M45 760q0 7 6 10q21 6 41.5 13t32.5 12.5t32 14.5t29 13q2 141 37.5 253t88 179.5t121 112t130 61.5t119.5 17q64 0 109 -16q25 -5 30 -3l16 8t15.5 6.5t14.5 0.5t5 -12q0 -6 -3 -38.5t-6 -96t-3 -144.5v-1012q0 -40 23.5 -59t62.5 -31q47 -16 47 -37q0 -18 -41 -18 q-42 0 -86.5 5t-79.5 5t-79 -5t-86 -5q-41 0 -41 18q0 21 47 37q19 5 32 11t28 16t22.5 26t7.5 37v561q0 11 -7.5 16t-15.5 5h-282q-38 0 -56.5 -5.5t-22 -13t-3.5 -22.5v-541q0 -40 24 -59t64 -31q47 -16 47 -37q0 -18 -41 -18q-42 0 -86.5 5t-79.5 5t-79.5 -5t-86.5 -5 q-41 0 -41 18q0 21 47 37q25 7 42 15.5t31.5 27.5t14.5 47v578q-77 0 -120 4q-6 2 -13.5 15.5t-7.5 23.5zM330 860q0 -41 51 -41h317q19 0 19 21v319q0 23 -0.5 37.5t-4 42.5t-12 46.5t-21.5 38.5t-36.5 30t-54.5 10q-106 0 -182 -99t-76 -292v-113z" />
<glyph unicode="&#xfb03;" horiz-adv-x="1585" d="M37 12q0 21 47 37q39 11 63.5 31.5t24.5 60.5v576q-63 0 -106 4q-6 1 -13 12.5t-8 22.5t6 14q28 7 47.5 15.5t42.5 21t31 16.5q0 128 38 228t92 156t122.5 92t121 47.5t95.5 11.5q35 0 92 -14.5t94 -36.5q17 -10 25 0q63 70 156 104.5t172 34.5q77 0 150 -13t102 -36 q34 -27 34 -80q0 -21 -6 -39q-6 -17 -48.5 -34t-76.5 -17q-31 0 -37 14q-22 46 -72 85.5t-132 39.5q-108 0 -179 -104t-71 -304v-94q0 -25 12.5 -33t38.5 -12q133 -14 240 -14q123 0 151 14q23 14 63.5 39.5t45.5 28.5q7 3 15.5 1t8.5 -9q0 -6 -9 -108t-9 -208v-424 q0 -40 24 -59t64 -31q47 -16 47 -37q0 -18 -41 -18q-42 0 -86.5 5t-79.5 5t-79.5 -5t-86.5 -5q-41 0 -41 18q0 21 47 37q88 26 88 90v432q0 131 -96 150q-6 2 -110 2q-88 0 -125 -2q-38 -2 -56.5 -8t-22 -12.5t-3.5 -20.5v-541q0 -40 24 -59t64 -31q47 -16 47 -37 q0 -18 -41 -18q-42 0 -86.5 5t-79.5 5t-79.5 -5t-86.5 -5q-41 0 -41 18q0 21 47 37q25 7 42 15.5t31.5 27.5t14.5 47v578q-38 6 -174 6q-102 0 -129 -2q-51 -3 -66.5 -11.5t-15.5 -25.5v-545q0 -40 24 -59t64 -31q15 -5 23.5 -9t16.5 -11.5t8 -16.5q0 -18 -41 -18 q-42 0 -87 5t-79 5q-35 0 -79.5 -5t-86.5 -5q-41 0 -41 18zM315 864q0 -25 13.5 -34t38.5 -11q105 -10 198 -10q107 0 135 14q0 200 64 344q0 1 1 3.5t1 3.5q0 2 -4 10q-19 25 -38.5 42.5t-65 34.5t-105.5 17q-28 0 -56 -7t-62 -28.5t-59.5 -55.5t-43 -93.5t-17.5 -137.5 v-92z" />
<glyph unicode="&#xfb04;" horiz-adv-x="1572" d="M37 12q0 21 47 37q25 7 42 15.5t31.5 27.5t14.5 47v578q-63 0 -106 4q-6 1 -13 12.5t-8 22.5t6 14q21 6 41 13.5t29.5 12t28 14.5t24.5 13q0 93 19.5 171.5t51.5 132t75 96t86.5 67t89.5 41t81 22t64 5.5q35 0 92 -14.5t94 -36.5q17 -10 25 0q63 70 160 104.5t178 34.5 q70 0 115 -16q25 -5 30 -3q49 27 51 3q1 -8 -2 -38.5t-6.5 -95.5t-3.5 -145v-1012q0 -64 88 -90q47 -16 47 -37q0 -18 -41 -18q-42 0 -86 5t-79 5t-79.5 -5t-86.5 -5q-41 0 -41 18q0 21 47 37q88 26 88 90v561q0 11 -7.5 16t-15.5 5h-282q-56 0 -69 -8.5t-13 -32.5v-539 q0 -40 24.5 -60.5t63.5 -31.5q47 -16 47 -37q0 -18 -41 -18q-42 0 -86.5 5t-79.5 5t-79.5 -5t-86.5 -5q-41 0 -41 18q0 21 47 37q25 7 42 15.5t31.5 27.5t14.5 47v578q-38 6 -174 6q-102 0 -129 -2q-39 -3 -57 -9t-21.5 -12t-3.5 -20v-539q0 -40 24.5 -60.5t63.5 -31.5 q15 -5 23.5 -9t16.5 -11.5t8 -16.5q0 -18 -41 -18q-42 0 -86.5 5t-79.5 5t-79.5 -5t-86.5 -5q-41 0 -41 18zM315 864q0 -25 13.5 -34t38.5 -11q105 -10 198 -10q107 0 135 14q0 200 64 344q3 9 -2 17q-19 25 -38.5 42.5t-65 34.5t-105.5 17q-23 0 -45.5 -4t-51.5 -14.5 t-52.5 -32.5t-44.5 -54t-32.5 -83.5t-11.5 -116.5v-109zM844 860q0 -41 51 -41h317q19 0 19 21v319q0 23 -0.5 37.5t-4 42.5t-12 46.5t-21.5 38.5t-36.5 30t-54.5 10q-106 0 -182 -99t-76 -292v-113z" />
</font>
</defs>
</svg>
